<svg width="62" height="117" viewBox="0 0 62 117" fill="none" xmlns="http://www.w3.org/2000/svg">
<path d="M4.09814 34.6888C4.09814 34.6888 4.81314 30.3977 4.99452 30.0715C5.1759 29.7453 7.14215 27.7379 7.37611 27.7037C7.61006 27.6695 10.7224 26.6855 10.5515 27.1775C10.3807 27.6695 8.18574 28.3193 8.18574 28.3193L7.97807 28.5824C7.97807 28.5824 9.84444 27.9747 10.3097 27.9904C10.7356 27.9904 10.8118 28.4482 10.4779 28.5771C10.1441 28.7061 8.49855 29.1849 8.43809 29.2875C8.37763 29.3901 10.2782 28.8508 10.5069 28.8587C10.8276 28.8744 11.0615 29.2796 10.7329 29.4164C10.541 29.498 8.71147 29.9189 8.71147 29.9189C9.27477 29.8448 9.84162 29.8009 10.4096 29.7874C10.6909 29.8637 10.6725 30.2031 10.3597 30.2872C10.1467 30.3425 9.02692 30.3899 8.74302 30.4662C8.74302 30.4662 8.53272 30.6477 8.54061 31.2133C8.5485 31.779 7.81247 33.2918 7.81247 33.2918L4.09814 34.6888Z" fill="#FFBE9D"/>
<path d="M10.5383 27.1722C10.4127 27.3345 10.2564 27.4704 10.0783 27.5721C9.89404 27.6938 9.69969 27.7994 9.49739 27.8878C9.26343 27.9747 9.00845 28.0615 8.7377 28.1509L8.16202 28.3456L8.19356 28.3272C7.86889 28.6826 7.51736 29.0124 7.14209 29.3138C7.43165 28.9276 7.7535 28.5667 8.10419 28.2351H8.12522L8.69301 28.0378L9.44744 27.7747C9.64655 27.6945 9.8398 27.6005 10.0257 27.4932C10.3438 27.3011 10.5147 27.1564 10.5383 27.1722Z" fill="#EB996E"/>
<path d="M52.0478 81.8219L9.60777 77.4493C8.98581 77.3829 8.41542 77.0728 8.02133 76.5866C7.62724 76.1005 7.44154 75.478 7.50483 74.8552L14.8651 3.45704C14.9098 3.01827 15.0404 2.59262 15.2496 2.20445C15.4588 1.81629 15.7425 1.47322 16.0843 1.19488C16.4261 0.916545 16.8194 0.708407 17.2417 0.582377C17.664 0.456348 18.107 0.414902 18.5453 0.460411L58.9875 4.63043C59.8723 4.72203 60.6846 5.1614 61.246 5.85202C61.8074 6.54264 62.0719 7.42803 61.9815 8.31373L54.6318 79.7171C54.5654 80.3381 54.2567 80.9077 53.7727 81.3019C53.2887 81.6961 52.6688 81.883 52.0478 81.8219Z" fill="#FFCC00"/>
<path opacity="0.4" d="M52.0478 81.8219L9.60777 77.4493C8.98581 77.3829 8.41542 77.0728 8.02133 76.5866C7.62724 76.1005 7.44154 75.478 7.50483 74.8552L14.8651 3.45704C14.9098 3.01827 15.0404 2.59262 15.2496 2.20445C15.4588 1.81629 15.7425 1.47322 16.0843 1.19488C16.4261 0.916545 16.8194 0.708407 17.2417 0.582377C17.664 0.456348 18.107 0.414902 18.5453 0.460411L58.9875 4.63043C59.8723 4.72203 60.6846 5.1614 61.246 5.85202C61.8074 6.54264 62.0719 7.42803 61.9815 8.31373L54.6318 79.7171C54.5654 80.3381 54.2567 80.9077 53.7727 81.3019C53.2887 81.6961 52.6688 81.883 52.0478 81.8219Z" fill="black"/>
<path d="M47.7578 81.3825L5.32566 77.0073C4.70371 76.9409 4.13331 76.6308 3.73922 76.1446C3.34514 75.6585 3.15943 75.036 3.22272 74.4132L10.583 3.01504C10.6746 2.13197 11.1118 1.3211 11.7989 0.759597C12.486 0.198097 13.3672 -0.0683733 14.25 0.0184118L54.7054 4.18843C55.5899 4.28071 56.4018 4.72025 56.9631 5.4107C57.5243 6.10116 57.7891 6.98618 57.6994 7.87173L50.3391 79.2699C50.2747 79.8918 49.9672 80.4629 49.4836 80.8587C49 81.2545 48.3796 81.4428 47.7578 81.3825Z" fill="#FFCC00"/>
<path d="M26.1819 61.9489L11.5492 60.4407C11.1997 60.4046 10.8872 60.659 10.8512 61.0088L10.2582 66.7716C10.2222 67.1214 10.4764 67.4341 10.8258 67.4701L25.4585 68.9784C25.808 69.0144 26.1205 68.7601 26.1565 68.4103L26.7495 62.6475C26.7855 62.2977 26.5313 61.9849 26.1819 61.9489Z" fill="#FFCC00"/>
<g opacity="0.4">
<path d="M26.1819 61.9489L11.5492 60.4407C11.1997 60.4046 10.8872 60.659 10.8512 61.0088L10.2582 66.7716C10.2222 67.1214 10.4764 67.4341 10.8258 67.4701L25.4585 68.9784C25.808 69.0144 26.1205 68.7601 26.1565 68.4103L26.7495 62.6475C26.7855 62.2977 26.5313 61.9849 26.1819 61.9489Z" fill="black"/>
</g>
<path d="M13.5238 7.99997L11.8959 23.8203L52.1907 27.9737L53.8186 12.1534L13.5238 7.99997Z" fill="#FAFAFA"/>
<path d="M52.1897 27.9747C52.1897 27.9747 52.1897 27.8773 52.2134 27.6931L52.2923 26.8723C52.3659 26.1541 52.471 25.0938 52.6051 23.731C52.8679 21.0027 53.278 17.051 53.7722 12.1549L53.8143 12.2075L13.5193 8.06905L13.5929 8.00591C13.0224 13.5309 12.4731 18.8848 11.9631 23.8257L11.9026 23.7546L40.7813 26.7618L49.1668 27.6458L51.4117 27.8852L51.9926 27.951L52.1924 27.9747L52.0005 27.9589L51.4248 27.9036L49.1931 27.6826L40.8155 26.8355L11.9 23.8862H11.8369V23.8204C12.3442 18.8795 12.8884 13.5335 13.4614 8.00065V7.93224H13.5298L53.8222 12.1023H53.8695V12.1496C53.3437 17.0616 52.9363 21.0185 52.6471 23.752C52.5026 25.1122 52.3843 26.1646 52.3133 26.8828C52.2765 27.238 52.2449 27.5063 52.2265 27.6931C52.2081 27.8799 52.1897 27.9747 52.1897 27.9747Z" fill="#263238"/>
<path d="M19.8039 31.0087L14.0434 30.4149C13.743 30.384 13.4744 30.6026 13.4435 30.9032L12.8502 36.6687C12.8193 36.9693 13.0377 37.2381 13.3381 37.2691L19.0986 37.8628C19.399 37.8938 19.6676 37.6752 19.6985 37.3746L20.2918 31.6091C20.3227 31.3085 20.1043 31.0397 19.8039 31.0087Z" fill="#FFCC00"/>
<g opacity="0.4">
<path d="M19.804 31.0087L14.0435 30.4149C13.7431 30.384 13.4746 30.6026 13.4436 30.9032L12.8504 36.6687C12.8194 36.9693 13.0379 37.2381 13.3382 37.2691L19.0987 37.8628C19.3991 37.8938 19.6677 37.6752 19.6986 37.3746L20.2919 31.6091C20.3228 31.3085 20.1044 31.0397 19.804 31.0087Z" fill="black"/>
</g>
<path d="M18.7454 30.9007L12.9849 30.3069C12.6845 30.2759 12.416 30.4945 12.385 30.7952L11.7918 36.5606C11.7608 36.8613 11.9793 37.1301 12.2796 37.161L18.0402 37.7548C18.3405 37.7858 18.6091 37.5671 18.6401 37.2665L19.2333 31.5011C19.2642 31.2004 19.0458 30.9316 18.7454 30.9007Z" fill="#263238"/>
<path d="M16.1453 32.6235L15.8509 35.4781L15.1911 35.4097L15.4303 33.0839L14.8599 33.026L14.9124 32.4998L16.1453 32.6235Z" fill="white"/>
<path d="M29.3529 31.9932L23.5924 31.3995C23.292 31.3685 23.0234 31.5871 22.9924 31.8878L22.3992 37.6532C22.3683 37.9538 22.5867 38.2227 22.8871 38.2536L28.6476 38.8474C28.948 38.8784 29.2165 38.6597 29.2475 38.3591L29.8407 32.5937C29.8717 32.293 29.6532 32.0242 29.3529 31.9932Z" fill="#FFCC00"/>
<g opacity="0.4">
<path d="M29.3529 31.9932L23.5924 31.3995C23.292 31.3685 23.0234 31.5871 22.9924 31.8878L22.3992 37.6532C22.3683 37.9538 22.5867 38.2227 22.8871 38.2536L28.6476 38.8474C28.948 38.8784 29.2165 38.6597 29.2475 38.3591L29.8407 32.5937C29.8717 32.293 29.6532 32.0242 29.3529 31.9932Z" fill="black"/>
</g>
<path d="M28.297 31.8855L22.5364 31.2917C22.2361 31.2607 21.9675 31.4793 21.9365 31.78L21.3433 37.5454C21.3123 37.8461 21.5308 38.1149 21.8312 38.1458L27.5917 38.7396C27.892 38.7706 28.1606 38.5519 28.1916 38.2513L28.7848 32.4859C28.8158 32.1852 28.5973 31.9164 28.297 31.8855Z" fill="#263238"/>
<path d="M26.4892 36.0437L26.434 36.5831L24.2759 36.3594L24.3206 35.9332L25.5298 35.0045C25.7926 34.7914 25.8662 34.6467 25.8794 34.5099C25.903 34.2836 25.7611 34.1389 25.4614 34.1073C25.3472 34.0909 25.2308 34.1027 25.1222 34.1417C25.0136 34.1807 24.9162 34.2457 24.8384 34.331L24.3915 33.9705C24.5406 33.8095 24.7269 33.6876 24.9341 33.6156C25.1413 33.5435 25.363 33.5236 25.5797 33.5575C26.2158 33.6233 26.6049 33.9942 26.5523 34.5125C26.5234 34.7888 26.4209 35.0387 25.9819 35.3649L25.2616 35.9174L26.4892 36.0437Z" fill="white"/>
<path d="M39.2562 33.0137L33.4957 32.4199C33.1953 32.389 32.9267 32.6076 32.8958 32.9082L32.3025 38.6737C32.2716 38.9743 32.49 39.2431 32.7904 39.2741L38.5509 39.8678C38.8513 39.8988 39.1199 39.6802 39.1508 39.3795L39.7441 33.6141C39.775 33.3135 39.5566 33.0447 39.2562 33.0137Z" fill="#FFCC00"/>
<g opacity="0.4">
<path d="M39.2562 33.0137L33.4957 32.4199C33.1953 32.389 32.9267 32.6076 32.8958 32.9082L32.3025 38.6737C32.2716 38.9743 32.49 39.2431 32.7904 39.2741L38.5509 39.8678C38.8513 39.8988 39.1199 39.6802 39.1508 39.3795L39.7441 33.6141C39.775 33.3135 39.5566 33.0447 39.2562 33.0137Z" fill="black"/>
</g>
<path d="M38.1977 32.9056L32.4372 32.3119C32.1368 32.2809 31.8682 32.4995 31.8373 32.8002L31.244 38.5656C31.2131 38.8662 31.4315 39.1351 31.7319 39.166L37.4924 39.7598C37.7928 39.7908 38.0614 39.5721 38.0923 39.2715L38.6856 33.5061C38.7165 33.2054 38.4981 32.9366 38.1977 32.9056Z" fill="#263238"/>
<path d="M36.3993 36.7146C36.3493 37.196 35.934 37.5986 35.1243 37.5039C34.7402 37.4718 34.3742 37.3262 34.0729 37.0856L34.3831 36.6067C34.6033 36.8011 34.8794 36.9208 35.1717 36.9487C35.5029 36.9829 35.7184 36.8672 35.7447 36.6357C35.771 36.4041 35.6212 36.2673 35.2453 36.2305L34.943 36.1989L34.9877 35.7622L35.6448 35.1571L34.4304 35.0308L34.4829 34.5046L36.4807 34.7098L36.4387 35.1387L35.7184 35.8069C35.9278 35.8395 36.1161 35.9526 36.2433 36.1222C36.3705 36.2917 36.4265 36.5043 36.3993 36.7146Z" fill="white"/>
<path d="M49.1569 34.0339L43.3964 33.4401C43.096 33.4092 42.8275 33.6278 42.7965 33.9284L42.2033 39.6939C42.1723 39.9945 42.3908 40.2633 42.6911 40.2943L48.4517 40.888C48.752 40.919 49.0206 40.7004 49.0515 40.3997L49.6448 34.6343C49.6757 34.3337 49.4573 34.0649 49.1569 34.0339Z" fill="#FFCC00"/>
<g opacity="0.4">
<path d="M49.1569 34.0339L43.3964 33.4401C43.096 33.4092 42.8275 33.6278 42.7965 33.9284L42.2033 39.6939C42.1723 39.9945 42.3908 40.2633 42.6911 40.2943L48.4517 40.888C48.752 40.919 49.0206 40.7004 49.0515 40.3997L49.6448 34.6343C49.6757 34.3337 49.4573 34.0649 49.1569 34.0339Z" fill="black"/>
</g>
<path d="M48.1219 33.9259L42.3614 33.3321C42.061 33.3012 41.7924 33.5198 41.7615 33.8204L41.1682 39.5859C41.1373 39.8865 41.3557 40.1553 41.6561 40.1863L47.4166 40.78C47.717 40.811 47.9856 40.5924 48.0165 40.2917L48.6098 34.5263C48.6407 34.2257 48.4223 33.9569 48.1219 33.9259Z" fill="#263238"/>
<path d="M43.3431 36.6561L43.3162 36.9178L46.3755 37.2331L46.4025 36.9714L43.3431 36.6561Z" fill="white"/>
<path d="M45.4919 35.6622C45.4819 35.7607 45.443 35.854 45.3801 35.9304C45.3171 36.0067 45.2329 36.0626 45.1382 36.091C45.0435 36.1194 44.9424 36.119 44.8479 36.0898C44.7534 36.0607 44.6697 36.0041 44.6073 35.9273C44.5449 35.8505 44.5068 35.7569 44.4976 35.6583C44.4885 35.5598 44.5088 35.4607 44.5559 35.3737C44.6031 35.2867 44.675 35.2157 44.7625 35.1696C44.8501 35.1236 44.9493 35.1046 45.0476 35.115C45.1789 35.1289 45.2993 35.1943 45.3826 35.2969C45.4658 35.3994 45.5051 35.5308 45.4919 35.6622Z" fill="white"/>
<path d="M45.2132 38.33C45.2033 38.4284 45.1646 38.5216 45.1017 38.5979C45.0389 38.6743 44.9549 38.7302 44.8603 38.7587C44.7657 38.7873 44.6648 38.7871 44.5703 38.7582C44.4758 38.7293 44.392 38.673 44.3295 38.5965C44.267 38.5199 44.2286 38.4265 44.2191 38.3281C44.2096 38.2297 44.2295 38.1306 44.2763 38.0435C44.323 37.9564 44.3946 37.8852 44.4818 37.8387C44.569 37.7923 44.668 37.7728 44.7663 37.7828C44.8981 37.7961 45.0192 37.8612 45.103 37.9638C45.1868 38.0664 45.2264 38.1981 45.2132 38.33Z" fill="white"/>
<path d="M18.7684 41.0524L13.0079 40.4586C12.7075 40.4277 12.4389 40.6463 12.408 40.9469L11.8147 46.7124C11.7838 47.013 12.0022 47.2818 12.3026 47.3128L18.0631 47.9066C18.3635 47.9375 18.6321 47.7189 18.663 47.4183L19.2563 41.6528C19.2872 41.3522 19.0688 41.0834 18.7684 41.0524Z" fill="#FFCC00"/>
<g opacity="0.4">
<path d="M18.7684 41.0524L13.0079 40.4586C12.7075 40.4277 12.4389 40.6463 12.408 40.9469L11.8147 46.7124C11.7838 47.013 12.0022 47.2818 12.3026 47.3128L18.0631 47.9066C18.3635 47.9375 18.6321 47.7189 18.663 47.4183L19.2563 41.6528C19.2872 41.3522 19.0688 41.0834 18.7684 41.0524Z" fill="black"/>
</g>
<path d="M17.7125 40.9446L11.952 40.3509C11.6516 40.3199 11.383 40.5385 11.3521 40.8392L10.7588 46.6046C10.7279 46.9052 10.9463 47.174 11.2467 47.205L17.0072 47.7988C17.3076 47.8297 17.5762 47.6111 17.6071 47.3105L18.2004 41.545C18.2313 41.2444 18.0129 40.9756 17.7125 40.9446Z" fill="#263238"/>
<path d="M15.7116 45.0073L15.2463 44.9599L15.1859 45.5598L14.5418 45.4914L14.6023 44.8915L13.0671 44.7337L13.1118 44.289L14.6443 42.621L15.3357 42.6921L13.9136 44.2706L14.6785 44.3496L14.7337 43.8234L15.3567 43.8891L15.3041 44.4153L15.772 44.4627L15.7116 45.0073Z" fill="white"/>
<path d="M28.3225 42.0346L22.562 41.4408C22.2616 41.4099 21.993 41.6285 21.9621 41.9291L21.3688 47.6946C21.3379 47.9952 21.5563 48.264 21.8567 48.295L27.6172 48.8887C27.9176 48.9197 28.1861 48.7011 28.2171 48.4004L28.8103 42.635C28.8413 42.3344 28.6228 42.0656 28.3225 42.0346Z" fill="#FFCC00"/>
<g opacity="0.4">
<path d="M28.3225 42.0346L22.562 41.4408C22.2616 41.4099 21.993 41.6285 21.9621 41.9291L21.3688 47.6946C21.3379 47.9952 21.5563 48.264 21.8567 48.295L27.6172 48.8887C27.9176 48.9197 28.1861 48.7011 28.2171 48.4004L28.8103 42.635C28.8413 42.3344 28.6228 42.0656 28.3225 42.0346Z" fill="black"/>
</g>
<path d="M27.2613 41.9265L21.5008 41.3328C21.2004 41.3018 20.9318 41.5204 20.9009 41.8211L20.3076 47.5865C20.2767 47.8871 20.4951 48.156 20.7955 48.1869L26.556 48.7807C26.8564 48.8116 27.125 48.593 27.1559 48.2924L27.7492 42.5269C27.7801 42.2263 27.5617 41.9575 27.2613 41.9265Z" fill="#263238"/>
<path d="M25.1775 45.6808C25.1249 46.1886 24.7096 46.5911 23.892 46.5069C23.5087 46.4715 23.1436 46.3263 22.8406 46.0886L23.1534 45.6098C23.3743 45.8027 23.6501 45.9214 23.942 45.9492C24.2706 45.9834 24.4914 45.865 24.515 45.6334C24.5387 45.4019 24.4046 45.2467 23.8868 45.1941L23.1586 45.1178L23.4688 43.5261L25.2116 43.705L25.1564 44.2312L23.9657 44.1101L23.8658 44.6363L24.0971 44.66C24.933 44.7626 25.2353 45.1757 25.1775 45.6808Z" fill="white"/>
<path d="M38.2205 43.0548L32.46 42.461C32.1596 42.4301 31.8911 42.6487 31.8601 42.9493L31.2669 48.7147C31.2359 49.0154 31.4544 49.2842 31.7547 49.3152L37.5152 49.9089C37.8156 49.9399 38.0842 49.7213 38.1152 49.4206L38.7084 43.6552C38.7393 43.3546 38.5209 43.0857 38.2205 43.0548Z" fill="#FFCC00"/>
<g opacity="0.4">
<path d="M38.2207 43.0548L32.4601 42.461C32.1598 42.4301 31.8912 42.6487 31.8602 42.9493L31.267 48.7147C31.2361 49.0154 31.4545 49.2842 31.7549 49.3152L37.5154 49.9089C37.8158 49.9399 38.0843 49.7213 38.1153 49.4206L38.7085 43.6552C38.7395 43.3546 38.521 43.0857 38.2207 43.0548Z" fill="black"/>
</g>
<path d="M37.1647 42.9496L31.4042 42.3559C31.1039 42.3249 30.8353 42.5435 30.8043 42.8442L30.2111 48.6096C30.1801 48.9102 30.3986 49.1791 30.699 49.21L36.4595 49.8038C36.7598 49.8347 37.0284 49.6161 37.0594 49.3155L37.6526 43.55C37.6836 43.2494 37.4651 42.9806 37.1647 42.9496Z" fill="#263238"/>
<path d="M35.2794 46.72C35.219 47.3015 34.7038 47.6198 34.0992 47.5593C33.3106 47.4777 32.8742 46.9331 32.9688 46.0097C33.0714 45.0231 33.7233 44.5337 34.5828 44.6232C34.8605 44.6385 35.1286 44.7294 35.3583 44.8863L35.0639 45.3467C34.9121 45.2302 34.7291 45.1615 34.5382 45.1494C34.0624 45.0994 33.7285 45.3493 33.6497 45.8939C33.7538 45.8165 33.8723 45.7608 33.9983 45.7301C34.1242 45.6994 34.2551 45.6943 34.3831 45.715C34.5098 45.7161 34.6349 45.7438 34.7503 45.7961C34.8657 45.8485 34.969 45.9244 35.0534 46.0191C35.1378 46.1137 35.2015 46.2249 35.2404 46.3456C35.2793 46.4663 35.2926 46.5939 35.2794 46.72ZM34.6354 46.6858C34.6418 46.6245 34.635 46.5625 34.6156 46.504C34.5962 46.4455 34.5645 46.3918 34.5227 46.3465C34.4809 46.3012 34.43 46.2654 34.3733 46.2413C34.3166 46.2172 34.2554 46.2055 34.1938 46.207C34.1334 46.1945 34.0711 46.1945 34.0107 46.2071C33.9503 46.2196 33.893 46.2444 33.8426 46.2799C33.7921 46.3154 33.7494 46.3608 33.7171 46.4134C33.6849 46.4661 33.6637 46.5247 33.6549 46.5858C33.6313 46.8305 33.7969 47.0278 34.1149 47.062C34.1742 47.0754 34.2355 47.076 34.295 47.0638C34.3545 47.0516 34.4107 47.0269 34.4599 46.9913C34.5091 46.9557 34.5502 46.9101 34.5805 46.8574C34.6107 46.8048 34.6294 46.7463 34.6354 46.6858Z" fill="white"/>
<path d="M48.124 44.0779L42.3635 43.4841C42.0631 43.4531 41.7945 43.6718 41.7636 43.9724L41.1703 49.7378C41.1394 50.0385 41.3578 50.3073 41.6582 50.3382L47.4187 50.932C47.7191 50.963 47.9877 50.7444 48.0186 50.4437L48.6119 44.6783C48.6428 44.3776 48.4244 44.1088 48.124 44.0779Z" fill="#FFCC00"/>
<g opacity="0.4">
<path d="M48.124 44.0779L42.3635 43.4841C42.0631 43.4531 41.7945 43.6718 41.7636 43.9724L41.1703 49.7378C41.1394 50.0385 41.3578 50.3073 41.6582 50.3382L47.4187 50.932C47.7191 50.963 47.9877 50.7444 48.0186 50.4437L48.6119 44.6783C48.6428 44.3776 48.4244 44.1088 48.124 44.0779Z" fill="black"/>
</g>
<path d="M47.0654 43.9701L41.3049 43.3763C41.0045 43.3454 40.7359 43.564 40.705 43.8646L40.1117 49.63C40.0808 49.9307 40.2992 50.1995 40.5996 50.2305L46.3601 50.8242C46.6605 50.8552 46.9291 50.6366 46.96 50.3359L47.5533 44.5705C47.5842 44.2699 47.3658 44.001 47.0654 43.9701Z" fill="#263238"/>
<path d="M44.9584 46.0439L42.5435 47.95L42.7062 48.1566L45.1212 46.2505L44.9584 46.0439Z" fill="white"/>
<path d="M42.9622 45.8302L42.7583 45.9962L44.6988 48.3844L44.9028 48.2184L42.9622 45.8302Z" fill="white"/>
<path d="M17.7437 51.0134L11.9832 50.4197C11.6828 50.3887 11.4143 50.6073 11.3833 50.908L10.7901 56.6734C10.7591 56.974 10.9776 57.2429 11.2779 57.2738L17.0384 57.8676C17.3388 57.8986 17.6074 57.6799 17.6383 57.3793L18.2316 51.6139C18.2625 51.3132 18.0441 51.0444 17.7437 51.0134Z" fill="#FFCC00"/>
<g opacity="0.4">
<path d="M17.7437 51.0134L11.9832 50.4197C11.6828 50.3887 11.4143 50.6073 11.3833 50.908L10.7901 56.6734C10.7591 56.974 10.9776 57.2429 11.2779 57.2738L17.0384 57.8676C17.3388 57.8986 17.6074 57.6799 17.6383 57.3793L18.2316 51.6139C18.2625 51.3132 18.0441 51.0444 17.7437 51.0134Z" fill="black"/>
</g>
<path d="M16.6881 50.903L10.9276 50.3093C10.6272 50.2783 10.3586 50.4969 10.3277 50.7976L9.73439 56.563C9.70346 56.8636 9.92189 57.1325 10.2223 57.1634L15.9828 57.7572C16.2832 57.7881 16.5517 57.5695 16.5827 57.2689L17.1759 51.5034C17.2069 51.2028 16.9884 50.934 16.6881 50.903Z" fill="#263238"/>
<path d="M14.5392 52.6712L14.4971 53.1L13.1828 55.4179L12.4652 55.3442L13.7269 53.1316L12.7832 53.0342L12.7333 53.4999L12.1471 53.4394L12.2496 52.4344L14.5392 52.6712Z" fill="white"/>
<path d="M27.2951 51.9956L21.5346 51.4019C21.2342 51.3709 20.9656 51.5895 20.9347 51.8901L20.3415 57.6556C20.3105 57.9562 20.5289 58.225 20.8293 58.256L26.5898 58.8498C26.8902 58.8807 27.1588 58.6621 27.1897 58.3615L27.783 52.596C27.8139 52.2954 27.5955 52.0266 27.2951 51.9956Z" fill="#FFCC00"/>
<g opacity="0.4">
<path d="M27.2952 51.9956L21.5347 51.4019C21.2344 51.3709 20.9658 51.5895 20.9348 51.8901L20.3416 57.6556C20.3106 57.9562 20.5291 58.225 20.8294 58.256L26.59 58.8498C26.8903 58.8807 27.1589 58.6621 27.1899 58.3615L27.7831 52.596C27.8141 52.2954 27.5956 52.0266 27.2952 51.9956Z" fill="black"/>
</g>
<path d="M26.2366 51.8876L20.4761 51.2938C20.1758 51.2628 19.9072 51.4814 19.8762 51.7821L19.283 57.5475C19.252 57.8482 19.4705 58.117 19.7709 58.1479L25.5314 58.7417C25.8317 58.7727 26.1003 58.5541 26.1313 58.2534L26.7245 52.488C26.7555 52.1873 26.537 51.9185 26.2366 51.8876Z" fill="#263238"/>
<path d="M24.3757 55.7362C24.3205 56.2624 23.8053 56.5623 23.0798 56.4887C22.3543 56.415 21.9153 56.0256 21.9705 55.4863C21.9839 55.3439 22.0385 55.2086 22.1277 55.0969C22.2169 54.9851 22.3368 54.9019 22.4726 54.8575C22.3775 54.7868 22.303 54.692 22.2568 54.5828C22.2105 54.4737 22.1943 54.3541 22.2097 54.2366C22.2623 53.7341 22.7354 53.4657 23.3926 53.5341C24.0498 53.6025 24.4467 53.9603 24.4046 54.4602C24.3948 54.5793 24.3529 54.6936 24.2835 54.7908C24.2141 54.8881 24.1197 54.9647 24.0103 55.0127C24.136 55.0835 24.2378 55.1901 24.3028 55.3189C24.3679 55.4477 24.3932 55.593 24.3757 55.7362ZM23.7107 55.6468C23.737 55.3837 23.5451 55.2153 23.2138 55.1811C22.8826 55.1469 22.6671 55.2837 22.6434 55.5363C22.6198 55.7888 22.8038 55.9677 23.1297 56.0019C23.4557 56.0361 23.6844 55.8993 23.7107 55.6468ZM22.8563 54.3313C22.8353 54.547 22.993 54.6996 23.2612 54.7259C23.5293 54.7522 23.7238 54.6391 23.7448 54.4207C23.7659 54.2024 23.6029 54.0445 23.3348 54.0156C23.0666 53.9866 22.8695 54.1077 22.8695 54.3339L22.8563 54.3313Z" fill="white"/>
<path d="M37.1959 53.0158L31.4354 52.422C31.135 52.3911 30.8664 52.6097 30.8355 52.9103L30.2422 58.6758C30.2113 58.9764 30.4297 59.2452 30.7301 59.2762L36.4906 59.8699C36.791 59.9009 37.0596 59.6823 37.0905 59.3816L37.6838 53.6162C37.7147 53.3156 37.4963 53.0468 37.1959 53.0158Z" fill="#FFCC00"/>
<g opacity="0.4">
<path d="M37.196 53.0158L31.4355 52.422C31.1351 52.3911 30.8665 52.6097 30.8356 52.9103L30.2423 58.6758C30.2114 58.9764 30.4298 59.2452 30.7302 59.2762L36.4907 59.8699C36.7911 59.9009 37.0597 59.6823 37.0906 59.3816L37.6839 53.6162C37.7148 53.3156 37.4964 53.0468 37.196 53.0158Z" fill="black"/>
</g>
<path d="M36.0988 52.5712L30.3658 51.9916C30.0668 51.9614 29.8 52.1794 29.7698 52.4786L29.1907 58.2166C29.1605 58.5158 29.3784 58.7829 29.6773 58.8131L35.4104 59.3927C35.7093 59.4229 35.9762 59.2048 36.0064 58.9056L36.5854 53.1677C36.6156 52.8685 36.3978 52.6014 36.0988 52.5712Z" fill="#263238"/>
<path d="M34.2359 56.0835C34.136 57.0701 33.4867 57.5621 32.6219 57.4726C32.3446 57.4513 32.0784 57.3549 31.8517 57.1937L32.1461 56.7333C32.2964 56.853 32.4801 56.9228 32.6718 56.9333C33.145 56.9806 33.4841 56.7307 33.5603 56.1835C33.4559 56.2612 33.337 56.3173 33.2106 56.3485C33.0842 56.3797 32.9529 56.3853 32.8243 56.365C32.6994 56.3633 32.5761 56.3358 32.4623 56.2842C32.3485 56.2327 32.2465 56.1581 32.1628 56.0652C32.0792 55.9723 32.0156 55.8631 31.9761 55.7445C31.9365 55.6259 31.9219 55.5003 31.9332 55.3758C31.9936 54.7917 32.5089 54.4734 33.1108 54.5365C33.9099 54.6181 34.3305 55.16 34.2359 56.0835ZM33.5498 55.5126C33.5761 55.2679 33.4105 55.068 33.0951 55.0364C33.0355 55.0222 32.9735 55.0209 32.9134 55.0327C32.8533 55.0445 32.7964 55.0691 32.7466 55.1047C32.6968 55.1404 32.6552 55.1863 32.6246 55.2394C32.594 55.2925 32.5752 55.3516 32.5693 55.4126C32.563 55.4739 32.5697 55.5359 32.5891 55.5944C32.6086 55.6529 32.6402 55.7066 32.682 55.7519C32.7238 55.7972 32.7747 55.8331 32.8315 55.8571C32.8882 55.8812 32.9494 55.8929 33.0109 55.8914C33.0714 55.9047 33.134 55.9053 33.1947 55.8931C33.2554 55.8809 33.3129 55.8562 33.3636 55.8206C33.4142 55.7849 33.457 55.7392 33.489 55.6861C33.5211 55.6331 33.5418 55.574 33.5498 55.5126Z" fill="white"/>
<path d="M47.0993 54.0363L41.3388 53.4425C41.0384 53.4115 40.7698 53.6301 40.7389 53.9308L40.1456 59.6962C40.1147 59.9969 40.3331 60.2657 40.6335 60.2966L46.394 60.8904C46.6944 60.9214 46.963 60.7028 46.9939 60.4021L47.5872 54.6367C47.6181 54.336 47.3997 54.0672 47.0993 54.0363Z" fill="#FFCC00"/>
<g opacity="0.4">
<path d="M47.0993 54.0363L41.3388 53.4425C41.0384 53.4115 40.7698 53.6301 40.7389 53.9308L40.1456 59.6962C40.1147 59.9969 40.3331 60.2657 40.6335 60.2966L46.394 60.8904C46.6944 60.9214 46.963 60.7028 46.9939 60.4021L47.5872 54.6367C47.6181 54.336 47.3997 54.0672 47.0993 54.0363Z" fill="black"/>
</g>
<path d="M46.0407 53.9285L40.2802 53.3347C39.9798 53.3038 39.7112 53.5224 39.6803 53.823L39.0871 59.5884C39.0561 59.8891 39.2746 60.1579 39.5749 60.1889L45.3354 60.7826C45.6358 60.8136 45.9044 60.595 45.9353 60.2943L46.5286 54.5289C46.5595 54.2283 46.3411 53.9594 46.0407 53.9285Z" fill="#263238"/>
<path d="M41.2921 56.7753L41.2651 57.037L44.3245 57.3523L44.3514 57.0906L41.2921 56.7753Z" fill="white"/>
<path d="M36.1624 63.065L30.4019 62.4713C30.1015 62.4403 29.833 62.6589 29.802 62.9595L29.2088 68.725C29.1778 69.0256 29.3963 69.2944 29.6966 69.3254L35.4571 69.9192C35.7575 69.9501 36.0261 69.7315 36.057 69.4309L36.6503 63.6654C36.6812 63.3648 36.4628 63.096 36.1624 63.065Z" fill="#FFCC00"/>
<g opacity="0.4">
<path d="M36.1624 63.065L30.4019 62.4713C30.1015 62.4403 29.833 62.6589 29.802 62.9595L29.2088 68.725C29.1778 69.0256 29.3963 69.2944 29.6966 69.3254L35.4571 69.9192C35.7575 69.9501 36.0261 69.7315 36.057 69.4309L36.6503 63.6654C36.6812 63.3648 36.4628 63.096 36.1624 63.065Z" fill="black"/>
</g>
<path d="M35.1065 62.9572L29.346 62.3635C29.0456 62.3325 28.777 62.5511 28.7461 62.8518L28.1529 68.6172C28.1219 68.9178 28.3403 69.1867 28.6407 69.2176L34.4012 69.8114C34.7016 69.8423 34.9702 69.6237 35.0011 69.3231L35.5944 63.5576C35.6253 63.257 35.4069 62.9882 35.1065 62.9572Z" fill="#263238"/>
<path d="M46.0657 64.0855L40.3052 63.4917C40.0049 63.4607 39.7363 63.6794 39.7053 63.98L39.1121 69.7454C39.0811 70.0461 39.2996 70.3149 39.6 70.3458L45.3605 70.9396C45.6608 70.9706 45.9294 70.752 45.9604 70.4513L46.5536 64.6859C46.5846 64.3852 46.3661 64.1164 46.0657 64.0855Z" fill="#FFCC00"/>
<g opacity="0.4">
<path d="M46.0657 64.0855L40.3052 63.4917C40.0049 63.4607 39.7363 63.6794 39.7053 63.98L39.1121 69.7454C39.0811 70.0461 39.2996 70.3149 39.6 70.3458L45.3605 70.9396C45.6608 70.9706 45.9294 70.752 45.9604 70.4513L46.5536 64.6859C46.5846 64.3852 46.3661 64.1164 46.0657 64.0855Z" fill="black"/>
</g>
<path d="M45.0046 63.9774L39.2441 63.3837C38.9437 63.3527 38.6751 63.5713 38.6442 63.8719L38.0509 69.6374C38.02 69.938 38.2384 70.2068 38.5388 70.2378L44.2993 70.8316C44.5997 70.8625 44.8683 70.6439 44.8992 70.3433L45.4925 64.5778C45.5234 64.2772 45.305 64.0084 45.0046 63.9774Z" fill="#455A64"/>
<path d="M40.2983 66.4479L40.2714 66.7096L43.3307 67.0249L43.3577 66.7632L40.2983 66.4479Z" fill="white"/>
<path d="M40.1772 67.6137L40.1503 67.8755L43.2096 68.1908L43.2366 67.9291L40.1772 67.6137Z" fill="white"/>
<path d="M24.8781 61.8135L9.65188 60.244C9.29085 60.2068 8.96803 60.4696 8.93085 60.8309L8.34216 66.5519C8.30498 66.9132 8.56752 67.2363 8.92855 67.2735L24.1548 68.843C24.5158 68.8802 24.8387 68.6174 24.8758 68.2561L25.4645 62.5351C25.5017 62.1738 25.2392 61.8507 24.8781 61.8135Z" fill="#263238"/>
<path d="M16.2978 64.342C16.3951 63.4001 16.9708 62.9186 17.6726 62.9923C18.3745 63.066 18.8398 63.6527 18.7451 64.5946C18.6505 65.5364 18.0748 66.0205 17.3677 65.9468C16.6606 65.8732 16.19 65.2865 16.2978 64.342ZM18.0801 64.5261C18.1458 63.8789 17.946 63.5843 17.6148 63.5501C17.2836 63.5159 17.0339 63.7632 16.9655 64.413C16.8972 65.0629 17.0996 65.3549 17.4255 65.3865C17.7515 65.418 18.0012 65.176 18.0696 64.5261H18.0801Z" fill="white"/>
<path d="M31.9191 64.543L31.5587 67.6L31.8198 67.6309L32.1802 64.5739L31.9191 64.543Z" fill="white"/>
<path d="M30.3562 65.8009L30.3292 66.0627L33.3886 66.378L33.4155 66.1163L30.3562 65.8009Z" fill="white"/>
<path d="M28.9155 17.6588L28.4765 21.9314L28.2767 21.9104L28.6947 17.8272L27.6222 17.7167L27.6432 17.5272L28.9155 17.6588Z" fill="#263238"/>
<path d="M32.43 22.1472L32.4116 22.3366L29.52 22.0367L29.5358 21.892L31.5441 20.2371C32.1224 19.7662 32.2644 19.4662 32.2985 19.119C32.359 18.5507 31.9989 18.1429 31.2471 18.0666C31.0106 18.0244 30.7675 18.0368 30.5366 18.1029C30.3056 18.169 30.0928 18.2871 29.9143 18.4481L29.7881 18.2981C29.9917 18.1243 30.231 17.9976 30.4891 17.9271C30.7472 17.8566 31.0177 17.844 31.2812 17.8903C32.0988 17.9745 32.5719 18.4481 32.5009 19.1374C32.4615 19.5399 32.2959 19.8819 31.6782 20.3844L29.8381 21.892L32.43 22.1472Z" fill="#263238"/>
<path d="M35.8131 21.4894C35.7395 22.1971 35.1875 22.647 34.2359 22.5418C33.9597 22.5274 33.6898 22.4534 33.4448 22.3249C33.1998 22.1964 32.9854 22.0164 32.8164 21.7972L32.94 21.6631C33.0966 21.8658 33.2951 22.0324 33.5219 22.1514C33.7488 22.2703 33.9986 22.3389 34.2543 22.3524C35.0718 22.4365 35.5397 22.0893 35.6028 21.4605C35.6659 20.8317 35.2926 20.4081 34.391 20.3055L34.1518 20.2818L34.1675 20.1345L35.6764 18.5401L33.3106 18.2981L33.3316 18.1087L35.9603 18.3718L35.9445 18.5191L34.4357 20.1345C35.4425 20.2371 35.8867 20.7843 35.8131 21.4894Z" fill="#263238"/>
<path d="M40.0112 21.8735L39.0832 21.7788L38.9571 23.0101L38.7573 22.989L38.8835 21.7578L36.4309 21.4947L36.4467 21.3474L39.1043 18.698L39.3435 18.7243L36.7148 21.3395L38.9045 21.5736L39.0175 20.487L39.2173 20.5081L39.1069 21.5947L40.0322 21.6894L40.0112 21.8735Z" fill="#263238"/>
<path d="M40.9022 23.0259C40.8899 23.1015 40.8696 23.1756 40.8417 23.2469L40.5394 24.0362L40.3817 24.0177L40.6446 23.1969C40.5964 23.1851 40.5541 23.1562 40.5256 23.1155C40.4971 23.0749 40.4842 23.0253 40.4895 22.9759C40.4918 22.9494 40.4993 22.9237 40.5118 22.9003C40.5242 22.8768 40.5413 22.8561 40.5619 22.8394C40.5825 22.8227 40.6063 22.8104 40.6318 22.8031C40.6573 22.7958 40.684 22.7937 40.7103 22.797C40.7385 22.7978 40.7662 22.8046 40.7916 22.8169C40.8169 22.8292 40.8394 22.8467 40.8576 22.8683C40.8757 22.89 40.889 22.9152 40.8967 22.9423C40.9044 22.9695 40.9063 22.998 40.9022 23.0259Z" fill="#263238"/>
<path d="M45.1318 22.4024L44.2039 22.305L44.0777 23.5389L43.8779 23.5179L44.0041 22.284L41.5542 22.0209V21.8762L44.2118 19.2268L44.451 19.2505L41.8223 21.8656L44.0041 22.0919L44.1172 21.0053L44.3169 21.0264L44.2065 22.113L45.1318 22.2077V22.4024Z" fill="#263238"/>
<path d="M48.2993 22.7523C48.2283 23.4495 47.6894 23.9362 46.7221 23.8362C46.447 23.8201 46.1785 23.7453 45.9346 23.6169C45.6907 23.4885 45.477 23.3094 45.3079 23.0917L45.4367 22.9575C45.5929 23.1606 45.7914 23.3275 46.0183 23.4465C46.2452 23.5655 46.4952 23.6338 46.751 23.6468C47.5869 23.7336 48.0391 23.3363 48.1021 22.7312C48.1705 22.0735 47.8209 21.642 46.6012 21.5157L45.7705 21.4315L46.2042 19.4399L48.4044 19.6662L48.386 19.8556L46.3567 19.6478L46.0018 21.2632L46.6616 21.3316C47.9576 21.4657 48.3676 21.9972 48.2993 22.7523Z" fill="#263238"/>
<path d="M1.67184 110.252L0 116.434L5.43085 116.932L6.57432 111.044L1.67184 110.252Z" fill="#FFCC00"/>
<path d="M5.58855 116.429C5.32536 116.445 5.06129 116.435 4.79994 116.4C4.31101 116.361 3.63544 116.287 2.89415 116.192L0.996245 115.929C0.729798 115.907 0.465858 115.862 0.207642 115.792C0.47081 115.775 0.735038 115.785 0.996245 115.821C1.48518 115.863 2.16075 115.937 2.90204 116.034L4.79994 116.298C5.0665 116.315 5.33065 116.359 5.58855 116.429Z" fill="#263238"/>
<g opacity="0.6">
<path d="M0 116.434L5.43085 116.932L5.52022 116.479L0.157721 115.795L0.00525736 116.374" fill="white"/>
</g>
<path d="M2.69971 116.161C2.83373 115.363 3.00922 114.573 3.22544 113.793C3.3987 113.003 3.61278 112.222 3.86684 111.454C3.73318 112.252 3.55769 113.042 3.3411 113.822C3.16854 114.612 2.95444 115.393 2.69971 116.161Z" fill="#263238"/>
<path d="M5.28886 116.387C5.37789 116.009 5.38238 115.617 5.30201 115.237C5.20498 114.831 4.99965 114.459 4.70793 114.161C4.3415 113.805 3.86335 113.585 3.35416 113.54C2.84633 113.487 2.33522 113.604 1.9005 113.872C1.54779 114.097 1.25614 114.406 1.05144 114.772C0.872813 115.116 0.757084 115.489 0.709707 115.874C0.709707 115.874 0.709707 115.845 0.709707 115.792C0.704349 115.714 0.704349 115.634 0.709707 115.556C0.746629 115.266 0.835689 114.985 0.972575 114.727C1.17529 114.339 1.47398 114.011 1.84004 113.772C2.29529 113.484 2.83427 113.358 3.36993 113.414C3.85785 113.452 4.3199 113.649 4.68509 113.975C5.05028 114.301 5.29842 114.738 5.39138 115.219C5.45167 115.505 5.45167 115.801 5.39138 116.087C5.37514 116.164 5.35317 116.24 5.32567 116.313C5.30464 116.363 5.29412 116.39 5.28886 116.387Z" fill="#263238"/>
<path d="M24.0786 109.547L23.7553 114.416C23.7553 114.416 28.6 116.027 28.6289 116.932L19.1656 117L19.3575 109.391L24.0786 109.547Z" fill="#FFCC00"/>
<g opacity="0.6">
<path d="M20.8428 113.919C20.7513 113.944 20.6722 114.002 20.6208 114.081C20.5693 114.161 20.5492 114.257 20.5642 114.351C20.5856 114.443 20.6417 114.524 20.721 114.576C20.8002 114.629 20.8965 114.649 20.99 114.632C21.087 114.608 21.1716 114.548 21.2274 114.465C21.2832 114.382 21.3063 114.281 21.2923 114.182C21.2598 114.088 21.1922 114.01 21.1035 113.964C21.0149 113.919 20.912 113.909 20.8165 113.938" fill="white"/>
</g>
<g opacity="0.6">
<path d="M19.1631 117L19.213 116.234L28.324 116.497C28.4208 116.547 28.5037 116.62 28.5652 116.709C28.6267 116.799 28.6649 116.902 28.6763 117.011L19.1631 117Z" fill="white"/>
</g>
<path d="M23.921 114.374C23.921 114.419 23.687 114.435 23.4557 114.574C23.2244 114.714 23.0956 114.908 23.0535 114.887C23.0115 114.866 23.0903 114.603 23.3742 114.437C23.6581 114.272 23.921 114.332 23.921 114.374Z" fill="#263238"/>
<path d="M24.891 114.814C24.891 114.858 24.6964 114.932 24.5361 115.122C24.3757 115.311 24.3205 115.519 24.2732 115.516C24.2259 115.514 24.2075 115.253 24.4152 115.016C24.6228 114.78 24.891 114.769 24.891 114.814Z" fill="#263238"/>
<path d="M25.4194 116.024C25.3773 116.024 25.3195 115.8 25.4457 115.55C25.5718 115.3 25.79 115.208 25.8084 115.245C25.8268 115.282 25.6901 115.416 25.5876 115.624C25.4851 115.832 25.4641 116.024 25.4194 116.024Z" fill="#263238"/>
<path d="M23.8606 113.256C23.8422 113.298 23.6319 113.227 23.369 113.238C23.1061 113.248 22.9011 113.322 22.8801 113.282C22.859 113.243 23.0562 113.083 23.3637 113.075C23.6713 113.067 23.8842 113.219 23.8606 113.256Z" fill="#263238"/>
<g opacity="0.3">
<path d="M24.013 110.512L23.9578 111.38L19.3103 111.196L19.3287 110.412L24.013 110.512Z" fill="black"/>
</g>
<path d="M23.921 112.272C23.7645 112.309 23.6009 112.303 23.4478 112.254C23.2779 112.218 23.1129 112.163 22.9562 112.088C22.8657 112.042 22.7779 111.991 22.6934 111.935C22.6417 111.904 22.5948 111.865 22.554 111.82C22.5268 111.784 22.512 111.741 22.512 111.696C22.512 111.651 22.5268 111.608 22.554 111.572C22.5785 111.541 22.6097 111.516 22.6452 111.499C22.6807 111.482 22.7196 111.473 22.7591 111.472C22.8199 111.474 22.8802 111.484 22.9378 111.504C23.0375 111.53 23.1344 111.567 23.227 111.612C23.3842 111.689 23.5287 111.791 23.6555 111.912C23.8684 112.122 23.9394 112.299 23.9183 112.306C23.8973 112.314 23.7948 112.172 23.5766 111.999C23.4496 111.898 23.31 111.814 23.1613 111.749C23.0761 111.711 22.9882 111.679 22.8984 111.654C22.7985 111.625 22.7144 111.622 22.6881 111.667C22.6618 111.712 22.675 111.691 22.6881 111.72C22.7178 111.753 22.7524 111.781 22.7906 111.804C22.8694 111.86 22.952 111.91 23.0377 111.954C23.1817 112.033 23.3332 112.097 23.4899 112.146C23.6368 112.176 23.781 112.218 23.921 112.272Z" fill="#263238"/>
<path d="M23.8474 112.341C23.829 112.341 23.7423 112.18 23.7344 111.88C23.7313 111.701 23.7588 111.523 23.8159 111.354C23.8489 111.255 23.892 111.16 23.9447 111.07C23.9716 111.008 24.0145 110.954 24.069 110.914C24.1234 110.873 24.1876 110.848 24.2548 110.841C24.2968 110.843 24.3374 110.857 24.3718 110.881C24.4062 110.906 24.4331 110.939 24.4494 110.978C24.4709 111.035 24.485 111.094 24.4914 111.154C24.5234 111.441 24.4423 111.729 24.2654 111.957C24.0735 112.196 23.8789 112.246 23.8737 112.22C23.8684 112.193 24.0235 112.112 24.1734 111.88C24.2594 111.747 24.315 111.596 24.3363 111.438C24.3473 111.351 24.3473 111.262 24.3363 111.175C24.3363 111.075 24.289 110.991 24.2496 111.001C24.2102 111.012 24.1208 111.073 24.0814 111.151C24.0303 111.235 23.9881 111.323 23.9552 111.415C23.8975 111.566 23.8621 111.724 23.85 111.885C23.8264 112.156 23.8711 112.341 23.8474 112.341Z" fill="#263238"/>
<path d="M3.55921 33.6759C3.55921 33.6759 2.53402 39.2798 1.71913 42.671C1.08037 45.3019 -0.57833 50.2402 2.42099 51.6741C5.42031 53.1079 9.44482 47.3304 9.44482 47.3304L11.1561 34.1415C9.96267 34.3652 8.61416 35.7464 7.17627 37.7801L7.43914 32.7814L3.55921 33.6759Z" fill="#455A64"/>
<path d="M44.8348 41.9607L43.2576 42.7157L41.796 40.4347L42.6451 38.6746C42.7239 38.5115 42.8107 38.3274 42.908 38.1169C43.0139 37.8715 43.0779 37.61 43.0972 37.3434C43.1332 37.0131 43.1243 36.6794 43.0709 36.3515C42.9921 36.0595 43.3023 35.8253 43.5152 35.9885C43.7281 36.1516 43.9621 36.9645 43.8043 37.9353C43.6466 38.9062 44.7769 37.8748 45.1949 37.5091C45.6129 37.1434 46.9561 36.0648 47.1664 36.1068C47.4766 36.17 47.4661 36.5199 47.0429 36.8777C46.6196 37.2355 45.4131 38.3984 45.6129 38.6141C45.8592 38.6406 46.0911 38.7436 46.2759 38.9088C46.4608 39.074 46.5892 39.2929 46.6433 39.5349C46.7511 40.0138 46.8378 40.6741 46.5697 40.8899C46.0153 41.2842 45.4358 41.6419 44.8348 41.9607Z" fill="#FFBE9D"/>
<path d="M14.2528 20.6975L14.2107 34.4073L20.0884 34.6888L20.2567 31.3528C20.2567 31.3528 22.3438 31.7685 22.8853 29.8295C23.2297 28.5903 23.1482 19.0111 23.1482 19.0111L14.2528 20.6975Z" fill="#FFBE9D"/>
<path d="M24.4678 20.3634C24.0735 21.1816 22.1887 22.6812 22.1887 22.6812L21.337 24.9649C20.5958 24.3861 19.6047 24.4176 19.4155 25.72C19.2788 26.6592 20.4485 26.8486 20.4485 26.8486C19.7677 28.0089 19.3077 28.9534 18.3167 30.0452C17.2442 31.237 16.6449 31.3607 15.483 31.3764H14.1949C14.1949 31.3764 11.5662 29.1849 12.092 23.41C12.6177 17.6351 17.7962 19.3189 19.0343 17.885C21.0584 15.5225 25.79 17.6272 24.4678 20.3634Z" fill="#263238"/>
<path d="M12.3889 28.2377C12.3889 28.2377 12.4467 28.2377 12.5545 28.2377C12.7108 28.2335 12.8665 28.2159 13.0198 28.1851C13.5807 28.0565 14.0987 27.7845 14.5234 27.3959C15.1333 26.7961 15.6483 26.1068 16.0507 25.3516C16.3004 24.9359 16.5606 24.4992 16.8734 24.0756C17.1919 23.6311 17.5818 23.2426 18.0274 22.9259C18.4868 22.6288 18.9936 22.4126 19.5258 22.2866C20.0357 22.1524 20.5378 22.0709 21.011 21.9788C21.9573 21.8051 22.8064 21.542 23.3768 21.0921C23.8443 20.7505 24.1833 20.2611 24.3389 19.703C24.3744 19.5503 24.3929 19.3941 24.3941 19.2373C24.3941 19.1321 24.3941 19.0742 24.3941 19.0742C24.3941 19.0742 24.3941 19.1295 24.4099 19.2373C24.4145 19.3956 24.3995 19.5538 24.3652 19.7083C24.216 20.2751 23.8774 20.7737 23.4057 21.1211C22.8248 21.5736 21.9678 21.8367 21.0294 22.0209C20.5562 22.1156 20.0541 22.1971 19.5468 22.3313C19.0208 22.4548 18.5201 22.6685 18.0669 22.9627C17.6257 23.275 17.24 23.6592 16.926 24.0993C16.6132 24.5202 16.3503 24.9544 16.1006 25.37C15.6944 26.1276 15.1739 26.818 14.5576 27.4169C14.1268 27.81 13.6 28.0823 13.0303 28.2062C12.8762 28.236 12.7194 28.2501 12.5624 28.2483L12.3889 28.2377Z" fill="#455A64"/>
<path d="M12.0919 23.5415C12.0919 23.5415 12.1866 23.5047 12.3548 23.4442C12.6156 23.3531 12.8852 23.2897 13.1592 23.2548C13.5978 23.1847 14.0468 23.2783 14.4209 23.5179C14.539 23.5958 14.6401 23.6968 14.7182 23.8148C14.7964 23.9328 14.8499 24.0654 14.8757 24.2045C14.9064 24.3581 14.8984 24.5169 14.8525 24.6666C14.8066 24.8163 14.7242 24.9523 14.6128 25.0622C14.4854 25.1754 14.323 25.2413 14.1528 25.249C13.9764 25.2504 13.8029 25.2041 13.6507 25.1148C13.3295 24.9236 13.0907 24.6198 12.9804 24.2624C12.8548 23.8855 12.8366 23.481 12.9278 23.0943C13.0257 22.6866 13.247 22.3191 13.5614 22.0419C13.8919 21.7468 14.3065 21.5628 14.7469 21.5157C15.2043 21.4898 15.6625 21.5496 16.098 21.692C16.544 21.8347 17 21.9437 17.4623 22.0182C17.9404 22.0814 18.4247 22.0814 18.9028 22.0182C19.3822 21.9627 19.8503 21.834 20.2908 21.6367C20.5054 21.5487 20.6991 21.4162 20.859 21.248C21.0189 21.0798 21.1415 20.8796 21.2187 20.6607C21.2797 20.4465 21.2835 20.22 21.2295 20.0039C21.1755 19.7878 21.0657 19.5896 20.9111 19.4294C20.7542 19.2807 20.5563 19.1826 20.343 19.1479C20.1298 19.1132 19.911 19.1434 19.7151 19.2347C19.5257 19.3165 19.3706 19.4616 19.2761 19.6451C19.1891 19.8257 19.1589 20.0284 19.1893 20.2266C19.2162 20.4173 19.2835 20.6001 19.3869 20.7626C19.4903 20.9251 19.6273 21.0635 19.7887 21.1684C20.0982 21.3577 20.4538 21.4578 20.8165 21.4578C21.1562 21.4641 21.4945 21.4143 21.818 21.3105C22.3694 21.1373 22.8702 20.8321 23.2769 20.4213C23.587 20.1171 23.8415 19.7609 24.0287 19.3689C24.1445 19.116 24.2326 18.8514 24.2916 18.5796C24.3284 18.3954 24.3494 18.2981 24.3494 18.2981C24.3494 18.2981 24.3494 18.3954 24.3021 18.5822C24.1454 19.2806 23.7924 19.9196 23.2848 20.4239C22.8774 20.8455 22.3742 21.1624 21.818 21.3473C21.4954 21.4516 21.1581 21.5031 20.8191 21.4999C20.4482 21.5007 20.0843 21.3987 19.7677 21.2053C19.6006 21.097 19.4587 20.9541 19.3516 20.7861C19.2446 20.6182 19.1749 20.4291 19.1473 20.2318C19.1191 20.0232 19.1529 19.8109 19.2446 19.6215C19.3475 19.4274 19.5135 19.2743 19.7151 19.1874C19.9174 19.0918 20.1434 19.0583 20.3646 19.091C20.5859 19.1238 20.7925 19.2214 20.9585 19.3715C21.1214 19.5381 21.2372 19.745 21.294 19.971C21.3508 20.1971 21.3466 20.4342 21.2818 20.658C21.2037 20.8844 21.0782 21.0914 20.9136 21.2652C20.7491 21.439 20.5492 21.5756 20.3276 21.6657C19.8834 21.867 19.4108 21.9983 18.9265 22.0551C18.444 22.1182 17.9553 22.1182 17.4728 22.0551C17.0068 21.9797 16.5472 21.8689 16.098 21.7236C15.6696 21.5823 15.2183 21.5234 14.7679 21.5499C14.3369 21.5999 13.9323 21.7839 13.6113 22.0761C13.3142 22.3439 13.1017 22.6927 12.9999 23.0797C12.8981 23.4667 12.9114 23.875 13.0382 24.2545C13.1429 24.5946 13.367 24.8852 13.6691 25.0727C13.8148 25.1587 13.9811 25.2032 14.1502 25.2017C14.3107 25.1968 14.4643 25.1353 14.5839 25.028C14.6927 24.9235 14.7737 24.7934 14.8196 24.6496C14.8655 24.5058 14.8748 24.3528 14.8468 24.2045C14.8214 24.0724 14.77 23.9466 14.6955 23.8346C14.621 23.7226 14.525 23.6265 14.413 23.5521C14.0452 23.3162 13.6041 23.2227 13.1723 23.289C12.8989 23.3216 12.6294 23.3816 12.3679 23.4679L12.0919 23.5415Z" fill="#455A64"/>
<path d="M8.21461 60.8639L0.389038 112.291L6.88713 113.117L16.056 69.9801L18.3639 113.406L25.4062 113.283L24.239 60.9849L8.21461 60.8639Z" fill="#263238"/>
<path d="M18.2404 113.54V113.414L15.9772 70.9824L6.99233 113.261L0.239258 112.404L8.10163 60.7323L24.3679 60.8534L25.5403 113.414L18.2404 113.54ZM16.1375 68.9803L18.5033 113.272L25.2853 113.154L24.1234 61.1138L8.35136 60.9954L0.538927 112.177L6.78467 112.967L16.1375 68.9803Z" fill="#263238"/>
<path d="M23.3137 113.201C23.2769 113.201 23.2454 102.896 23.2454 90.1882C23.2454 77.4808 23.2769 67.1755 23.3137 67.1755C23.3505 67.1755 23.3952 77.4756 23.3952 90.1882C23.3952 102.901 23.3531 113.201 23.3137 113.201Z" fill="#455A64"/>
<path d="M5.45715 113.014L5.47293 112.901C5.4887 112.822 5.5071 112.714 5.53338 112.575C5.58859 112.283 5.67008 111.864 5.77522 111.325C5.9934 110.236 6.30096 108.668 6.69526 106.737C7.48386 102.861 8.60368 97.5154 9.88648 91.6221C11.1693 85.7288 12.3758 80.3985 13.267 76.5469C13.7191 74.6289 14.0845 73.074 14.3395 71.9901C14.4683 71.4639 14.5682 71.043 14.6391 70.7535C14.6733 70.6167 14.6996 70.5115 14.7206 70.4326C14.727 70.3955 14.7376 70.3593 14.7522 70.3247C14.7483 70.3619 14.7422 70.3988 14.7338 70.4352C14.718 70.5141 14.6943 70.622 14.6654 70.7588C14.6023 71.0508 14.5077 71.4665 14.4025 72.0006C14.1607 73.0872 13.8085 74.6447 13.3747 76.5679C12.4941 80.4248 11.3033 85.7683 10.0179 91.651C8.73249 97.5338 7.60478 102.888 6.78989 106.755L5.8278 111.336L5.56493 112.583L5.49395 112.904C5.48495 112.941 5.47264 112.978 5.45715 113.014Z" fill="#455A64"/>
<path d="M18.364 69.9353C18.2668 69.9597 18.1671 69.9729 18.0669 69.9748L17.2547 70.0327C16.5686 70.0774 15.6222 70.1247 14.5813 70.2273C13.5403 70.33 12.6019 70.4694 11.9184 70.5588L11.1114 70.6614C11.0125 70.6785 10.9121 70.6856 10.8118 70.6825C10.9058 70.6466 11.0037 70.6219 11.1036 70.6088C11.2928 70.572 11.5662 70.522 11.8922 70.4641C12.5704 70.351 13.5088 70.201 14.555 70.0905C15.6012 69.98 16.5502 69.9564 17.2389 69.9353C17.5806 69.9353 17.8593 69.9195 18.0511 69.9222C18.1556 69.9132 18.2607 69.9176 18.364 69.9353Z" fill="#455A64"/>
<path d="M24.3757 66.594C24.3757 66.594 24.3047 66.6256 24.1733 66.6467C23.9854 66.6743 23.7951 66.6823 23.6055 66.6703C22.974 66.6382 22.3652 66.4242 21.8522 66.0541C21.3393 65.684 20.944 65.1735 20.714 64.584C20.6431 64.4083 20.5903 64.2258 20.5562 64.0394C20.5388 63.9716 20.5335 63.9012 20.5405 63.8316C20.5641 63.8316 20.6088 64.1183 20.8033 64.5472C21.0527 65.1039 21.4433 65.5855 21.9363 65.9442C22.4343 66.2963 23.0147 66.5138 23.6213 66.5756C24.0813 66.6204 24.3731 66.5625 24.3757 66.594Z" fill="#455A64"/>
<path d="M6.87659 61.8715L24.8751 61.8268L23.8894 49.9376C23.7816 47.2173 23.7974 46.8937 23.7317 44.3811C23.7317 44.3811 26.2867 47.4751 28.2951 49.643C28.8876 50.2807 29.6677 50.713 30.5222 50.8772C31.3768 51.0413 32.2614 50.9288 33.0477 50.5559L43.5624 43.213L41.5962 38.1484L32.0383 44.0049C31.6019 43.7418 27.8797 38.4194 25.3089 35.8253C23.662 34.1709 21.443 33.213 19.1105 33.1497C17.1719 33.1043 15.2324 33.1825 13.3037 33.3838C11.8975 33.5344 10.5879 34.1717 9.60113 35.1857C8.61438 36.1997 8.0124 37.5268 7.89914 38.9377C7.71251 41.1609 7.86234 43.7418 7.86234 48.1276L6.87659 61.8715Z" fill="#455A64"/>
<path d="M7.7231 40.1269C7.7231 40.1269 7.7231 40.1743 7.7231 40.2664C7.7231 40.3584 7.7231 40.5031 7.7231 40.6636C7.7231 41.0083 7.7231 41.5108 7.7231 42.1264C7.7231 43.363 7.78093 45.0704 7.83351 46.9568C7.88608 48.8432 7.89659 50.5507 7.84928 51.7872C7.82825 52.4055 7.80196 52.9053 7.77305 53.25C7.77305 53.4078 7.74939 53.5394 7.73887 53.6473C7.72836 53.7551 7.72573 53.7841 7.72573 53.7841C7.7234 53.7376 7.7234 53.6911 7.72573 53.6446C7.72573 53.5394 7.73887 53.4078 7.74939 53.2474C7.77042 52.9027 7.79145 52.4028 7.80985 51.7872C7.84665 50.5507 7.83088 48.8432 7.77568 46.9568C7.72047 45.0704 7.67841 43.363 7.68367 42.1264C7.68367 41.5082 7.68367 41.0083 7.70207 40.6636C7.70207 40.5031 7.70207 40.3716 7.70207 40.2664C7.70207 40.1611 7.7231 40.1269 7.7231 40.1269Z" fill="#263238"/>
<path d="M31.644 45.7124C31.6493 45.6289 31.6625 45.5461 31.6835 45.4651C31.7124 45.3151 31.7597 45.1046 31.8123 44.8757C31.8649 44.6469 31.9174 44.4364 31.9595 44.2864C31.9771 44.2046 32.0017 44.1245 32.0331 44.047C32.0309 44.1358 32.0186 44.2241 31.9963 44.3101C31.9647 44.4627 31.9201 44.6705 31.8675 44.8994C31.8149 45.1283 31.7623 45.3362 31.7203 45.4861C31.7038 45.5643 31.6782 45.6402 31.644 45.7124Z" fill="#263238"/>
<path d="M32.5956 45.8623C32.4963 45.5506 32.4147 45.2335 32.3511 44.9126C32.2703 44.5971 32.2071 44.2774 32.1619 43.9549C32.2597 44.266 32.3405 44.5821 32.4037 44.902C32.4865 45.2181 32.5506 45.5387 32.5956 45.8623Z" fill="#263238"/>
<path d="M24.1838 44.8152L24.0839 44.7232C24.0103 44.6521 23.9183 44.5653 23.8211 44.4601C23.5819 44.2259 23.2401 43.8891 22.8327 43.455C22.3509 42.9504 21.9023 42.4153 21.4894 41.8528C20.9713 41.1644 20.551 40.4074 20.2408 39.6034C19.9395 38.8034 19.8053 37.95 19.8465 37.0961C19.8595 36.3936 20.0141 35.7009 20.3013 35.0597C20.5045 34.632 20.8074 34.2593 21.1845 33.9732C21.2863 33.8947 21.3934 33.8235 21.5052 33.7601L21.6209 33.6969C21.6209 33.6969 21.4605 33.7838 21.1976 33.989C20.8296 34.2801 20.5344 34.653 20.3354 35.0782C20.0558 35.7146 19.9074 36.4009 19.8991 37.0961C19.8612 37.9471 19.9981 38.7969 20.3013 39.5928C20.6011 40.391 21.0089 41.1444 21.5131 41.8318C21.9231 42.3935 22.3674 42.9295 22.8432 43.4366C23.2454 43.8734 23.5845 44.2259 23.8158 44.4522C23.9236 44.5627 24.013 44.6521 24.0787 44.7284C24.1444 44.8047 24.1838 44.8152 24.1838 44.8152Z" fill="#263238"/>
<path d="M12.4731 39.9217C12.2363 39.7305 12.029 39.5053 11.858 39.2534C11.6459 39.0296 11.4686 38.7751 11.3323 38.4984C11.5715 38.6888 11.7798 38.9151 11.95 39.1693C12.162 39.3917 12.3384 39.6455 12.4731 39.9217Z" fill="#FAFAFA"/>
<path d="M16.5607 44.5706C16.3102 44.9156 16.0239 45.2331 15.7064 45.5177C15.4211 45.8346 15.103 46.1204 14.7574 46.3701C15.0074 46.0238 15.2939 45.7054 15.6118 45.4203C15.8958 45.1029 16.214 44.8179 16.5607 44.5706Z" fill="#FAFAFA"/>
<path d="M20.5247 51.2373C20.4853 51.2505 20.3407 50.8427 20.0752 50.3902C19.8097 49.9376 19.5258 49.6009 19.5495 49.5825C20.0633 49.9976 20.4081 50.5859 20.5195 51.2373H20.5247Z" fill="#FAFAFA"/>
<path d="M10.2518 50.4822C10.0291 50.0744 9.88547 49.6281 9.82858 49.1668C9.72726 48.7125 9.70944 48.2436 9.77601 47.7829C9.81807 47.7829 9.83121 48.3985 9.96265 49.1431C10.0941 49.8877 10.2991 50.4691 10.2518 50.4822Z" fill="#FAFAFA"/>
<path d="M15.7116 53.4078C15.3851 52.7025 15.3135 51.9055 15.5091 51.1531C15.5486 51.1531 15.4907 51.6662 15.5486 52.2871C15.6064 52.908 15.751 53.4078 15.7116 53.4078Z" fill="#FAFAFA"/>
<path d="M13.5561 57.6857C13.1233 57.4947 12.7097 57.2631 12.3206 56.9938C11.9064 56.7633 11.5163 56.4918 11.1561 56.1835C11.5889 56.3754 12.0026 56.608 12.3916 56.878C12.8044 57.1098 13.1943 57.3802 13.5561 57.6857Z" fill="#FAFAFA"/>
<path d="M22.031 56.4229C22.0468 56.4597 21.4369 56.7649 20.7167 57.2122C19.9964 57.6594 19.4707 58.0777 19.447 58.0462C19.7994 57.6683 20.2071 57.3463 20.6562 57.0911C21.0785 56.8008 21.5419 56.5756 22.031 56.4229Z" fill="#FAFAFA"/>
<path d="M11.3717 61.2454C10.9282 61.2247 10.4878 61.1595 10.0574 61.0507C9.61456 60.985 9.17951 60.8748 8.75879 60.7218C9.20231 60.7425 9.64264 60.8077 10.0731 60.9165C10.5159 60.9822 10.951 61.0924 11.3717 61.2454Z" fill="#FAFAFA"/>
<path d="M17.0523 60.3193C16.7864 60.0936 16.5729 59.8126 16.4266 59.4958C16.2413 59.1994 16.1221 58.8665 16.077 58.5197C16.2542 58.8144 16.4157 59.1183 16.5607 59.43C16.8236 59.9246 17.0864 60.2956 17.0523 60.3193Z" fill="#FAFAFA"/>
<path d="M23.4451 60.7744C23.348 60.9974 23.2098 61.2 23.0377 61.3717C22.7748 61.6768 22.5514 61.8978 22.512 61.8794C22.6114 61.6571 22.7503 61.4548 22.922 61.2822C23.1875 60.9691 23.4162 60.7429 23.4451 60.7744Z" fill="#FAFAFA"/>
<path d="M11.7529 42.6815C11.7739 42.7131 11.5373 42.9052 11.2271 43.113C11.0506 43.2581 10.8468 43.3664 10.6278 43.4314C10.6067 43.3998 10.8407 43.2077 11.1535 42.9999C11.3301 42.8548 11.5338 42.7466 11.7529 42.6815Z" fill="#FAFAFA"/>
<path d="M16.1874 37.7196C15.9757 37.2896 15.8168 36.8356 15.7143 36.3673C15.5693 35.9098 15.481 35.4362 15.4514 34.9571C15.6151 35.4055 15.7486 35.8643 15.851 36.3305C15.9946 36.7853 16.107 37.2494 16.1874 37.7196Z" fill="#FAFAFA"/>
<path d="M20.4485 42.2369C20.4328 42.2737 20.049 42.1264 19.5548 42.0317C19.0606 41.937 18.6531 41.9317 18.6505 41.8923C18.9559 41.8149 19.2757 41.8149 19.5811 41.8923C19.8948 41.9314 20.1934 42.05 20.4485 42.2369Z" fill="#FAFAFA"/>
<path d="M23.3769 38.4115C23.05 38.5056 22.7048 38.5164 22.3727 38.4431C22.0349 38.4119 21.7099 38.2981 21.4264 38.1116C21.4422 38.0722 21.8601 38.2274 22.3937 38.3089C22.9274 38.3905 23.3742 38.3589 23.3769 38.4115Z" fill="#FAFAFA"/>
<path d="M26.3735 42.6789C26.3209 42.1949 26.3458 41.7055 26.4471 41.2293C26.5027 40.7455 26.633 40.2733 26.8335 39.8296C26.8729 39.8296 26.7073 40.4663 26.5706 41.2503C26.4339 42.0343 26.4129 42.6789 26.3735 42.6789Z" fill="#FAFAFA"/>
<path d="M29.8933 47.7171C29.5512 47.4631 29.2375 47.1729 28.9575 46.8516C28.6455 46.5612 28.3653 46.2384 28.1216 45.8886C28.4636 46.1427 28.7774 46.4329 29.0574 46.7542C29.3694 47.0446 29.6496 47.3674 29.8933 47.7171Z" fill="#FAFAFA"/>
<path d="M32.8243 47.3304C32.5509 47.925 32.1971 48.4792 31.7728 48.9773C31.8873 48.6693 32.0458 48.3795 32.2434 48.117C32.4002 47.8295 32.5957 47.5648 32.8243 47.3304Z" fill="#FAFAFA"/>
<path d="M36.2206 45.6729C35.9932 45.3581 35.8027 45.0183 35.6528 44.66C35.4636 44.3219 35.3153 43.9624 35.2112 43.5892C35.4382 43.9037 35.6279 44.2437 35.7763 44.6021C35.9657 44.9405 36.1148 45.2998 36.2206 45.6729Z" fill="#FAFAFA"/>
<path d="M40.8496 43.7576C40.4425 43.7537 40.037 43.7052 39.6404 43.6129C39.2369 43.5634 38.8401 43.469 38.4575 43.3314C38.8638 43.3355 39.2684 43.384 39.6641 43.4761C40.0684 43.5262 40.4659 43.6206 40.8496 43.7576Z" fill="#FAFAFA"/>
<path d="M4.09814 48.6722C4.21823 48.2569 4.38213 47.8556 4.58708 47.4751C4.74981 47.0736 4.95515 46.6908 5.19956 46.3333C5.07785 46.7488 4.91402 47.1508 4.71063 47.533C4.54635 47.9329 4.34109 48.3146 4.09814 48.6722Z" fill="#FAFAFA"/>
<path d="M6.55069 44.3522C6.25592 44.1231 5.99099 43.8579 5.76209 43.5629C5.49579 43.3004 5.26272 43.0062 5.06812 42.6868C5.36158 42.9174 5.62634 43.1824 5.85672 43.4761C6.12209 43.7394 6.35507 44.0335 6.55069 44.3522Z" fill="#FAFAFA"/>
<path d="M6.34829 51.3031C6.37195 51.332 6.19057 51.5241 5.94085 51.7293C5.69112 51.9345 5.47031 52.0819 5.44665 52.0529C5.423 52.024 5.60438 51.8319 5.8541 51.6241C6.10382 51.4162 6.32463 51.2794 6.34829 51.3031Z" fill="#FAFAFA"/>
<path d="M7.17625 39.7507C7.20517 39.7744 7.09477 39.9612 6.92916 40.169C6.76355 40.3768 6.60583 40.5163 6.57166 40.5163C6.53749 40.5163 6.65052 40.3058 6.81613 40.098C6.98173 39.8901 7.14734 39.727 7.17625 39.7507Z" fill="#FAFAFA"/>
<g opacity="0.3">
<path d="M20.9138 40.9478C22.0257 44.4443 22.8853 48.1144 23.9946 51.6109L23.7318 44.368C22.6506 43.3528 21.7036 42.2034 20.9138 40.9478Z" fill="black"/>
</g>
<path d="M2.82581 45.5151C2.82581 45.5151 2.82581 45.4835 2.85998 45.4282L2.96775 45.1862C3.05976 44.9757 3.20171 44.6732 3.38046 44.3022C3.73533 43.5603 4.25318 42.5474 4.87092 41.4555C5.48866 40.3637 6.09325 39.3982 6.54539 38.7115C6.77145 38.3668 6.95809 38.0906 7.08952 37.9038L7.24461 37.6854C7.26139 37.6597 7.27983 37.6351 7.29982 37.6118C7.28659 37.6403 7.27075 37.6676 7.2525 37.6933L7.10792 37.9143C6.9686 38.13 6.78985 38.4037 6.58219 38.7325C6.13794 39.4245 5.53072 40.39 4.92086 41.4818C4.31101 42.5737 3.78264 43.5866 3.41726 44.3206L2.98878 45.1941L2.87312 45.4335C2.86076 45.4625 2.84487 45.4899 2.82581 45.5151Z" fill="#263238"/>
<path d="M4.60014 42.1738C4.60014 42.1738 4.48973 42.2185 4.31361 42.2948C4.08405 42.394 3.86481 42.5156 3.65907 42.6579C3.45445 42.8012 3.26507 42.9652 3.0939 43.1472C2.96247 43.284 2.88887 43.3787 2.88098 43.3735C2.89134 43.347 2.90551 43.3222 2.92304 43.2998C2.95458 43.2551 3.0019 43.1946 3.06499 43.1209C3.23171 42.9312 3.42159 42.7633 3.63015 42.621C3.83712 42.4753 4.06141 42.356 4.29784 42.2658C4.38984 42.2343 4.46345 42.2106 4.51602 42.1974C4.54287 42.1858 4.57116 42.1778 4.60014 42.1738Z" fill="#263238"/>
<path d="M4.8473 36.7777C4.62312 37.2093 4.3591 37.6188 4.05869 38.0011C3.7901 38.4081 3.48572 38.7902 3.14917 39.1429C3.37334 38.7114 3.63736 38.3019 3.93777 37.9196C4.20358 37.5106 4.50816 37.1282 4.8473 36.7777Z" fill="#FAFAFA"/>
<path d="M6.74524 32.4972C6.87556 32.5215 7.0102 32.504 7.13006 32.4473C7.24991 32.3907 7.34888 32.2977 7.41292 32.1815C7.56013 31.9631 7.62848 31.6974 7.75991 31.4685C8.14895 30.7819 9.03745 30.4819 9.39495 29.7742C9.44489 29.6769 9.47644 29.5401 9.39495 29.4716C9.31346 29.4032 9.20043 29.4506 9.10842 29.4953L6.76627 30.6687" fill="#FFBE9D"/>
<path d="M6.76094 30.6687C6.83377 30.6078 6.91417 30.5565 7.00015 30.5161C7.1605 30.4267 7.39182 30.3004 7.68097 30.1478L8.69827 29.6216L8.99268 29.4717C9.10312 29.3929 9.23968 29.3599 9.37384 29.3796C9.41529 29.3952 9.45116 29.4228 9.4769 29.4589C9.50264 29.4949 9.51709 29.5378 9.51842 29.5822C9.51962 29.6542 9.50338 29.7255 9.4711 29.79C9.41285 29.9057 9.3414 30.0143 9.25818 30.1136C8.92972 30.4481 8.57838 30.7593 8.20671 31.0449C8.05672 31.1746 7.92731 31.3263 7.82292 31.4948C7.73092 31.6527 7.66783 31.8211 7.59686 31.971C7.54956 32.0973 7.47549 32.2119 7.37974 32.3068C7.284 32.4017 7.16884 32.4748 7.04221 32.5209C6.99522 32.5384 6.94497 32.5454 6.89499 32.5413C6.84502 32.5372 6.79656 32.5222 6.75305 32.4972C6.84184 32.5019 6.93076 32.4912 7.01592 32.4656C7.12803 32.4133 7.22815 32.3385 7.31002 32.2456C7.39189 32.1528 7.45374 32.0441 7.49171 31.9263C7.55743 31.779 7.61263 31.608 7.70726 31.4317C7.81398 31.2494 7.94782 31.0843 8.10419 30.9423C8.47253 30.6555 8.82364 30.3471 9.15566 30.0189C9.23011 29.9289 9.29446 29.8309 9.34756 29.7269C9.39487 29.6295 9.39224 29.5295 9.33441 29.5164C9.27658 29.5032 9.16618 29.5479 9.07154 29.5979L8.77451 29.7453L7.72829 30.2557C7.43388 30.3951 7.20256 30.5188 7.02643 30.5819C6.94276 30.6239 6.85327 30.6532 6.76094 30.6687Z" fill="#EB996E"/>
</svg>
