<svg width="190" height="237" viewBox="0 0 190 237" fill="none" xmlns="http://www.w3.org/2000/svg">
<g clip-path="url(#clip0_196_22152)">
<path d="M50.8548 31.3619L54.7722 86.9413C55.0825 91.3151 57.0365 95.4085 60.2404 98.3965C63.4443 101.384 67.6598 103.045 72.0373 103.043C74.4066 103.042 76.7505 102.554 78.9239 101.61C81.0974 100.665 83.054 99.2831 84.6725 97.55C86.2911 95.8169 87.5372 93.7693 88.3336 91.5342C89.13 89.2991 89.4598 86.9239 89.3025 84.5559C88.9572 79.2604 88.6417 74.9309 88.6417 74.9309C88.6417 74.9309 102.073 72.8377 102.239 59.3842C102.335 51.6317 100.995 33.9798 99.858 20.4726C99.4735 16.0714 97.4547 11.9748 94.2006 8.99241C90.9465 6.01003 86.694 4.35888 82.2833 4.36525H74.1687C70.8522 4.55936 67.6081 5.41746 64.6284 6.88884C61.6486 8.36023 58.9935 10.415 56.82 12.9318C54.6466 15.4486 52.9989 18.3762 51.9743 21.5418C50.9497 24.7073 50.569 28.0464 50.8548 31.3619Z" fill="#B78876"/>
<path d="M88.6536 74.7699C88.6536 74.7699 80.1639 75.4617 71.1384 69.7904C71.1384 69.7904 75.3058 79.4691 88.6833 78.2585L88.6536 74.7699Z" fill="#AA8050"/>
<path d="M95.6608 36.7588C95.6658 37.259 95.4758 37.7414 95.1311 38.1033C94.7864 38.4653 94.3143 38.6783 93.8153 38.6969C93.571 38.7172 93.3252 38.6882 93.0923 38.6117C92.8594 38.5353 92.6442 38.4128 92.4594 38.2515C92.2746 38.0903 92.1239 37.8936 92.0163 37.6731C91.9086 37.4525 91.8462 37.2126 91.8327 36.9675C91.8277 36.4657 92.0184 35.9818 92.3642 35.6187C92.71 35.2556 93.1836 35.042 93.6843 35.0234C93.9283 35.0048 94.1737 35.0351 94.4059 35.1127C94.6381 35.1902 94.8525 35.3134 95.0366 35.475C95.2207 35.6366 95.3707 35.8334 95.4779 36.0539C95.5851 36.2743 95.6473 36.5139 95.6608 36.7588Z" fill="#263238"/>
<path d="M97.5243 33.9917C97.2861 34.2421 95.8335 33.1687 93.7676 33.1747C91.7018 33.1807 90.1955 34.2123 89.9693 33.9619C89.8562 33.8486 90.1003 33.3655 90.7611 32.9123C91.6546 32.2935 92.7172 31.9665 93.8033 31.976C94.8731 31.9717 95.9162 32.3102 96.7801 32.9421C97.429 33.4371 97.6374 33.8903 97.5243 33.9917Z" fill="#263238"/>
<path d="M75.5202 36.7587C75.5251 37.2589 75.3351 37.7413 74.9904 38.1033C74.6457 38.4653 74.1736 38.6782 73.6746 38.6969C73.4308 38.7163 73.1856 38.6867 72.9534 38.6099C72.7212 38.533 72.5067 38.4104 72.3226 38.2492C72.1384 38.0881 71.9883 37.8917 71.881 37.6716C71.7737 37.4514 71.7115 37.212 71.698 36.9675C71.693 36.4667 71.8828 35.9836 72.2274 35.6207C72.5719 35.2577 73.044 35.0435 73.5436 35.0234C73.7878 35.0039 74.0335 35.0337 74.2661 35.1109C74.4986 35.1882 74.7134 35.3113 74.8976 35.4731C75.0819 35.6348 75.2319 35.8319 75.3388 36.0528C75.4457 36.2736 75.5074 36.5136 75.5202 36.7587Z" fill="#263238"/>
<path d="M77.2347 34.3853C76.9966 34.6358 75.5439 33.5624 73.4781 33.5624C71.4122 33.5624 69.906 34.606 69.6798 34.3495C69.5726 34.2422 69.8107 33.789 70.4716 33.3059C71.3657 32.6879 72.4274 32.359 73.5138 32.3637C74.5838 32.364 75.626 32.7043 76.4906 33.3357C77.1335 33.8188 77.3538 34.272 77.2347 34.3853Z" fill="#263238"/>
<path d="M84.7242 49.7174C84.7242 49.5981 85.9983 49.3775 88.0761 49.1211C88.6059 49.0614 89.106 48.96 89.1953 48.5963C89.2379 48.0519 89.1154 47.5074 88.8441 47.0338C88.344 45.7577 87.824 44.4179 87.2843 43.0145C85.1172 37.2895 83.5514 32.5844 83.7836 32.5009C84.0158 32.4174 85.9566 36.9735 88.1118 42.6984C88.6357 44.1137 89.1338 45.4635 89.6061 46.7476C89.9388 47.3833 90.0358 48.1164 89.88 48.8169C89.8023 49.0031 89.6838 49.1694 89.5334 49.3036C89.3829 49.4377 89.2043 49.5364 89.0108 49.5922C88.7197 49.6712 88.4194 49.7113 88.1177 49.7114C86.034 49.8247 84.7362 49.8367 84.7242 49.7174Z" fill="#263238"/>
<path d="M78.6517 51.1486C78.9851 51.1486 78.991 53.373 80.908 54.9652C82.8251 56.5575 85.2124 56.313 85.2303 56.6231C85.2601 56.7662 84.7004 57.0584 83.6883 57.0882C82.3875 57.0993 81.1238 56.6542 80.1162 55.8299C79.1395 55.0309 78.5117 53.8823 78.3659 52.6276C78.2468 51.6913 78.4969 51.1367 78.6517 51.1486Z" fill="#263238"/>
<path d="M77.7706 26.2809C77.5622 26.8773 75.5023 26.5791 73.0852 26.8773C70.668 27.1754 68.7034 27.8314 68.3819 27.3305C68.239 27.086 68.5783 26.5552 69.3702 26.0126C70.4227 25.3456 71.6134 24.928 72.8514 24.7916C74.0894 24.6552 75.3422 24.8035 76.5144 25.2254C77.3955 25.5772 77.8539 26.0185 77.7706 26.2809Z" fill="#263238"/>
<path d="M96.7622 28.0283C96.405 28.4994 94.9762 28.0283 93.2675 27.9865C91.5589 27.9448 90.1122 28.3026 89.7788 27.8136C89.6359 27.575 89.8621 27.1039 90.4932 26.6567C91.3436 26.1231 92.3334 25.8552 93.3364 25.8871C94.3394 25.9189 95.3102 26.2491 96.1252 26.8356C96.7265 27.3067 96.923 27.7897 96.7622 28.0283Z" fill="#263238"/>
<path d="M55.3676 41.4579C55.1413 41.3625 46.1396 38.7267 46.4373 47.9223C46.735 57.118 55.8974 54.9294 55.9034 54.661C55.9093 54.3927 55.3676 41.4579 55.3676 41.4579Z" fill="#B78876"/>
<path d="M52.9862 51.2858C52.9445 51.2858 52.8314 51.4051 52.5635 51.5362C52.1901 51.7121 51.7631 51.7356 51.3728 51.6018C50.3904 51.2858 49.5212 49.7412 49.4141 48.0834C49.3682 47.2959 49.4963 46.5079 49.7891 45.7755C49.8657 45.4856 50.0113 45.2185 50.2135 44.9973C50.4157 44.776 50.6684 44.6072 50.9501 44.5053C51.1327 44.451 51.3285 44.4624 51.5035 44.5376C51.6786 44.6127 51.8219 44.7469 51.9086 44.9168C52.0396 45.1673 51.9919 45.3521 52.0396 45.37C52.0872 45.3879 52.2301 45.209 52.1467 44.8333C52.0934 44.5959 51.9586 44.3849 51.7657 44.237C51.638 44.1448 51.4933 44.0789 51.34 44.043C51.1868 44.0072 51.0279 44.0022 50.8727 44.0282C50.4982 44.1152 50.1522 44.2968 49.8677 44.5557C49.5832 44.8146 49.3696 45.1422 49.2474 45.5072C48.8917 46.3291 48.7444 47.2264 48.8187 48.1192C48.9318 49.9738 49.938 51.6973 51.2775 52.0193C51.526 52.0834 51.7857 52.0904 52.0372 52.0398C52.2888 51.9892 52.5256 51.8823 52.7302 51.7271C52.9862 51.4945 53.0219 51.2858 52.9862 51.2858Z" fill="#AA8050"/>
<path d="M50.2714 41.1479C51.6704 40.8079 54.0935 42.102 54.6948 43.414C55.2961 44.7259 55.4211 46.2168 56.0165 47.5347C56.6118 48.8526 57.9573 50.0334 59.3564 49.7054C59.8321 49.5554 60.2598 49.2823 60.5964 48.9138C60.933 48.5452 61.1665 48.0942 61.2734 47.6063C61.466 46.6217 61.466 45.6091 61.2734 44.6246C60.7376 40.3309 59.8327 36.0729 59.66 31.7435C59.4874 27.414 60.1066 22.9235 62.3689 19.2202C64.6312 15.5169 68.8046 12.8274 73.0852 13.1732C75.9369 13.4058 78.5564 14.8907 81.4201 15.2903C83.1071 15.5133 84.8227 15.349 86.4369 14.8097C88.0512 14.2703 89.5218 13.3702 90.7373 12.1773C91.2974 11.729 91.8796 11.309 92.4817 10.9191C92.4817 10.6984 92.2733 8.77817 91.5172 8.07448C85.8912 2.86838 75.7523 1.41329 68.3283 3.30371C60.9043 5.19413 53.9328 10.4599 50.7357 17.4013C47.5387 24.3428 48.4853 34.099 50.2476 41.1359" fill="#263238"/>
<path d="M100.019 18.4331C100.019 18.4331 64.78 7.10248 49.5391 37.6116C49.5391 37.6116 47.2589 29.9724 47.2589 25.8755C47.2589 23.1382 48.8961 6.84605 65.6314 1.72343C65.6016 1.72343 90.8206 -7.91949 100.019 18.4331Z" fill="#FFCC00"/>
<path d="M69.7095 19.1964C70.3361 20.2074 71.1885 21.0589 72.1996 21.6838C73.2107 22.3087 74.3527 22.6899 75.5359 22.7974C76.7191 22.905 77.911 22.7359 79.0178 22.3035C80.1247 21.871 81.1161 21.1871 81.9142 20.3056C82.263 21.1838 82.8778 21.9304 83.6723 22.4403C84.4667 22.9503 85.4007 23.1981 86.343 23.1487C87.2853 23.0993 88.1884 22.7553 88.9254 22.1651C89.6623 21.5749 90.1961 20.7682 90.4515 19.8583C91.4067 20.9247 92.5751 21.778 93.8807 22.363C95.2203 22.8579 96.917 22.6731 97.7981 21.546C98.6793 20.4189 98.4352 18.6537 97.554 17.4968C96.5902 16.4045 95.3592 15.5824 93.9819 15.1114C89.8063 13.2742 85.2191 12.5787 80.6878 13.0957C76.1929 13.6921 71.8349 15.8866 69.0308 19.4528" fill="#263238"/>
<g opacity="0.4">
<path d="M100.019 18.4331C97.0866 15.3407 93.0684 13.5122 88.8143 13.3343C78.4195 12.8751 58.9635 18.7312 49.5212 37.6116C49.5212 37.6116 47.241 29.9724 47.241 25.8755C47.241 23.1382 48.8782 6.84605 65.6135 1.72343C65.6016 1.72343 90.8206 -7.91949 100.019 18.4331Z" fill="black"/>
</g>
<path d="M50.9798 34.0394C56.207 26.0305 63.4107 19.4111 71.5075 14.36C79.6043 9.30896 93.0056 4.28176 102.234 1.83674C105.002 1.07341 107.895 0.429358 110.735 0.918362C113.575 1.40737 116.325 3.30375 117.028 6.0708C117.879 9.54153 111.711 14.9385 108.812 17.0555C105.913 19.1725 100.019 22.2735 100.019 22.2735C100.019 22.2735 100.096 15.8032 89.7669 14.4733C75.6869 12.6604 50.9798 34.0394 50.9798 34.0394Z" fill="#FFCC00"/>
<path d="M79.8781 7.66305C79.8781 7.66305 84.9565 4.8483 90.0586 4.17443C89.2082 3.50708 88.2783 2.9482 87.2902 2.51062C84.5195 2.97663 81.8418 3.88679 79.3602 5.20611L79.8781 7.66305Z" fill="#E0E0E0"/>
<path d="M108.479 86.5358L97.298 84.0848L92.7555 82.9518L88.9631 77.0658C88.9631 77.0658 87.1771 87.5794 80.3961 93.2387C79.4766 93.9864 78.4006 94.5168 77.2483 94.7904C76.0959 95.064 74.8967 95.0738 73.74 94.819C72.21 94.497 70.412 94.0975 69.0785 93.7397C68.7927 93.6621 68.4831 93.5667 68.1497 93.4415C63.2431 91.6188 59.1572 88.085 56.6416 83.4885C55.1354 80.8168 53.8673 78.0736 54.3019 77.03L48.9973 88.0565L17.7474 102.476L0 145.878L34.3874 156.064L35.459 191.845L28.9816 236.934L126.286 237L122.833 136.641" fill="#FFCC00"/>
<path d="M83.349 125.388C83.1508 125.403 82.9518 125.403 82.7536 125.388L81.0212 125.346L74.8355 125.125H74.7164V125.006C74.6092 122.317 74.4842 119.132 74.3532 115.727C74.1925 110.819 74.0437 106.382 73.9365 103.12C73.9008 101.54 73.871 100.24 73.8472 99.2976C73.8472 98.8742 73.8472 98.5284 73.8472 98.26C73.8395 98.1389 73.8395 98.0174 73.8472 97.8962C73.8789 98.0128 73.895 98.1332 73.8948 98.254C73.8948 98.5284 73.9305 98.8504 73.9603 99.2917C74.0079 100.234 74.0734 101.528 74.1508 103.108C74.2818 106.37 74.4604 110.807 74.6569 115.715C74.77 119.12 74.8831 122.275 74.9724 124.994L74.8474 124.869L80.9676 125.233L82.6941 125.346C82.9132 125.339 83.1325 125.353 83.349 125.388Z" fill="#263238"/>
<path d="M78.0206 110.92C78.1563 110.823 78.3182 110.769 78.485 110.765C78.9406 110.728 79.3946 110.855 79.765 111.123C80.0291 111.306 80.2439 111.552 80.3901 111.839C80.5567 112.172 80.6149 112.55 80.5568 112.918C80.4926 113.338 80.3084 113.731 80.0263 114.048C79.7442 114.366 79.3764 114.595 78.9672 114.707C78.5522 114.792 78.122 114.761 77.7232 114.618C77.3244 114.475 76.9723 114.225 76.7049 113.896C76.4905 113.63 76.3408 113.317 76.2674 112.983C76.1941 112.649 76.1992 112.302 76.2822 111.97C76.3769 111.519 76.6002 111.104 76.9252 110.777C77.1514 110.557 77.3122 110.485 77.3241 110.503C77.336 110.521 77.1991 110.628 77.0145 110.861C76.7482 111.186 76.5698 111.574 76.4965 111.988C76.4347 112.285 76.4412 112.593 76.5155 112.887C76.5897 113.182 76.7298 113.455 76.9252 113.687C77.1623 113.968 77.47 114.18 77.8165 114.302C78.163 114.424 78.5356 114.45 78.8958 114.379C79.2476 114.28 79.5641 114.082 79.8085 113.81C80.053 113.538 80.2154 113.202 80.277 112.841C80.3258 112.544 80.2916 112.24 80.1781 111.962C80.0645 111.684 79.8762 111.443 79.634 111.266C79.31 111.004 78.9073 110.859 78.491 110.855C78.1933 110.861 78.0266 110.92 78.0206 110.92Z" fill="#263238"/>
<path d="M76.9788 98.2897C76.9788 98.2897 77.1216 98.1466 77.4669 98.0631C77.9612 97.959 78.4764 98.0351 78.9196 98.2778C79.2316 98.4418 79.4992 98.6792 79.6995 98.9696C79.929 99.3123 80.0418 99.7202 80.021 100.132C80.0031 100.603 79.8433 101.057 79.5628 101.435C79.2823 101.813 78.894 102.097 78.4493 102.249C77.995 102.366 77.5165 102.345 77.0738 102.19C76.6311 102.036 76.2439 101.753 75.9607 101.379C75.7134 101.054 75.5646 100.665 75.5321 100.258C75.5083 99.8315 75.5978 99.4067 75.7912 99.0265C75.9847 98.6462 76.2753 98.3241 76.6335 98.0929C76.781 97.9873 76.9532 97.9215 77.1336 97.9021C77.1336 97.9021 76.9669 97.9916 76.6989 98.1943C76.3336 98.481 76.057 98.8656 75.9012 99.3035C75.7829 99.6187 75.747 99.9589 75.797 100.292C75.8471 100.625 75.9813 100.94 76.1869 101.206C76.4393 101.526 76.7785 101.767 77.1639 101.899C77.5493 102.031 77.9646 102.049 78.36 101.951C78.7446 101.817 79.0807 101.571 79.3256 101.245C79.5704 100.919 79.713 100.528 79.7352 100.121C79.751 99.7863 79.6729 99.4543 79.5098 99.1623C79.3467 98.8703 79.1051 98.63 78.8124 98.4686C78.4146 98.232 77.9507 98.1316 77.4908 98.1824C77.1633 98.2241 76.9907 98.3136 76.9788 98.2897Z" fill="#263238"/>
<path d="M73.8234 146.421L73.9722 146.355L74.4187 146.182C74.8176 146.045 75.3832 145.795 76.1095 145.461C78.12 144.446 79.9648 143.131 81.5808 141.561C83.9641 139.216 86.0679 136.603 87.8498 133.772C90.083 130.335 92.1223 126.775 93.9581 123.11C97.2595 116.428 100.156 109.554 102.632 102.524C103.609 99.8343 104.365 97.6398 104.895 96.131L105.49 94.3897C105.556 94.2108 105.609 94.0617 105.657 93.9424C105.67 93.8895 105.693 93.8392 105.722 93.7933C105.718 93.8484 105.706 93.9026 105.687 93.9544C105.651 94.0736 105.603 94.2227 105.55 94.4135C105.413 94.8369 105.228 95.4273 104.99 96.2026C104.496 97.7233 103.799 99.9238 102.823 102.625C100.404 109.688 97.5304 116.586 94.2201 123.277C92.3801 126.954 90.3266 130.52 88.0701 133.957C86.268 136.798 84.1356 139.414 81.7177 141.752C80.0746 143.32 78.1938 144.619 76.1453 145.598C75.5847 145.854 75.0103 146.079 74.4247 146.272L73.9663 146.415C73.9192 146.424 73.8711 146.426 73.8234 146.421Z" fill="#263238"/>
<path d="M94.3034 134.512C94.5594 134.512 100.483 134.106 100.483 134.106C100.483 134.106 98.0363 138.436 95.4941 140.07H90.3087L94.3034 134.512Z" fill="#FAFAFA"/>
<path d="M72.7696 159.535C72.8761 159.441 72.9896 159.355 73.109 159.278L74.1092 158.586C74.9724 157.99 76.2167 157.095 77.6813 155.951C80.658 153.661 84.623 150.249 88.856 146.349C90.9814 144.399 93.0234 142.563 94.7797 140.797C96.3504 139.25 97.8087 137.592 99.1436 135.836C100.037 134.65 100.834 133.393 101.525 132.079C101.781 131.62 101.942 131.244 102.073 130.993C102.128 130.864 102.196 130.74 102.275 130.624C102.238 130.761 102.188 130.895 102.126 131.023C102.019 131.274 101.876 131.661 101.632 132.132C100.976 133.478 100.198 134.762 99.3103 135.967C97.9955 137.753 96.5465 139.435 94.9762 141C93.1901 142.789 91.1838 144.632 89.0584 146.576C85.4697 149.943 81.7143 153.128 77.8063 156.117C76.2941 157.245 75.026 158.103 74.1389 158.682C73.6984 158.968 73.3471 159.177 73.109 159.326C73.004 159.408 72.8902 159.478 72.7696 159.535Z" fill="#263238"/>
<path d="M56.076 225.789C56.0976 225.739 56.1235 225.691 56.1534 225.646L56.3975 225.252C56.6118 224.912 56.9452 224.411 57.3917 223.785C58.2907 222.527 59.6719 220.761 61.4937 218.692C65.1551 214.565 70.293 208.942 75.9548 202.716L90.4932 186.817L94.9286 182.047L96.1193 180.753L96.4407 180.425C96.4764 180.385 96.5164 180.349 96.5598 180.317C96.532 180.364 96.5001 180.408 96.4646 180.448C96.3812 180.538 96.286 180.657 96.1609 180.8L94.9702 182.13L90.6123 186.99L76.2048 202.925L61.6544 218.859C59.8148 220.911 58.4157 222.646 57.487 223.88C57.0226 224.477 56.6773 224.984 56.4392 225.312L56.1713 225.687C56.1433 225.725 56.1114 225.758 56.076 225.789Z" fill="#263238"/>
<path d="M107.699 86.2317C108.211 87.001 119.719 88.2831 122.529 91.0979C125.339 93.9126 153.487 115.429 153.487 115.429L133.436 142.527L120.487 139.67L107.699 86.2317Z" fill="#FFCC00"/>
<path opacity="0.4" d="M150.082 112.835L127.595 141.209L133.436 142.497L153.469 115.429L150.082 112.835Z" fill="black"/>
<path d="M113.831 114.409C113.729 114.101 113.652 113.786 113.599 113.467C113.513 113.097 113.447 112.723 113.402 112.346C113.343 111.904 113.253 111.403 113.23 110.843C113.206 110.282 113.134 109.65 113.14 109.012C113.146 108.374 113.14 107.652 113.188 106.913C113.401 103.695 114.183 100.541 115.498 97.598C115.819 96.9301 116.093 96.286 116.439 95.7136C116.784 95.1411 117.07 94.6103 117.373 94.1392C117.677 93.6681 117.969 93.2626 118.225 92.8988C118.481 92.535 118.725 92.2369 118.927 91.9983C119.123 91.7423 119.338 91.5011 119.57 91.2767C119.411 91.5584 119.228 91.8257 119.022 92.0758C118.832 92.3203 118.606 92.6245 118.367 93.0002C118.129 93.3759 117.832 93.7754 117.558 94.2585C117.284 94.7415 116.962 95.2544 116.665 95.8388C116.367 96.4232 116.069 97.0315 115.76 97.7113C115.138 99.1755 114.626 100.685 114.23 102.226C113.857 103.772 113.602 105.345 113.468 106.931C113.432 107.664 113.378 108.362 113.39 109.012C113.402 109.662 113.39 110.276 113.438 110.801C113.486 111.326 113.527 111.851 113.569 112.292C113.611 112.733 113.658 113.109 113.712 113.413C113.784 113.74 113.823 114.074 113.831 114.409Z" fill="#263238"/>
<path d="M122.833 136.641C121.911 134.851 121.08 133.016 120.344 131.142C119.052 128.065 118.064 125.549 118.141 125.519C119.069 127.305 119.9 129.141 120.63 131.017C121.46 132.853 122.195 134.73 122.833 136.641Z" fill="#263238"/>
<path d="M34.3874 116.997C34.3398 116.997 33.8635 116.133 32.9526 114.791C31.7604 113.046 30.4004 111.422 28.8923 109.942C27.3725 108.476 25.7113 107.163 23.9331 106.024C22.5638 105.154 21.6648 104.701 21.6886 104.653C21.9176 104.714 22.1377 104.804 22.3435 104.921C22.9261 105.198 23.4944 105.505 24.0462 105.84C27.7229 108.031 30.8347 111.056 33.1312 114.671C33.4842 115.211 33.8062 115.771 34.0957 116.347C34.2212 116.55 34.3193 116.769 34.3874 116.997Z" fill="#263238"/>
<path opacity="0.4" d="M0 145.878L1.38121 142.497L39.43 152.873L37.9238 157.113L0 145.878Z" fill="black"/>
<path d="M101.555 132.514H116.04V138.478L97.5124 138.358C97.5124 138.358 100.376 134.906 101.555 132.514Z" fill="#FAFAFA"/>
<g opacity="0.2">
<path d="M49.8963 89.3624C50.4202 94.0199 50.9858 98.8145 53.2838 102.894C55.5819 106.973 60.0768 110.187 64.7026 109.501C67.7925 109.048 70.4061 106.978 72.5077 104.671C74.6092 102.363 76.3655 99.7329 78.6636 97.6158C80.046 99.1127 81.594 100.447 83.2775 101.593C84.9793 102.747 87.0218 103.287 89.0703 103.126C91.0945 102.882 92.2078 102.082 92.8448 100.144C90.6837 100.812 89.499 100.741 87.3557 100.299C84.981 99.8428 82.7511 98.8201 80.8545 97.3177C79.5923 96.3218 79.1399 94.8249 77.5324 94.9323C76.05 95.0158 74.8891 96.1906 73.9127 97.3177C72.3386 99.1252 70.6116 100.793 68.751 102.303C66.965 103.716 65.2325 104.689 62.9642 104.623C59.2195 104.539 56.1474 101.593 54.0816 98.4627C52.1744 95.5763 50.7656 92.389 49.9141 89.0344" fill="black"/>
</g>
<path d="M93.7379 83.5601C93.7676 83.6694 93.7875 83.7811 93.7974 83.894C93.7974 84.1147 93.8748 84.4367 93.9165 84.8541C93.9998 85.689 94.0951 86.9056 94.1248 88.4322C94.2108 92.3523 93.8391 96.269 93.0175 100.103V100.198V100.294H92.9222C90.806 100.789 88.598 100.732 86.5103 100.127C84.8058 99.6647 83.1943 98.9101 81.7475 97.8962C80.7742 97.2278 79.9003 96.4247 79.1518 95.5108C78.938 95.2625 78.7392 95.0016 78.5564 94.7296C78.4868 94.641 78.4306 94.5425 78.3897 94.4374C79.3567 95.7134 80.5227 96.8249 81.8428 97.7293C83.2787 98.7023 84.869 99.4241 86.546 99.8642C88.5858 100.442 90.7383 100.493 92.8032 100.013L92.69 100.127V100.031C93.4981 96.2163 93.8973 92.326 93.8807 88.4262C93.8807 86.9294 93.8153 85.7188 93.7617 84.8839C93.7617 84.4904 93.72 84.1743 93.7081 83.9179C93.7006 83.7978 93.7107 83.6773 93.7379 83.5601Z" fill="#263238"/>
<path d="M75.6511 95.3259C75.6039 95.4532 75.5398 95.5736 75.4606 95.6837C75.2588 96.0142 75.0381 96.3328 74.7998 96.6379C73.9141 97.7521 72.9341 98.7876 71.8706 99.7329C71.2098 100.329 70.4716 100.991 69.6678 101.671C69.263 102.011 68.8522 102.369 68.4057 102.727C67.9377 103.079 67.4442 103.396 66.9292 103.675C65.8276 104.284 64.6108 104.656 63.3571 104.766C61.9921 104.882 60.6241 104.581 59.4338 103.901C58.2722 103.207 57.2307 102.329 56.3499 101.301C55.5151 100.38 54.7358 99.4107 54.0161 98.3971C52.8116 96.6598 51.7957 94.7985 50.9858 92.8451C50.4391 91.5328 49.9914 90.1812 49.6462 88.8019C49.5272 88.3129 49.4498 87.9312 49.4021 87.6688C49.3691 87.538 49.3491 87.4041 49.3426 87.2693C49.3937 87.3947 49.4336 87.5244 49.4617 87.6569C49.5272 87.9133 49.6224 88.289 49.7653 88.7721C50.1603 90.1208 50.6396 91.4433 51.2001 92.7318C52.0365 94.653 53.0637 96.485 54.2661 98.2003C54.9737 99.2099 55.739 100.178 56.5582 101.099C57.4107 102.094 58.4154 102.947 59.535 103.627C60.6744 104.279 61.984 104.57 63.2916 104.462C64.5094 104.359 65.693 104.006 66.7685 103.424C67.2726 103.157 67.7544 102.85 68.2092 102.506C68.6498 102.172 69.0665 101.808 69.4714 101.474C70.2811 100.8 71.0312 100.168 71.698 99.5719C72.7609 98.6514 73.7557 97.6548 74.6747 96.5902C74.9962 96.2026 75.2284 95.8925 75.3772 95.6718C75.4535 95.5453 75.5455 95.4291 75.6511 95.3259Z" fill="#263238"/>
<path d="M62.8273 163.846L67.4115 157.143C67.4115 157.143 70.5668 146.159 70.1382 144.62C69.7095 143.081 68.3164 137.356 68.6498 137.285C68.9832 137.213 72.4124 135.937 74.2759 140.529C75.4368 143.391 75.8178 147.16 75.9369 149.593C75.9514 149.894 76.0307 150.189 76.1694 150.456C76.3081 150.723 76.503 150.957 76.7405 151.142C76.9781 151.327 77.2528 151.458 77.5457 151.526C77.8386 151.594 78.1428 151.598 78.4373 151.538C81.6106 150.888 86.8913 149.886 88.1416 150.19C89.9693 150.625 91.5946 152.951 91.7553 153.732C91.9161 154.513 90.6539 156.273 90.6539 156.273C90.6539 156.273 92.2018 157.066 92.6781 158.264C92.7436 158.425 92.8031 158.586 92.8508 158.741C92.9952 159.223 93.0119 159.735 92.8992 160.225C92.7864 160.716 92.5482 161.168 92.2078 161.538L91.7256 162.069C91.7256 162.069 93.6545 162.6 93.8926 163.709C94.022 164.519 93.9998 165.346 93.8271 166.148L92.0411 168.027C92.5473 168.499 92.8788 169.13 92.9817 169.816C93.071 170.835 90.3563 173.358 90.3563 173.358L78.6814 177.532L74.0496 178.725L62.8273 163.846Z" fill="#B78876"/>
<path d="M90.6897 156.284C90.6897 156.374 88.9036 156.702 86.6472 157.161C84.3908 157.62 82.6048 158.026 82.581 157.942C82.9457 157.756 83.3344 157.622 83.736 157.543C84.4563 157.334 85.4625 157.09 86.5877 156.857C87.7129 156.624 88.731 156.463 89.4751 156.368C89.8744 156.286 90.2829 156.258 90.6897 156.284Z" fill="#AA8050"/>
<path d="M91.7613 162.069C90.7681 162.535 89.7336 162.906 88.6714 163.178C87.6395 163.55 86.5751 163.823 85.4922 163.995C86.4858 163.532 87.5202 163.163 88.5821 162.892C89.6129 162.516 90.6776 162.24 91.7613 162.069Z" fill="#AA8050"/>
<path d="M92.4578 167.776C91.4095 168.403 90.3102 168.939 89.1715 169.38C88.0759 169.918 86.9367 170.36 85.7661 170.704C86.8144 170.078 87.9138 169.541 89.0524 169.1C90.148 168.563 91.2873 168.12 92.4578 167.776Z" fill="#AA8050"/>
<path d="M35.9234 205.268L78.8601 176.417L68.0307 156.738L28.8388 176.948L33.286 155.742L6.69176 147.858L0.0595585 184.152C-0.970397 200.301 11.9666 213.337 27.5469 209.097C30.5284 208.286 33.3578 206.993 35.9234 205.268Z" fill="#B78876"/>
<path d="M23.171 188.338C23.0936 188.166 23.0434 187.983 23.0222 187.795C22.9278 187.294 22.878 186.785 22.8733 186.275C22.8441 184.578 23.2238 182.898 23.9804 181.38C24.737 179.861 25.848 178.547 27.2194 177.55C27.6314 177.248 28.0674 176.981 28.5232 176.751C28.6839 176.656 28.8588 176.588 29.0412 176.548C29.0412 176.596 28.3506 176.936 27.3504 177.741C26.0509 178.761 24.9946 180.059 24.2583 181.539C23.5219 183.019 23.1241 184.645 23.0936 186.299C23.0639 187.551 23.2186 188.332 23.171 188.338Z" fill="#AA8050"/>
<path d="M133.436 142.527C133.704 142.157 164.013 160.656 164.013 160.656L173.729 204.994L187.708 210.135C187.708 210.135 192.078 160.793 188.75 153.112C185.422 145.431 151.755 117.796 151.755 117.796L133.436 142.527Z" fill="#B78876"/>
<path d="M170.633 157.221C169.958 158.237 169.06 159.086 168.008 159.701C167.01 160.405 165.866 160.874 164.662 161.073C165.747 160.586 166.806 160.043 167.835 159.445C168.807 158.754 169.741 158.012 170.633 157.221Z" fill="#AA8050"/>
<path d="M96.9825 142.592L99.352 185.148L147.796 181.868L146.325 150.19L139.276 140.684L96.9825 142.592Z" fill="#263238"/>
<path d="M85.9685 186.096C86.1174 186.913 90.2253 225.455 90.2253 225.455L162.316 220.433L174.521 218.799L168.895 182.905L160.274 180.836L85.9685 186.096Z" fill="#FFCC00"/>
<path opacity="0.4" d="M160.274 180.836L85.9685 186.096C86.1174 186.913 90.2253 225.455 90.2253 225.455L165.281 220.225L160.274 180.836Z" fill="black"/>
<path d="M140.532 182.363L99.352 185.148L96.9825 142.592L139.276 140.684L140.532 182.363Z" fill="#CCAA00"/>
<path d="M112.337 141.901L113.206 155.014L115.403 153.75L116.629 155.014L118.141 153.75L120.487 155.014V141.531L112.337 141.901Z" fill="#263238"/>
<path d="M129.548 183.251L126.726 151.311L154.255 158.914L156.904 180.955L129.548 183.251Z" fill="#FFCC00"/>
<path d="M154.255 158.914C154.206 158.996 154.148 159.072 154.083 159.141L153.553 159.767L151.528 162.081L144.491 169.959L144.384 170.078L144.277 169.965L140.526 166.029C136.71 161.986 133.257 158.33 130.721 155.652L127.78 152.48L126.988 151.609C126.89 151.511 126.802 151.403 126.726 151.287C126.839 151.37 126.942 151.464 127.036 151.567L127.863 152.396L130.882 155.497C133.43 158.163 136.907 161.801 140.753 165.814L144.491 169.756H144.271L151.386 161.926L153.475 159.672C153.707 159.427 153.892 159.23 154.071 159.075C154.126 159.016 154.188 158.962 154.255 158.914Z" fill="#263238"/>
<path d="M138.824 164.83C138.895 164.872 136.936 168.641 134.442 173.25C131.947 177.86 129.858 181.564 129.786 181.522C129.715 181.48 131.674 177.711 134.168 173.101C136.663 168.492 138.746 164.788 138.824 164.83Z" fill="#263238"/>
<path d="M156.267 180.955C156.196 180.997 154.285 177.944 152.005 174.139C149.725 170.334 147.939 167.204 148.01 167.156C148.081 167.108 149.992 170.167 152.273 173.978C154.553 177.789 156.339 180.914 156.267 180.955Z" fill="#263238"/>
<path d="M144.325 182.005L142.533 161.669L160.06 166.506L161.751 180.544L144.325 182.005Z" fill="#FFCC00"/>
<path opacity="0.4" d="M144.325 182.005L142.533 161.669L160.06 166.506L161.751 180.544L144.325 182.005Z" fill="white"/>
<path d="M160.06 166.506C159.932 166.705 159.786 166.893 159.625 167.066L158.363 168.545C157.226 169.839 155.678 171.587 153.904 173.591L153.797 173.716L153.684 173.596L151.302 171.092C148.855 168.522 146.653 166.178 145.069 164.472L143.205 162.439C142.966 162.201 142.748 161.942 142.557 161.664C142.818 161.878 143.064 162.109 143.295 162.355L145.23 164.317C146.849 165.987 149.082 168.307 151.523 170.877L153.904 173.388H153.684L158.232 168.414L159.554 166.977C159.709 166.806 159.878 166.648 160.06 166.506Z" fill="#263238"/>
<path d="M150.231 170.275C149.412 172.11 148.498 173.902 147.492 175.642C146.577 177.439 145.572 179.189 144.48 180.884C145.298 179.048 146.213 177.257 147.218 175.517C148.132 173.719 149.137 171.969 150.231 170.275Z" fill="#263238"/>
<path d="M161.34 180.544C160.336 179.162 159.413 177.722 158.577 176.232C157.658 174.793 156.825 173.299 156.083 171.76C157.09 173.139 158.013 174.579 158.845 176.071C159.769 177.508 160.602 179.002 161.34 180.544Z" fill="#263238"/>
<path d="M155.499 165.647V167.281L158.059 167.579L158.19 166.333L155.499 165.647Z" fill="white"/>
<path d="M146.456 157.352V159.737L151.29 160.536L151.552 158.747L146.456 157.352Z" fill="white"/>
<path d="M127.595 195.148L127.357 183.251L117.725 183.901L118.754 195.983L127.595 195.148Z" fill="#FFCC00"/>
<path d="M158.975 201.392L142.813 202.928L144.169 217.248L160.332 215.712L158.975 201.392Z" fill="#FAFAFA"/>
<path d="M160.322 215.728C160.298 215.639 160.284 215.547 160.28 215.454C160.28 215.257 160.227 215.001 160.191 214.679C160.113 213.987 160.012 213.003 159.881 211.769C159.625 209.252 159.286 205.698 158.833 201.422L158.976 201.541L142.819 203.098L142.955 202.931V203.038V203.163V203.402L143.003 203.891L143.092 204.857C143.152 205.495 143.211 206.133 143.271 206.759C143.39 208.018 143.503 209.252 143.616 210.451C143.843 212.836 144.051 215.132 144.247 217.243L144.099 217.118L155.761 216.08L159.072 215.8L159.959 215.734C160.161 215.734 160.268 215.734 160.274 215.734C160.181 215.758 160.085 215.772 159.988 215.776L159.137 215.877L155.863 216.223L144.122 217.416H143.985V217.279C143.783 215.168 143.563 212.896 143.331 210.492C143.219 209.3 143.102 208.069 142.979 206.801C142.92 206.169 142.86 205.537 142.795 204.899L142.705 203.933L142.658 203.444V203.205V203.08V202.972L142.795 202.805L158.958 201.279H159.089V201.41C159.47 205.722 159.786 209.312 160.006 211.852C160.107 213.081 160.191 214.053 160.25 214.738C160.25 215.054 160.292 215.305 160.304 215.496C160.316 215.687 160.322 215.734 160.322 215.728Z" fill="#263238"/>
<path d="M157.702 204.845C157.702 204.928 154.886 205.298 151.392 205.662C149.288 205.939 147.172 206.11 145.051 206.175C145.051 206.091 147.867 205.722 151.362 205.358C153.465 205.08 155.582 204.909 157.702 204.845Z" fill="#263238"/>
<path d="M157.607 207.272C157.043 207.473 156.461 207.619 155.869 207.707C154.785 207.922 153.279 208.173 151.606 208.369C149.933 208.566 148.409 208.674 147.301 208.709C146.708 208.767 146.109 208.767 145.515 208.709C146.104 208.593 146.702 208.525 147.301 208.507C148.397 208.411 149.915 208.268 151.582 208.071C153.249 207.874 154.755 207.66 155.845 207.475C156.426 207.363 157.015 207.295 157.607 207.272Z" fill="#263238"/>
<path d="M158.292 212.592C157.728 212.792 157.145 212.938 156.553 213.027C155.47 213.242 153.963 213.492 152.291 213.689C150.618 213.886 149.088 213.993 147.986 214.035C147.392 214.091 146.794 214.091 146.2 214.035C146.789 213.918 147.386 213.85 147.986 213.832C149.082 213.737 150.594 213.593 152.267 213.397C153.94 213.2 155.44 212.985 156.529 212.8C157.111 212.69 157.7 212.62 158.292 212.592Z" fill="#263238"/>
<path d="M157.476 209.866C155.531 210.307 153.563 210.641 151.582 210.868C149.612 211.207 147.624 211.438 145.629 211.56C147.575 211.127 149.542 210.794 151.523 210.564C153.494 210.228 155.481 209.995 157.476 209.866Z" fill="#263238"/>
<path d="M171.747 232.044C171.747 232.044 185.047 223.224 186.071 218.716C187.095 214.208 187.708 210.105 187.708 210.105L173.497 204.207L174.908 209.335C174.908 209.335 169.806 212.377 169.288 216.05C168.942 218.507 162.352 222.7 162.352 222.7C161.801 222.032 161.098 221.505 160.303 221.164C159.508 220.823 158.643 220.677 157.78 220.738L152.243 221.131L155.982 229.593L171.747 232.044Z" fill="#B78876"/>
<path d="M176.944 219.956C176.748 220.074 176.535 220.16 176.313 220.213C175.902 220.35 175.283 220.487 174.527 220.726C173.68 221.027 172.897 221.484 172.217 222.073C171.363 222.806 170.406 223.409 169.377 223.863C167.471 224.676 165.355 224.853 163.34 224.369C162.985 224.3 162.643 224.173 162.328 223.994C162.201 223.92 162.099 223.811 162.034 223.679C161.97 223.548 161.945 223.4 161.965 223.254C161.975 223.163 162.008 223.077 162.059 223.002C162.111 222.927 162.181 222.866 162.263 222.825C162.382 222.783 162.447 222.825 162.441 222.825C162.435 222.825 162.382 222.825 162.286 222.89C162.225 222.936 162.175 222.996 162.14 223.064C162.105 223.132 162.086 223.207 162.084 223.284C162.072 223.406 162.099 223.529 162.159 223.636C162.22 223.743 162.312 223.828 162.423 223.88C162.728 224.03 163.053 224.133 163.388 224.185C165.358 224.587 167.403 224.379 169.252 223.588C170.264 223.14 171.208 222.552 172.056 221.841C172.767 221.243 173.588 220.791 174.473 220.511C175.229 220.296 175.849 220.195 176.259 220.094C176.483 220.029 176.712 219.983 176.944 219.956Z" fill="#AA8050"/>
<path d="M167.728 226.797C167.698 226.844 167.043 226.451 165.912 225.986C164.437 225.376 162.88 224.988 161.292 224.835C160.828 224.781 160.369 224.769 159.929 224.757H159.845L159.804 224.685C159.113 223.605 158.28 222.622 157.327 221.763C156.613 221.113 156.136 220.779 156.136 220.744C156.136 220.708 156.273 220.791 156.506 220.934C156.827 221.143 157.137 221.368 157.434 221.608C158.446 222.44 159.324 223.424 160.036 224.524L159.911 224.453C160.374 224.454 160.837 224.477 161.298 224.524C162.915 224.679 164.495 225.104 165.972 225.783C166.418 225.987 166.851 226.218 167.27 226.474C167.438 226.557 167.593 226.666 167.728 226.797Z" fill="#AA8050"/>
<path d="M171.318 224.375C171.348 224.459 170.419 224.799 169.371 225.395C168.323 225.991 167.585 226.618 167.502 226.546C168.483 225.4 169.833 224.633 171.318 224.375Z" fill="#AA8050"/>
<path d="M178.528 208.519C178.528 208.614 177.605 208.519 176.539 208.787C175.473 209.055 174.753 209.604 174.676 209.526C175.132 208.983 175.764 208.616 176.462 208.489C177.133 208.26 177.863 208.271 178.528 208.519Z" fill="#AA8050"/>
</g>
<defs>
<clipPath id="clip0_196_22152">
<rect width="190" height="237" fill="white"/>
</clipPath>
</defs>
</svg>
