<svg width="112" height="98" viewBox="0 0 112 98" fill="none" xmlns="http://www.w3.org/2000/svg">
<g clip-path="url(#clip0_120_638)">
<path d="M70.6407 31.5502C70.6407 31.5502 75.7528 32.4128 76.1648 32.5234C76.5768 32.634 78.1963 33.3987 78.2787 33.8916C78.3214 34.5376 78.3214 35.1857 78.2787 35.8317C78.2787 35.8317 77.9871 36.0718 77.8033 35.5979C77.6821 35.1362 77.6298 34.6592 77.648 34.1823L76.7416 33.8347L77.236 34.71L77.3184 36.7638C77.3184 36.7638 76.6845 36.707 76.5609 36.214C76.4849 35.8736 76.4445 35.5263 76.4405 35.1776L75.7813 34.6183L76.2757 35.2851L76.4405 36.7638C76.4405 36.7638 75.9588 36.9187 75.8066 36.59C75.6951 36.164 75.6397 35.7253 75.6418 35.2851L73.7814 34.6531L72.5454 35.3388L70.2413 34.037L70.6407 31.5502Z" fill="#FFBE9D"/>
<path d="M52.7404 18.9586C52.7657 19.0597 58.9015 27.4899 58.9015 27.4899L71.2301 31.3132L70.6755 35.917L55.5674 32.8836L50.1986 26.7474L52.7404 18.9586Z" fill="#FFCC00"/>
<g opacity="0.2">
<path d="M52.7404 18.9586C52.7657 19.0597 58.9015 27.4899 58.9015 27.4899L71.2301 31.3132L70.6755 35.917L55.5674 32.8836L50.1986 26.7474L52.7404 18.9586Z" fill="black"/>
</g>
<path d="M31.2683 30.5454H6.0787C5.54484 30.5454 5.11206 30.9769 5.11206 31.5091V34.4762C5.11206 35.0084 5.54484 35.4399 6.0787 35.4399H31.2683C31.8022 35.4399 32.235 35.0084 32.235 34.4762V31.5091C32.235 30.9769 31.8022 30.5454 31.2683 30.5454Z" fill="#F5F5F5"/>
<path d="M31.2684 35.4399C31.3216 35.4354 31.3745 35.428 31.4269 35.4178C31.5798 35.3896 31.7234 35.3245 31.8452 35.2282C31.9436 35.1515 32.0259 35.0562 32.0874 34.9477C32.1488 34.8393 32.1882 34.7199 32.2033 34.5962C32.2033 34.2992 32.2033 33.9453 32.2033 33.5535C32.2033 33.1617 32.2033 32.7193 32.2033 32.2422C32.2033 32.0021 32.2033 31.7524 32.2033 31.4933C32.2006 31.3653 32.171 31.2393 32.1164 31.1233C32.0618 31.0074 31.9835 30.9042 31.8864 30.8203C31.7831 30.7315 31.6605 30.6676 31.5283 30.6339C31.3889 30.6038 31.2459 30.5932 31.1036 30.6023H30.1528H28.1403L6.07878 30.6244C5.95518 30.6248 5.83302 30.6509 5.72008 30.7009C5.60713 30.751 5.50587 30.8239 5.42274 30.9151C5.3401 31.0068 5.27721 31.1143 5.23796 31.2312C5.19871 31.348 5.18394 31.4717 5.19455 31.5945C5.19455 32.1253 5.19455 32.6498 5.19455 33.1743V34.3434C5.18849 34.4654 5.19915 34.5877 5.22624 34.7068C5.29038 34.9359 5.44313 35.1303 5.65093 35.2471C5.75367 35.3039 5.86686 35.3394 5.9837 35.3514C6.09463 35.3514 6.23091 35.3514 6.35768 35.3514H12.2114L22.1281 35.3704L28.8154 35.3956H30.6345H31.1068H31.2684C31.2684 35.3956 31.2145 35.3956 31.1068 35.3956H30.6345H28.8154L22.1281 35.4209L12.2114 35.4367H6.35451C6.22457 35.4367 6.10731 35.4367 5.96152 35.4367C5.82387 35.4208 5.69051 35.379 5.56852 35.3135C5.34017 35.1949 5.1632 34.9971 5.07094 34.7574C5.0368 34.6254 5.02396 34.4889 5.03291 34.3529V31.5976C5.02277 31.4544 5.04168 31.3107 5.08851 31.175C5.13534 31.0393 5.20913 30.9143 5.30547 30.8077C5.40389 30.6997 5.52373 30.6134 5.6574 30.5541C5.79107 30.4948 5.93565 30.4639 6.08195 30.4633L28.1435 30.4885H30.156H31.0846C31.2356 30.4793 31.3873 30.4921 31.5346 30.5265C31.6795 30.5646 31.8138 30.6348 31.9276 30.7318C32.0349 30.8251 32.1215 30.9395 32.1821 31.0678C32.2427 31.1962 32.2758 31.3357 32.2794 31.4775C32.2794 31.7366 32.2794 31.9863 32.2794 32.2264C32.2794 32.7035 32.2794 33.1427 32.2794 33.5377C32.2794 33.9327 32.2794 34.2771 32.2794 34.5867C32.2627 34.7163 32.2201 34.8411 32.1542 34.954C32.0884 35.0668 32.0006 35.1654 31.8959 35.244C31.768 35.3409 31.6175 35.404 31.4586 35.4272C31.3962 35.441 31.3321 35.4453 31.2684 35.4399Z" fill="#263238"/>
<path d="M99.6621 97.9841C106.811 97.6417 112.328 91.5863 111.985 84.4588C111.641 77.3314 105.568 71.831 98.4186 72.1733C91.2696 72.5157 85.7526 78.5712 86.096 85.6986C86.4394 92.826 92.5132 98.3264 99.6621 97.9841Z" fill="#263238"/>
<path d="M86.0878 84.8617C86.0878 84.8617 86.0878 84.8838 86.0878 84.8933C86.0528 86.5962 86.356 88.2892 86.9797 89.8749C87.6035 91.4606 88.5355 92.9077 89.7223 94.1329C90.9091 95.3581 92.3271 96.3373 93.8949 97.0141C95.4626 97.6909 97.1491 98.052 98.8574 98.0765C100.566 98.1011 102.262 97.7887 103.849 97.1573C105.435 96.5259 106.881 95.5879 108.103 94.3973C109.324 93.2068 110.298 91.7871 110.967 90.22C111.637 88.6529 111.989 86.9694 112.003 85.2662V85.2346L86.0878 84.8617Z" fill="#263238"/>
<path d="M89.9448 84.9502C89.9187 86.7443 90.4267 88.5058 91.4048 90.0119C92.3828 91.5181 93.7869 92.7013 95.4394 93.4119C97.0919 94.1225 98.9187 94.3285 100.689 94.004C102.459 93.6795 104.092 92.8389 105.383 91.5887C106.674 90.3384 107.564 88.7346 107.941 86.98C108.317 85.2255 108.163 83.399 107.499 81.7316C106.834 80.0642 105.688 78.6307 104.207 77.6125C102.725 76.5943 100.973 76.037 99.1738 76.0112C96.7611 75.9766 94.4333 76.8989 92.7026 78.5753C90.9719 80.2516 89.9799 82.5447 89.9448 84.9502Z" fill="#FAFAFA"/>
<path d="M99.1738 76.0112C96.7611 75.9766 94.4333 76.8989 92.7026 78.5753C90.9719 80.2516 89.9799 82.5447 89.9448 84.9502L108.14 85.2124C108.175 82.807 107.249 80.4862 105.568 78.7607C103.887 77.0352 101.587 76.0462 99.1738 76.0112Z" fill="#E0E0E0"/>
<path d="M93.4945 84.9976C93.4783 86.0906 93.7876 87.1638 94.3833 88.0815C94.9789 88.9992 95.8342 89.7202 96.8408 90.1533C97.8475 90.5864 98.9604 90.7121 100.039 90.5146C101.117 90.317 102.113 89.8051 102.899 89.0435C103.686 88.2819 104.228 87.3049 104.457 86.236C104.687 85.1671 104.593 84.0544 104.188 83.0385C103.784 82.0226 103.086 81.1493 102.183 80.5289C101.28 79.9086 100.213 79.5691 99.1168 79.5533C97.6472 79.5322 96.2293 80.0939 95.175 81.1148C94.1207 82.1358 93.5162 83.5324 93.4945 84.9976Z" fill="#263238"/>
<path d="M92.8923 66.137C92.8923 66.137 106.159 62.1367 111.645 76.5073L83.882 85.0797L92.8923 66.137Z" fill="#FFCC00"/>
<path d="M19.707 97.9853C26.856 97.643 32.373 91.5875 32.0296 84.4601C31.6862 77.3326 25.6125 71.8322 18.4635 72.1746C11.3146 72.5169 5.79754 78.5724 6.14093 85.6998C6.48432 92.8273 12.5581 98.3277 19.707 97.9853Z" fill="#263238"/>
<path d="M6.12942 84.8617C6.12942 84.8617 6.12942 84.8838 6.12942 84.8933C6.09447 86.5962 6.39759 88.2892 7.02134 89.8749C7.6451 91.4606 8.57717 92.9077 9.76394 94.1329C10.9507 95.3581 12.3688 96.3373 13.9365 97.0141C15.5043 97.6909 17.1908 98.052 18.899 98.0765C20.6072 98.1011 22.3035 97.7887 23.8902 97.1573C25.4768 96.5259 26.9226 95.5879 28.1444 94.3973C29.3661 93.2068 30.3397 91.7871 31.0091 90.22C31.6785 88.6529 32.0305 86.9694 32.0448 85.2662V85.2346L6.12942 84.8617Z" fill="#263238"/>
<path d="M9.98656 84.9502C9.96041 86.7443 10.4685 88.5058 11.4465 90.0119C12.4246 91.5181 13.8286 92.7013 15.4812 93.4119C17.1337 94.1225 18.9605 94.3285 20.7305 94.004C22.5005 93.6795 24.1342 92.8389 25.425 91.5887C26.7158 90.3384 27.6058 88.7346 27.9823 86.98C28.3589 85.2255 28.2051 83.399 27.5405 81.7316C26.8758 80.0642 25.7301 78.6307 24.2483 77.6125C22.7665 76.5943 21.0151 76.037 19.2156 76.0112C16.8031 75.9774 14.4758 76.9 12.7452 78.5762C11.0147 80.2524 10.0224 82.545 9.98656 84.9502Z" fill="#FAFAFA"/>
<path d="M19.2155 76.0112C16.8027 75.9766 14.475 76.8989 12.7442 78.5753C11.0135 80.2516 10.0215 82.5447 9.98645 84.9502L28.1814 85.2124C28.2161 82.807 27.2911 80.4862 25.6096 78.7607C23.9282 77.0352 21.6282 76.0462 19.2155 76.0112Z" fill="#E0E0E0"/>
<path d="M13.5425 84.9976C13.5263 86.0906 13.8356 87.1638 14.4312 88.0815C15.0269 88.9992 15.8821 89.7202 16.8888 90.1533C17.8955 90.5864 19.0084 90.7121 20.0868 90.5146C21.1651 90.317 22.1605 89.8051 22.947 89.0435C23.7335 88.2819 24.2758 87.3049 24.5053 86.236C24.7348 85.1671 24.6412 84.0544 24.2364 83.0385C23.8315 82.0226 23.1336 81.1493 22.2308 80.5289C21.3281 79.9086 20.2611 79.5691 19.1648 79.5533C17.6952 79.5322 16.2773 80.0939 15.223 81.1148C14.1686 82.1358 13.5642 83.5324 13.5425 84.9976Z" fill="#263238"/>
<path d="M37.5182 79.8946C37.4454 79.9293 30.6979 78.855 30.6979 78.855C30.3331 79.3298 29.8687 79.7194 29.3372 79.9967C28.8056 80.2739 28.2198 80.4321 27.6205 80.4602C24.7048 80.5992 21.8556 80.7256 19.3803 80.8362C18.2747 80.8862 17.234 81.3713 16.4866 82.1852C15.7392 82.9991 15.3461 84.0752 15.3933 85.1777C15.4379 86.224 15.8756 87.2154 16.6196 87.9547C17.3635 88.6941 18.3592 89.1274 19.4089 89.1685L33.7658 89.7372C36.1238 89.832 39.2614 88.4007 40.7383 86.5617L37.5182 79.8946Z" fill="#FF9500"/>
<path d="M2.26294 74.1754C2.26294 74.1754 1.64493 61.5838 13.514 58.9612V57.3465H55.0921V61.1983C55.0921 61.1983 48.988 68.5226 50.972 74.6083C52.9559 80.694 53.5866 81.3133 53.5866 81.3133H77.2487C79.115 78.6952 80.1566 75.5821 80.2405 72.3712C80.3641 67.0343 78.1392 57.9026 76.4785 52.0666C74.9668 46.7613 74.0128 42.3219 74.0128 42.3219L81.112 39.9647C81.112 39.9647 94.2456 57.0874 94.7844 58.0511C95.3232 59.0149 97.1424 61.2615 96.7145 66.1812C96.2867 71.101 84.481 86.2962 81.3687 88.0057C78.2565 89.7151 75.4675 89.8257 72.6753 90.2554C70.254 90.6251 52.3411 90.3787 47.6379 90.3091C46.0095 90.2991 44.4133 89.8562 43.0138 89.0263C41.613 88.1795 40.5576 86.7797 39.3945 84.4762L36.9256 79.6608L2.26294 74.1754Z" fill="#FFCC00"/>
<path d="M5.44489 73.3065L0.206029 81.4776C0.0506149 81.7043 -0.0265421 81.9752 -0.0137726 82.2495C-0.00100298 82.5238 0.100999 82.7864 0.276806 82.9977C0.452613 83.2091 0.692664 83.3576 0.960653 83.4208C1.22864 83.484 1.50999 83.4585 1.76216 83.3482C2.41495 83.0573 3.01057 82.6529 3.52112 82.1538C5.91394 79.8819 10.1767 73.8973 10.1767 73.8973L5.44489 73.3065Z" fill="#FF9500"/>
<path d="M42.9979 74.7726C43.0032 74.7317 43.0128 74.6915 43.0265 74.6525L43.1311 74.3113C43.258 73.8694 43.3502 73.4183 43.4068 72.9621C43.5825 71.2742 43.3024 69.5701 42.5954 68.0265C42.121 66.9605 41.4696 65.982 40.6685 65.1322C39.7463 64.1643 38.6767 63.3474 37.4992 62.7118C36.1933 62.0099 34.7961 61.492 33.3474 61.173C31.7857 60.8354 30.1914 60.6712 28.5935 60.6832C27.0029 60.6953 25.4148 60.8114 23.8395 61.0308C22.3056 61.2393 20.835 61.4921 19.45 61.8081C16.9717 62.3238 14.5829 63.2 12.3603 64.4086C10.8752 65.2294 9.51814 66.262 8.33211 67.4735C7.91376 67.9033 7.61268 68.2635 7.41301 68.5068L7.18799 68.788C7.16395 68.8214 7.13632 68.8522 7.10559 68.8796C7.45563 68.363 7.85011 67.8777 8.28457 67.4293C9.4604 66.1946 10.815 65.1424 12.3032 64.3075C14.5183 63.0815 16.9032 62.1892 19.3803 61.6596C20.7685 61.3436 22.2327 61.0813 23.7825 60.8728C25.37 60.6473 26.9709 60.5291 28.5745 60.5189C30.181 60.5082 31.7838 60.6746 33.3538 61.015C34.8173 61.3446 36.2275 61.8764 37.5436 62.5949C38.7384 63.2396 39.8222 64.0706 40.7541 65.0563C41.5628 65.9187 42.2177 66.9125 42.6905 67.9949C43.3947 69.5581 43.6598 71.2825 43.4575 72.9842C43.3912 73.4432 43.2851 73.8957 43.1406 74.3365C43.0899 74.4787 43.0518 74.5925 43.0201 74.6746L42.9979 74.7726Z" fill="#263238"/>
<path d="M40.602 71.9446C40.583 71.9446 40.6717 71.7487 40.7573 71.3853C40.8745 70.8719 40.8906 70.3408 40.8048 69.8212C40.682 69.0487 40.42 68.3047 40.0315 67.6252C39.8112 67.2203 39.5556 66.8354 39.2677 66.4751C38.9617 66.087 38.6165 65.7312 38.2377 65.4134C37.4938 64.8054 36.6585 64.3181 35.7625 63.9694C35.0294 63.6864 34.269 63.48 33.4932 63.3532C32.9686 63.2649 32.4397 63.2048 31.9086 63.1731C31.7135 63.1706 31.5187 63.1558 31.3254 63.1289C31.3758 63.12 31.4272 63.12 31.4776 63.1289C31.5758 63.1289 31.7216 63.1289 31.9118 63.1289C32.4422 63.1369 32.9715 63.1791 33.4964 63.2553C34.287 63.3628 35.0637 63.5545 35.8132 63.8272C36.7328 64.172 37.5894 64.6652 38.3486 65.287C38.7381 65.6111 39.0909 65.9767 39.4008 66.3771C39.6928 66.7455 39.9515 67.1388 40.1741 67.5525C40.5638 68.2503 40.8196 69.0143 40.9284 69.8054C41.0051 70.3386 40.9706 70.8819 40.827 71.4011C40.7888 71.5423 40.7379 71.6798 40.6749 71.8119C40.6577 71.8597 40.6331 71.9044 40.602 71.9446Z" fill="#F5F5F5"/>
<g opacity="0.4">
<path d="M32.4601 60.9139C34.6994 61.3249 36.83 62.1907 38.7195 63.4575C40.6225 64.7135 42.0875 66.5274 42.9124 68.649C43.7428 70.7787 43.6192 73.6003 42.7476 75.3635L45.6824 75.6068C46.6744 72.3175 45.5968 68.2824 43.2199 65.7072C41.8598 64.2056 40.2002 63.0037 38.3474 62.1783C36.4946 61.3529 34.4894 60.9222 32.4601 60.9139Z" fill="black"/>
</g>
<path d="M31.5219 35.1934H5.82205C4.32024 35.1934 3.10278 36.4072 3.10278 37.9045V54.6354C3.10278 56.1327 4.32024 57.3465 5.82205 57.3465H31.5219C33.0237 57.3465 34.2412 56.1327 34.2412 54.6354V37.9045C34.2412 36.4072 33.0237 35.1934 31.5219 35.1934Z" fill="#FF9500"/>
<path d="M34.2284 40.129C34.2284 40.1732 27.2274 40.2111 18.5943 40.2111C9.96109 40.2111 2.9696 40.1827 2.9696 40.129C2.9696 40.0753 9.97059 40.0468 18.6069 40.0468C27.2433 40.0468 34.2284 40.0911 34.2284 40.129Z" fill="#263238"/>
<path d="M55.0698 58.8158C55.0698 58.86 45.7267 58.898 34.1999 58.898C22.6732 58.898 13.3301 58.86 13.3301 58.8158C13.3301 58.7716 22.6732 58.7305 34.1999 58.7305C45.7267 58.7305 55.0698 58.7716 55.0698 58.8158Z" fill="#263238"/>
<path d="M55.092 57.3465C55.5134 56.8116 55.7739 56.1684 55.8431 55.4917C55.9065 54.449 55.4311 53.1472 54.3092 53.1472H39.9522C39.3988 53.1468 38.8508 53.2551 38.3394 53.4659C37.828 53.6768 37.3633 53.986 36.9718 54.376C36.5804 54.766 36.2699 55.2291 36.058 55.7388C35.8461 56.2485 35.7371 56.7948 35.7371 57.3465H55.092Z" fill="#FF9500"/>
<path d="M74.0223 42.3218L71.5249 37.1304C71.1959 36.417 71.1434 35.6074 71.3775 34.8577C71.6116 34.1081 72.1156 33.4713 72.7926 33.0701L80.2595 28.6464C80.6499 28.4154 81.0954 28.2932 81.5494 28.2925H83.1626L83.7964 38.7861L81.3085 39.734L82.8932 42.2902L74.0223 42.3218Z" fill="#FFCC00"/>
<path d="M83.1815 28.6559C83.1815 28.6559 85.736 29.2404 86.0561 33.168C86.3762 37.0956 83.8027 38.3153 83.8027 38.3153L83.1815 28.6559Z" fill="#EBEBEB"/>
<path d="M74.8906 35.0986C74.8906 35.0986 69.7278 37.538 69.0972 37.9424C68.6598 38.2205 68.2858 38.7071 68.6281 39.5602C69.2112 41.02 71.6263 39.6487 71.6263 39.6487L76.4341 37.2536C76.4341 37.2536 78.2818 36.3815 77.6004 35.2945C76.8366 34.0717 74.8906 35.0986 74.8906 35.0986Z" fill="#263238"/>
<path d="M67.5822 34.2076C67.5822 34.2076 72.4344 35.0386 72.8464 35.1555C73.2584 35.2724 74.878 36.0308 74.9604 36.5237C75.0015 37.1708 75.0015 37.8198 74.9604 38.4669C74.9604 38.4669 74.6656 38.7039 74.4818 38.23C74.3622 37.769 74.3099 37.2933 74.3265 36.8175L73.4232 36.47L73.9145 37.3452L73.9969 39.3959C73.9969 39.3959 73.363 39.339 73.2426 38.8493C73.1649 38.5081 73.1245 38.1596 73.1222 37.8097L72.4598 37.2536L72.9542 37.9203L73.1222 39.3959C73.1222 39.3959 72.6404 39.5539 72.4883 39.2253C72.377 38.7992 72.3216 38.3606 72.3235 37.9203L70.46 37.2694L69.2271 37.9551L67.2875 36.8965L67.5822 34.2076Z" fill="#FFBE9D"/>
<path d="M75.1378 27.4899C75.1378 29.4458 74.2345 31.032 73.1221 31.032C72.0097 31.032 71.1064 29.4521 71.1064 27.4899C71.1064 25.5277 72.0097 23.9447 73.1221 23.9447C74.2345 23.9447 75.1378 25.5151 75.1378 27.4899Z" fill="#263238"/>
<path d="M73.455 29.9103L74.561 33.7368C74.7635 33.6351 74.9251 33.4675 75.019 33.2618C75.113 33.0561 75.1336 32.8246 75.0776 32.6056C74.7987 31.2974 74.6403 30.3621 74.336 29.2152C74.298 29.0982 73.455 29.9103 73.455 29.9103Z" fill="#263238"/>
<g opacity="0.4">
<path d="M51.5266 76.2419C51.4188 75.9259 51.3047 75.6099 51.2097 75.2718C51.1146 74.9337 50.9941 74.6399 50.9117 74.3239C50.7843 73.8509 50.6911 73.3694 50.6328 72.8831C48.7629 80.4665 51.6185 85.816 56.5214 86.192C63.6809 86.7386 72.4123 87.1399 75.9429 86.2141C82.3797 84.5299 84.7409 79.1805 85.305 78.3147C85.8691 77.4489 90.9876 68.1023 87.8405 59.116C84.6933 50.1296 79.2326 40.5903 79.2326 40.5903L74.0191 42.3218C74.0191 42.3218 74.9699 46.7613 76.4848 52.0665C78.1456 57.9026 80.3704 67.0343 80.2468 72.3712C80.1629 75.5821 79.1213 78.6952 77.255 81.3133H53.5961C53.5961 81.3133 53.089 80.8046 51.5266 76.2577" fill="black"/>
</g>
<path d="M1.31524 72.2006L1.48322 70.4026L44.6872 75.3635C45.2642 75.4313 45.8212 75.6158 46.3242 75.9057C46.8272 76.1956 47.2656 76.5849 47.6124 77.0496C47.9593 77.5143 48.2073 78.0447 48.3414 78.6083C48.4754 79.172 48.4927 79.7569 48.3921 80.3275L48.1956 81.4207L3.48622 74.9432C2.8398 74.8526 2.25336 74.5169 1.84896 74.006C1.44457 73.4951 1.2534 72.8484 1.31524 72.2006Z" fill="#FFCC00"/>
<g opacity="0.6">
<path d="M1.31524 72.2006L1.48322 70.4026L44.6872 75.3635C45.2642 75.4313 45.8212 75.6158 46.3242 75.9057C46.8272 76.1956 47.2656 76.5849 47.6124 77.0496C47.9593 77.5143 48.2073 78.0447 48.3414 78.6083C48.4754 79.172 48.4927 79.7569 48.3921 80.3275L48.1956 81.4207L3.48622 74.9432C2.8398 74.8526 2.25336 74.5169 1.84896 74.006C1.44457 73.4951 1.2534 72.8484 1.31524 72.2006Z" fill="black"/>
</g>
<g opacity="0.3">
<path d="M85.2955 84.2487C85.2955 84.2487 94.8034 73.8215 96.7652 65.6251C97.7509 65.6194 98.7355 65.6923 99.7095 65.8431C99.7095 65.8431 94.0872 81.0795 85.2955 84.2487Z" fill="black"/>
</g>
<path d="M96.6257 61.9503C96.6498 62.0362 96.6668 62.1239 96.6764 62.2125C96.7018 62.3863 96.7525 62.6423 96.7873 62.9772C96.876 63.9195 96.8505 64.869 96.7113 65.8052C96.4879 67.1954 96.0608 68.5454 95.4436 69.8118C94.6918 71.3543 93.8516 72.8524 92.9271 74.2986C91.2712 76.941 89.4104 79.4501 87.3618 81.8031C86.5885 82.7131 85.9483 83.4398 85.5046 83.9422L84.9912 84.5141C84.9328 84.5821 84.8704 84.6465 84.8042 84.7069C84.8506 84.6299 84.9047 84.558 84.9658 84.492L85.4571 83.898L87.2731 81.7272C89.2905 79.3583 91.1335 76.8471 92.7877 74.2133C93.7083 72.7718 94.5494 71.2813 95.3073 69.7486C95.9165 68.4956 96.3433 67.1625 96.575 65.7894C96.7239 64.8609 96.7654 63.9183 96.6986 62.9804C96.6764 62.6644 96.6352 62.3927 96.6225 62.2189C96.6151 62.1294 96.6162 62.0395 96.6257 61.9503Z" fill="#263238"/>
<path d="M80.1834 84.1729C79.1305 83.3 78.1501 82.3437 77.2518 81.3133C77.797 81.7277 78.3069 82.1864 78.7763 82.6846C79.2838 83.1431 79.7543 83.6407 80.1834 84.1729Z" fill="#263238"/>
<path d="M51.9766 83.8506C52.3319 82.8955 52.9137 82.0402 53.6721 81.3575C53.707 81.3891 53.276 81.9073 52.8101 82.593C52.3442 83.2787 52.0146 83.8727 51.9766 83.8506Z" fill="#263238"/>
<path d="M33.7024 89.8699C34.2241 89.398 34.6633 88.8427 35.0018 88.2269C35.3548 87.5555 35.5702 86.8208 35.6357 86.0656C35.7329 85.143 35.5717 84.2117 35.1699 83.375C34.7682 82.5383 34.1418 81.8291 33.3601 81.3259C32.7306 80.8995 32.0214 80.604 31.2747 80.457C30.5828 80.3324 29.8749 80.3228 29.1798 80.4286C29.1798 80.4286 29.2273 80.4064 29.3193 80.3843C29.457 80.3497 29.5967 80.3233 29.7376 80.3053C30.256 80.2345 30.7825 80.2473 31.2969 80.3432C32.065 80.477 32.7968 80.7686 33.4457 81.1995C34.2572 81.7135 34.9072 82.4448 35.3214 83.3098C35.7356 84.1748 35.8972 85.1386 35.7878 86.0908C35.7146 86.8672 35.4816 87.6202 35.1032 88.3027C34.8533 88.7607 34.5324 89.1766 34.1524 89.535C34.053 89.6325 33.9471 89.7233 33.8355 89.8067C33.7499 89.8478 33.7056 89.8762 33.7024 89.8699Z" fill="#263238"/>
<path d="M17.9319 86.5775C17.7737 85.5703 17.7248 84.5491 17.7861 83.5315C17.8913 84.0312 17.9434 84.5407 17.9414 85.0513C17.9929 85.5589 17.9897 86.0705 17.9319 86.5775Z" fill="#263238"/>
<path d="M19.076 86.5775C18.8424 85.5751 18.7159 84.5509 18.6989 83.522C18.8435 84.0155 18.9359 84.5228 18.9746 85.0355C19.0663 85.5441 19.1003 86.0613 19.076 86.5775Z" fill="#263238"/>
<path d="M36.8907 57.3465C36.8907 57.3939 31.6392 57.4287 25.1643 57.4287C18.6894 57.4287 13.4379 57.3939 13.4379 57.3465C13.4379 57.2991 18.6894 57.2644 25.1643 57.2644C31.6392 57.2644 36.8907 57.3023 36.8907 57.3465Z" fill="#263238"/>
<path d="M19.8843 57.3307C19.8399 57.3307 19.8019 51.3272 19.8019 43.9396C19.8019 36.5521 19.8399 30.5454 19.8843 30.5454C19.9287 30.5454 19.9667 36.549 19.9667 43.9396C19.9667 51.3303 19.9287 57.3307 19.8843 57.3307Z" fill="#263238"/>
<path d="M16.6674 57.3118C16.6231 57.3118 16.8481 51.3082 17.1714 43.927C17.4946 36.5458 17.8052 30.5454 17.8369 30.5454C17.8686 30.5454 17.6594 36.549 17.3362 43.9333C17.0129 51.3177 16.715 57.3118 16.6674 57.3118Z" fill="#263238"/>
<path d="M9.39387 93.8449C9.34329 93.8028 9.29662 93.7563 9.25442 93.7059C9.17202 93.6079 9.03574 93.4721 8.88678 93.2793C8.44793 92.7433 8.05664 92.1703 7.7173 91.5667C6.57225 89.5699 5.97442 87.3079 5.98388 85.0078C5.99333 82.7077 6.60974 80.4506 7.77118 78.4632C8.11702 77.8707 8.51248 77.3083 8.95333 76.7822C9.10546 76.5895 9.24174 76.4662 9.32731 76.3588C9.36951 76.3084 9.41618 76.2618 9.46676 76.2198C9.43602 76.2783 9.39766 76.3324 9.35267 76.3809C9.2766 76.482 9.14666 76.6242 9.00404 76.8201C8.58523 77.3658 8.20708 77.9414 7.8726 78.5422C6.75157 80.5225 6.15804 82.7561 6.1486 85.0301C6.13917 87.304 6.71415 89.5425 7.81872 91.532C8.14772 92.1362 8.52169 92.715 8.93749 93.2635C9.07694 93.4626 9.20371 93.6016 9.27977 93.7059C9.32326 93.7475 9.36157 93.7942 9.39387 93.8449Z" fill="#FF9500"/>
<path d="M54.7973 69.777L54.699 69.9634L52.7975 73.5434L50.1226 76.1123L55.4628 83.206L59.9157 82.4698C59.9157 82.4698 59.4181 81.4555 57.1806 81.2596L56.3281 77.0192L59.4688 72.1658" fill="#FF9500"/>
<path d="M50.1162 76.1123L55.4628 83.206L59.9189 82.4698L59.304 81.8852L55.6498 82.2865L50.6867 75.5657L50.1162 76.1123Z" fill="#E0E0E0"/>
<path d="M56.8288 79.31C56.8003 79.3637 56.5119 79.2595 56.1791 79.3258C55.8463 79.3922 55.6055 79.5786 55.5643 79.5375C55.5231 79.4964 55.7227 79.2057 56.1411 79.1299C56.5594 79.0541 56.8637 79.2689 56.8288 79.31Z" fill="#263238"/>
<path d="M56.5785 78.2641C56.5404 78.3052 56.2964 78.0745 55.9446 78.0651C55.5928 78.0556 55.3107 78.2641 55.2822 78.2231C55.2537 78.182 55.3044 78.1219 55.4185 78.0335C55.5716 77.9187 55.7595 77.8597 55.9509 77.866C56.142 77.8734 56.3251 77.9446 56.4707 78.0682C56.5658 78.163 56.5975 78.2483 56.5785 78.2641Z" fill="#263238"/>
<path d="M56.382 76.9023C56.3376 76.9339 56.1411 76.7032 55.8147 76.6463C55.4882 76.5895 55.2252 76.738 55.1808 76.6937C55.1364 76.6495 55.2125 76.6021 55.3266 76.5357C55.4812 76.4542 55.6586 76.4264 55.8308 76.4568C56.003 76.4871 56.1602 76.5738 56.2774 76.7032C56.3851 76.8043 56.4137 76.8896 56.382 76.9023Z" fill="#263238"/>
<path d="M57.3993 75.651C57.3486 75.6794 57.1806 75.4456 56.8732 75.3129C56.5657 75.1802 56.2868 75.2023 56.2742 75.1454C56.2615 75.0886 56.5911 74.9653 56.9556 75.1454C57.32 75.3256 57.45 75.6352 57.3993 75.651Z" fill="#263238"/>
<path d="M57.8271 74.643C57.8081 74.662 57.6306 74.5072 57.3612 74.2418L56.8953 73.7709C56.7906 73.6801 56.7007 73.5735 56.6291 73.455C56.6079 73.4132 56.5953 73.3677 56.592 73.321C56.5888 73.2744 56.5949 73.2275 56.6101 73.1832C56.6285 73.1315 56.6618 73.0863 56.7057 73.0531C56.7496 73.02 56.8023 73.0004 56.8573 72.9968C57.018 73.0025 57.1738 73.0528 57.3073 73.1422C57.4242 73.2164 57.5307 73.3057 57.6243 73.4076C57.7822 73.579 57.8982 73.7844 57.9634 74.0079C58.0052 74.1081 58.0268 74.2154 58.0268 74.3239C58.0268 74.4324 58.0052 74.5398 57.9634 74.6399C57.9319 74.4444 57.8874 74.2512 57.8303 74.0616C57.7538 73.8668 57.6384 73.6894 57.4911 73.5403C57.4048 73.4538 57.3079 73.3784 57.2027 73.3159C57.1025 73.2498 56.9867 73.2106 56.8668 73.2022C56.8498 73.2009 56.8329 73.2055 56.819 73.2153C56.8051 73.2252 56.7951 73.2395 56.7907 73.2559C56.7822 73.2759 56.7778 73.2974 56.7778 73.3191C56.7778 73.3408 56.7822 73.3623 56.7907 73.3823C56.8524 73.4851 56.9269 73.5796 57.0126 73.6635L57.4468 74.1628C57.5978 74.3021 57.7262 74.4642 57.8271 74.643Z" fill="#263238"/>
<path d="M57.9982 74.7473C57.976 74.7473 57.9539 74.5135 58.1535 74.207C58.2869 74.0045 58.4826 73.8507 58.7112 73.7686C58.9399 73.6866 59.189 73.6807 59.4212 73.752C59.4464 73.7683 59.4678 73.7896 59.4841 73.8147C59.5005 73.8397 59.5115 73.8679 59.5163 73.8973C59.5207 73.9499 59.5097 74.0026 59.4846 74.049C59.4482 74.1107 59.4022 74.1661 59.3483 74.2133C59.261 74.3002 59.1655 74.3785 59.0631 74.4471C58.8919 74.562 58.7037 74.6495 58.5053 74.7062C58.3283 74.7778 58.1332 74.7922 57.9475 74.7473C58.1154 74.6801 58.2868 74.6221 58.4609 74.5735C58.6387 74.5038 58.8061 74.4102 58.9585 74.2955C59.0483 74.2291 59.133 74.1562 59.2121 74.0774C59.25 74.0419 59.2831 74.0016 59.3103 73.9574C59.3103 73.9163 59.3103 73.9289 59.3103 73.9163C59.2657 73.8997 59.2185 73.8912 59.1709 73.891C59.115 73.8863 59.0588 73.8863 59.0029 73.891C58.8569 73.9025 58.7147 73.9434 58.5851 74.0113C58.4554 74.0792 58.3409 74.1726 58.2486 74.286C58.1557 74.4345 58.0721 74.5886 57.9982 74.7473Z" fill="#263238"/>
<path d="M53.6468 75.3887C53.6642 75.493 53.6503 75.6 53.6066 75.6964C53.563 75.7927 53.4917 75.8739 53.4017 75.9298C53.3117 75.9857 53.2071 76.0137 53.1012 76.0102C52.9953 76.0068 52.8927 75.9722 52.8065 75.9106C52.7204 75.849 52.6545 75.7634 52.6172 75.6645C52.5798 75.5656 52.5728 75.4578 52.597 75.3549C52.6211 75.252 52.6753 75.1586 52.7528 75.0864C52.8302 75.0142 52.9274 74.9666 53.032 74.9495C53.1013 74.9378 53.1723 74.9399 53.2408 74.9556C53.3093 74.9714 53.3741 75.0005 53.4312 75.0414C53.4884 75.0822 53.5369 75.1339 53.5739 75.1936C53.6109 75.2532 53.6357 75.3195 53.6468 75.3887Z" fill="#E0E0E0"/>
<path d="M71.024 73.1896L72.4534 82.4445L84.0118 80.7287C83.7773 79.6386 77.4704 78.3147 77.4704 78.3147L76.7985 72.3585L71.024 73.1896Z" fill="#FF9500"/>
<path d="M73.8226 78.3621C73.7167 78.4124 73.633 78.4997 73.5874 78.6075C73.5418 78.7152 73.5375 78.8359 73.5754 78.9466C73.6217 79.0543 73.7076 79.1401 73.8155 79.1866C73.9234 79.233 74.045 79.2364 74.1553 79.1963C74.2701 79.1424 74.3604 79.0476 74.4085 78.9306C74.4566 78.8137 74.459 78.683 74.4152 78.5643C74.3544 78.4574 74.2545 78.378 74.1365 78.3427C74.0184 78.3074 73.8912 78.3188 73.7814 78.3747" fill="#E0E0E0"/>
<path d="M72.4535 82.4445L72.3457 81.4966L83.4668 80.2042C83.4668 80.2042 84.0151 80.3496 84.0119 80.7193L72.4535 82.4445Z" fill="#E0E0E0"/>
<path d="M77.6479 78.2294C77.6479 78.2862 77.3785 78.3526 77.1282 78.5769C76.8778 78.8013 76.7637 79.0572 76.7066 79.0414C76.6496 79.0256 76.6876 78.6907 76.9982 78.4095C77.3088 78.1283 77.6479 78.1757 77.6479 78.2294Z" fill="#263238"/>
<path d="M78.9346 78.5485C78.9568 78.6022 78.7255 78.7349 78.5702 79.0004C78.4149 79.2658 78.3958 79.528 78.3388 79.5344C78.2817 79.5407 78.1993 79.2184 78.399 78.9024C78.5987 78.5864 78.9156 78.498 78.9346 78.5485Z" fill="#263238"/>
<path d="M79.841 79.8946C79.7903 79.9135 79.6699 79.6449 79.7682 79.3132C79.8664 78.9814 80.1136 78.8234 80.1453 78.8677C80.177 78.9119 80.0375 79.0983 79.9583 79.3701C79.8791 79.6418 79.8949 79.8788 79.841 79.8946Z" fill="#263238"/>
<path d="M77.331 76.8865C77.331 76.9434 77.0458 76.8865 76.7289 76.9718C76.4119 77.0571 76.1806 77.1772 76.1426 77.1329C76.1045 77.0887 76.3169 76.8549 76.6908 76.779C77.0648 76.7032 77.3659 76.8391 77.331 76.8865Z" fill="#263238"/>
<path d="M76.8651 75.5594C76.6834 75.6407 76.4827 75.6702 76.2851 75.6447C76.0706 75.638 75.8578 75.6051 75.6513 75.5467C75.5279 75.5135 75.4071 75.4713 75.29 75.4203C75.2203 75.3949 75.155 75.3586 75.0967 75.3129C75.0533 75.2784 75.0228 75.2303 75.0102 75.1765C74.9975 75.1226 75.0034 75.066 75.0269 75.0159C75.0497 74.9728 75.0821 74.9356 75.1217 74.9071C75.1613 74.8786 75.207 74.8596 75.2551 74.8516C75.3287 74.8406 75.4034 74.8406 75.477 74.8516C75.6044 74.8641 75.7306 74.8874 75.8541 74.9211C76.0625 74.981 76.2602 75.0726 76.4404 75.1928C76.7574 75.3982 76.8683 75.5973 76.8493 75.6099C76.8303 75.6226 76.6686 75.4741 76.3676 75.3129C76.1904 75.218 76.0019 75.1458 75.8066 75.098C75.693 75.0715 75.5775 75.0535 75.4611 75.0443C75.3312 75.0443 75.2298 75.0443 75.2044 75.1044C75.1791 75.1644 75.2044 75.136 75.2266 75.1676C75.2702 75.2004 75.3182 75.227 75.3692 75.2466C75.4772 75.2969 75.5884 75.3401 75.702 75.3761C75.895 75.4385 76.0934 75.4829 76.2947 75.5088C76.4857 75.5132 76.6763 75.5301 76.8651 75.5594Z" fill="#263238"/>
<path d="M76.8049 75.651C76.7859 75.651 76.6433 75.4804 76.5672 75.117C76.5272 74.9086 76.5218 74.6951 76.5514 74.4851C76.571 74.3577 76.604 74.2328 76.6496 74.1122C76.6684 74.0322 76.7074 73.9583 76.7629 73.8975C76.8183 73.8366 76.8884 73.7909 76.9665 73.7646C77.0184 73.7584 77.0709 73.767 77.118 73.7894C77.1651 73.8117 77.2049 73.847 77.2328 73.891C77.272 73.9542 77.3029 74.0222 77.3247 74.0932C77.3631 74.2192 77.3823 74.3502 77.3817 74.4819C77.3822 74.7024 77.3278 74.9195 77.2232 75.1138C77.0426 75.4456 76.8176 75.5499 76.8112 75.5309C76.8049 75.512 76.9665 75.3666 77.0965 75.0538C77.1738 74.8745 77.2095 74.6801 77.2011 74.4851C77.1935 74.3775 77.1722 74.2713 77.1377 74.1691C77.1028 74.049 77.0426 73.9574 76.9982 73.9763C76.9539 73.9953 76.8556 74.0901 76.8239 74.1975C76.7823 74.2999 76.7494 74.4056 76.7257 74.5135C76.6897 74.7094 76.6812 74.9093 76.7003 75.1075C76.7415 75.4361 76.8334 75.6384 76.8049 75.651Z" fill="#263238"/>
<path d="M61.9314 51.4567L52.021 72.9873L58.5656 76.9054L72.2697 50.9985" fill="#263238"/>
<path d="M78.2818 77.4142L71.1699 78.5485L66.9136 53.2293L45.8852 54.7492C45.3276 54.7874 44.7674 54.7329 44.2277 54.588C38.3233 52.9766 39.1219 45.469 39.6924 44.2651L68.7739 43.4151C70.3023 43.366 71.795 43.8818 72.965 44.8635C74.1351 45.8451 74.8999 47.2232 75.1125 48.733L78.2818 77.4142Z" fill="#263238"/>
<path d="M39.3977 45.4405L39.5023 34.7353C39.5023 34.7353 38.1173 27.7838 37.7053 25.0379C37.0714 20.7881 36.1967 18.7721 43.1755 15.7514L44.7031 15.1669L47.0642 15.1985C49.8786 15.4102 52.845 17.9474 52.9148 19.6221L55.6309 43.7437L39.3977 45.4405Z" fill="#FFCC00"/>
<path d="M39.835 18.2413C39.835 18.2413 37.8637 22.4691 38.2503 26.3177L45.5936 33.345C47.2416 35.1745 49.2985 35.9486 51.9322 36.1098L67.1259 37.7655L67.5537 33.8094L53.1017 29.7239C52.5249 29.6196 52.2396 29.0192 51.7959 28.6369L39.835 18.2413Z" fill="#FFCC00"/>
<path d="M38.6465 19.4578C38.7316 19.377 38.8303 19.3118 38.9381 19.2651C39.2498 19.1247 39.5811 19.0321 39.9205 18.9902C40.4641 18.9013 41.0186 18.9013 41.5622 18.9902C41.7304 19.0212 41.8929 19.0777 42.044 19.1576C42.1995 19.2534 42.3488 19.3589 42.4909 19.4736C42.8 19.716 43.0962 19.9744 43.3783 20.2478C43.9868 20.8133 44.5636 21.5306 45.2386 22.2574C45.9137 22.9841 46.6521 23.7646 47.4571 24.5829C48.2622 25.4013 49.1274 26.2576 50.056 27.1424C50.5187 27.5816 51.0068 28.0302 51.5075 28.4695C51.7642 28.6812 52.0178 28.9276 52.2618 29.1583C52.4956 29.3977 52.7903 29.5691 53.1144 29.6544L67.5695 33.7305H67.6361V33.8C67.6076 34.0812 67.5727 34.3845 67.541 34.6879C67.4301 35.7432 67.3192 36.7859 67.2241 37.7655V37.8445H67.1417L60.7112 37.1398L57.6686 36.8049L54.7561 36.511C53.8053 36.4099 52.8893 36.2993 51.9988 36.1698C51.1287 36.0633 50.2725 35.8652 49.4443 35.5789C48.6813 35.2895 47.959 34.9029 47.2955 34.4288C46.6616 33.9832 46.0658 33.5156 45.5175 33.0606C43.3466 31.2121 41.7524 29.5627 40.6463 28.4379C40.098 27.8691 39.6765 27.4236 39.3786 27.1202L39.0617 26.7727L38.9571 26.6526C38.9571 26.6526 38.9983 26.6873 39.0743 26.7632L39.3913 27.0981L40.659 28.3936C41.7778 29.5059 43.3846 31.1426 45.5587 32.9753C46.107 33.4271 46.6933 33.8884 47.3335 34.3276C47.9901 34.7944 48.705 35.1736 49.4601 35.4557C50.2819 35.7384 51.132 35.9312 51.9956 36.0308C52.8862 36.1603 53.8053 36.2646 54.7497 36.3657L57.6813 36.6532L60.7238 36.9692L67.1575 37.6675L67.0656 37.7402C67.1702 36.7607 67.2811 35.7179 67.3826 34.6657C67.4174 34.3498 67.4491 34.0591 67.4776 33.7779L67.5379 33.8663L53.0858 29.7586C52.7332 29.6689 52.4127 29.4829 52.1604 29.2215C51.9037 28.9813 51.6723 28.7507 51.4093 28.5358C50.899 28.0903 50.4204 27.6416 49.9546 27.1992C49.0291 26.3082 48.1671 25.4456 47.3652 24.624C46.5634 23.8025 45.8281 23.022 45.1467 22.2858C44.4653 21.5496 43.9075 20.8323 43.3054 20.2667C43.0106 19.9823 42.719 19.7201 42.4306 19.4926C42.2923 19.3787 42.1473 19.2732 41.9964 19.1766C41.8509 19.1006 41.695 19.0463 41.5337 19.0154C40.9987 18.921 40.4519 18.9125 39.9142 18.9902C39.5778 19.0278 39.2482 19.1118 38.9349 19.2398C38.8341 19.3061 38.7377 19.3789 38.6465 19.4578Z" fill="#263238"/>
<path d="M42.4402 5.88032L43.1754 16.3075C43.2339 17.1276 43.6019 17.8952 44.2052 18.4557C44.8086 19.0161 45.6025 19.3279 46.4271 19.3283C46.8742 19.328 47.3165 19.2361 47.7264 19.0583C48.1364 18.8805 48.5053 18.6205 48.8102 18.2946C49.1152 17.9686 49.3497 17.5836 49.4991 17.1635C49.6485 16.7434 49.7097 16.2972 49.6788 15.8525C49.6155 14.8604 49.5552 14.0483 49.5552 14.0483C49.5552 14.0483 52.0907 13.6565 52.116 11.135C52.1351 9.67835 51.8815 6.37324 51.666 3.83911C51.5961 3.01323 51.2174 2.24369 50.6052 1.68302C49.9929 1.12236 49.1917 0.811497 48.3604 0.812058H46.8296C46.2044 0.848545 45.5929 1.00974 45.0313 1.28611C44.4697 1.56247 43.9695 1.94837 43.5601 2.42097C43.1508 2.89357 42.8408 3.44325 42.6484 4.03746C42.4561 4.63167 42.3852 5.25832 42.4402 5.88032Z" fill="#FFBE9D"/>
<path d="M49.5584 14.0199C48.3896 14.0378 47.242 13.7077 46.2623 13.0719C46.2623 13.0719 47.042 14.8888 49.5647 14.6518L49.5584 14.0199Z" fill="#EB996E"/>
<path d="M51.0987 7.08735C51.0988 7.18104 51.0626 7.27115 50.9976 7.33886C50.9327 7.40657 50.844 7.44664 50.7501 7.45072C50.6586 7.45773 50.568 7.42848 50.498 7.36933C50.428 7.31017 50.3842 7.22588 50.3761 7.13474C50.3752 7.04081 50.4112 6.95025 50.4763 6.88237C50.5414 6.81449 50.6306 6.77466 50.7247 6.77137C50.8162 6.76436 50.9068 6.79361 50.9768 6.85276C51.0469 6.91191 51.0906 6.9962 51.0987 7.08735Z" fill="#263238"/>
<path d="M51.2318 6.37324C51.1842 6.42063 50.9149 6.21841 50.5219 6.22157C50.1289 6.22473 49.85 6.41431 49.8088 6.36692C49.7676 6.31952 49.831 6.26265 49.9577 6.17101C50.125 6.05516 50.3245 5.99439 50.5282 5.99723C50.7307 5.99584 50.9283 6.05894 51.0923 6.17733C51.2128 6.26897 51.254 6.35428 51.2318 6.37324Z" fill="#263238"/>
<path d="M47.4477 7.08735C47.4478 7.18104 47.4116 7.27115 47.3466 7.33886C47.2817 7.40657 47.193 7.44664 47.0991 7.45072C47.0076 7.45773 46.917 7.42848 46.847 7.36933C46.777 7.31017 46.7332 7.22588 46.7251 7.13474C46.7242 7.04081 46.7602 6.95025 46.8253 6.88237C46.8904 6.81449 46.9796 6.77466 47.0737 6.77137C47.1652 6.76436 47.2558 6.79361 47.3258 6.85276C47.3959 6.91191 47.4396 6.9962 47.4477 7.08735Z" fill="#263238"/>
<path d="M47.4096 6.44591C47.3653 6.49331 47.0927 6.29108 46.7029 6.29424C46.3131 6.2974 46.0278 6.48699 45.9866 6.43959C45.9454 6.3922 46.0088 6.33532 46.1356 6.24369C46.3039 6.12739 46.5045 6.06662 46.7092 6.0699C46.9106 6.06919 47.1071 6.13225 47.2702 6.25001C47.3906 6.34164 47.4318 6.42695 47.4096 6.44591Z" fill="#263238"/>
<path d="M48.8072 9.3213C49.013 9.25726 49.2259 9.21905 49.4411 9.20755C49.5425 9.20755 49.6344 9.17911 49.6503 9.10959C49.6605 9.00845 49.6384 8.90666 49.5869 8.8189C49.4918 8.57875 49.3936 8.32597 49.2922 8.06371C49.0189 7.4255 48.7984 6.76607 48.6329 6.09202C48.9566 6.7074 49.23 7.34774 49.4506 8.00684L49.7295 8.76518C49.7931 8.88426 49.8122 9.02201 49.7834 9.15383C49.7679 9.18837 49.7452 9.21921 49.7168 9.24427C49.6883 9.26934 49.6549 9.28806 49.6186 9.29918C49.5637 9.3133 49.5073 9.32073 49.4506 9.3213C49.2371 9.34961 49.0208 9.34961 48.8072 9.3213Z" fill="#263238"/>
<path d="M47.6758 9.58988C47.7392 9.58988 47.7392 10.007 48.1005 10.3071C48.4618 10.6073 48.9119 10.5568 48.915 10.6231C48.9182 10.6895 48.8136 10.7053 48.6235 10.7116C48.3765 10.7144 48.1364 10.6305 47.9452 10.4746C47.7659 10.3227 47.6524 10.1076 47.6283 9.87425C47.5998 9.69099 47.6473 9.58672 47.6758 9.58988Z" fill="#263238"/>
<path d="M47.5079 4.92923C47.4699 5.0335 47.0832 4.98295 46.6269 5.03982C46.1705 5.0967 45.8028 5.21677 45.7395 5.12197C45.7141 5.07774 45.7775 4.97979 45.9264 4.87551C46.1254 4.75153 46.3497 4.6738 46.5829 4.64809C46.8161 4.62238 47.0521 4.64935 47.2734 4.727C47.4414 4.79652 47.5396 4.87867 47.5079 4.92923Z" fill="#263238"/>
<path d="M51.0892 5.25152C51.0195 5.34 50.7501 5.25152 50.43 5.25152C50.1099 5.25152 49.8342 5.31156 49.7708 5.21993C49.7074 5.12829 49.7867 5.08722 49.9071 5.0019C50.0671 4.90237 50.2532 4.85254 50.4417 4.85873C50.6302 4.86491 50.8125 4.92685 50.9656 5.03666C51.0797 5.11881 51.1178 5.21045 51.0892 5.25152Z" fill="#263238"/>
<path d="M43.2927 7.77302C43.2483 7.75406 41.5528 7.26113 41.6098 8.98636C41.6669 10.7116 43.3878 10.2977 43.391 10.2503C43.3941 10.2029 43.2927 7.77302 43.2927 7.77302Z" fill="#FFBE9D"/>
<path d="M42.8426 9.61199C42.8426 9.61199 42.8109 9.63411 42.7602 9.65939C42.7246 9.67425 42.6864 9.6819 42.6477 9.6819C42.6091 9.6819 42.5709 9.67425 42.5352 9.65939C42.422 9.59129 42.3288 9.49473 42.2648 9.37938C42.2008 9.26403 42.1684 9.13394 42.1707 9.00216C42.1621 8.85452 42.1859 8.70677 42.2405 8.56927C42.2548 8.515 42.2822 8.46503 42.3203 8.42373C42.3584 8.38243 42.4061 8.35104 42.4592 8.33229C42.4934 8.32167 42.5303 8.32346 42.5634 8.33733C42.5964 8.35121 42.6235 8.37628 42.6398 8.40812C42.6652 8.45552 42.6556 8.49028 42.6652 8.49344C42.6747 8.4966 42.7 8.465 42.6842 8.39233C42.6747 8.35013 42.6499 8.31296 42.6145 8.28805C42.5659 8.25323 42.5057 8.2385 42.4465 8.24698C42.3743 8.26262 42.3073 8.29636 42.2518 8.34502C42.1964 8.39367 42.1543 8.45563 42.1295 8.52504C42.0605 8.67645 42.0301 8.84251 42.0408 9.00848C42.0371 9.16249 42.079 9.31416 42.1613 9.44454C42.2436 9.57492 42.3627 9.67823 42.5035 9.74154C42.5508 9.75389 42.6002 9.75518 42.6481 9.74531C42.6959 9.73544 42.7408 9.71469 42.7793 9.68467C42.8395 9.65307 42.8458 9.61515 42.8426 9.61199Z" fill="#EB996E"/>
<path d="M42.3292 7.71614C42.4936 7.70448 42.6581 7.73775 42.805 7.81235C42.9518 7.88696 43.0755 8.00008 43.1627 8.13955C43.2736 8.38601 43.299 8.66407 43.4131 8.91053C43.4574 9.03964 43.544 9.1501 43.659 9.22406C43.774 9.29802 43.9107 9.33116 44.0469 9.31814C44.1369 9.2912 44.2179 9.2406 44.2815 9.17166C44.3451 9.10271 44.3889 9.01797 44.4082 8.92633C44.4431 8.74259 44.4431 8.55395 44.4082 8.37021C44.3037 7.56447 44.1357 6.76505 44.0913 5.95299C44.0236 5.13827 44.2013 4.32193 44.6016 3.60845C44.8056 3.25594 45.1009 2.96462 45.4567 2.76505C45.8124 2.56547 46.2155 2.46497 46.6236 2.47409C47.1624 2.51833 47.6536 2.79007 48.1892 2.87222C48.5072 2.91443 48.8307 2.88372 49.1349 2.78241C49.4392 2.68111 49.7163 2.5119 49.945 2.28767C50.0021 2.23079 50.2619 2.05384 50.2619 2.05384C50.2546 1.86221 50.1919 1.67678 50.0813 1.51984C49.0449 0.543478 47.1338 0.271739 45.7362 0.631951C45.0245 0.80619 44.3594 1.13271 43.7869 1.58885C43.2145 2.04499 42.7484 2.61984 42.4211 3.27351C41.8189 4.58165 41.9964 6.40168 42.3292 7.72562" fill="#263238"/>
<path d="M51.6945 3.45678C51.6945 3.45678 45.058 1.3271 42.1866 7.05259C41.9654 6.33245 41.821 5.59108 41.7556 4.84075C41.7556 4.32887 42.0725 1.27338 45.2165 0.312817C45.2165 0.315977 49.9673 -1.48509 51.6945 3.45678Z" fill="#FFCC00"/>
<path d="M45.993 3.59897C46.1105 3.78893 46.2708 3.949 46.4611 4.0665C46.6515 4.184 46.8666 4.25571 47.0896 4.27595C47.3125 4.29618 47.5371 4.26439 47.7456 4.18308C47.9541 4.10177 48.1407 3.97319 48.2907 3.80751C48.3565 3.97199 48.4724 4.11176 48.622 4.20718C48.7716 4.30259 48.9475 4.34884 49.1248 4.33942C49.3022 4.33001 49.4721 4.2654 49.6107 4.15468C49.7493 4.04396 49.8497 3.89271 49.8976 3.7222C50.0745 3.92052 50.2902 4.08072 50.5314 4.193C50.6556 4.24566 50.793 4.25904 50.9251 4.23135C51.0571 4.20366 51.1775 4.13624 51.2699 4.03818C51.3455 3.92373 51.3818 3.78787 51.3732 3.65109C51.3646 3.5143 51.3117 3.384 51.2223 3.27983C51.0431 3.08126 50.8163 2.93123 50.5631 2.84379C49.7769 2.4987 48.9126 2.36891 48.0594 2.46777C47.2011 2.56927 46.4148 2.99575 45.863 3.659" fill="#263238"/>
<g opacity="0.4">
<path d="M51.6945 3.45678C51.1413 2.87922 50.3842 2.53921 49.5838 2.50885C47.6252 2.42354 43.9615 3.51997 42.1866 7.06207C41.9654 6.34193 41.821 5.60056 41.7556 4.85023C41.7556 4.33835 42.0725 1.28286 45.2165 0.322294C45.2165 0.315975 49.9673 -1.48509 51.6945 3.45678Z" fill="black"/>
</g>
<path d="M42.4686 6.38272C43.4758 4.88835 44.7947 3.62839 46.3352 2.68896C47.8628 1.74103 50.3855 0.793101 52.1255 0.338096C52.6359 0.171333 53.176 0.114258 53.7101 0.170628C53.9789 0.204543 54.2326 0.313224 54.4422 0.484225C54.6518 0.655226 54.8089 0.881632 54.8955 1.13752C55.0603 1.79159 53.8971 2.79955 53.3488 3.19768C52.8132 3.55255 52.2588 3.87847 51.6881 4.17405C51.6881 4.17405 51.6881 2.96386 49.758 2.71424C47.118 2.37298 42.4686 6.38272 42.4686 6.38272Z" fill="#FFCC00"/>
<g opacity="0.3">
<path d="M40.1266 27.8849C40.8112 29.5311 41.5021 31.5597 42.4941 33.0448C43.486 34.5299 44.8108 35.8412 46.462 36.5205C48.5316 37.3831 50.9814 37.5253 53.0415 36.6374C53.2095 36.5648 53.5391 36.4731 53.5074 36.293C53.5074 36.293 52.826 36.2172 52.6168 36.1824C48.4523 35.481 47.9991 34.9691 46.0056 33.3987C44.7664 32.4192 42.0092 29.4585 40.1266 27.8754" fill="black"/>
</g>
<path d="M53.3616 39.873C53.3197 40.0072 53.2611 40.1357 53.1873 40.2554C53.0031 40.5976 52.7775 40.916 52.5154 41.2033C51.633 42.1311 50.5198 42.8092 49.289 43.1687C48.068 43.5178 46.8066 43.7069 45.5366 43.7311C45.0517 43.7311 44.6587 43.7532 44.3893 43.7501C44.2485 43.7599 44.1071 43.7536 43.9678 43.7311C44.1053 43.7019 44.2455 43.687 44.3861 43.6869L45.5302 43.6142C46.7866 43.5569 48.032 43.3544 49.2415 43.0107C50.4461 42.6535 51.5421 42.0018 52.4298 41.1148C52.7786 40.7308 53.0906 40.3151 53.3616 39.873Z" fill="#263238"/>
<path d="M71.2903 79.2911C71.2796 79.259 71.2711 79.2263 71.2649 79.1931C71.2649 79.1173 71.2332 79.0225 71.2079 78.9024C71.1603 78.6338 71.0906 78.2705 71.005 77.7807C70.8339 76.7948 70.5867 75.3887 70.2856 73.654C69.6898 70.1593 68.8721 65.347 67.9688 60.0323C67.5663 57.6277 67.1829 55.3243 66.8311 53.2262L66.9135 53.2894L57.8144 53.9529L55.2029 54.1299L54.5056 54.171H54.3282H54.2679C54.2679 54.171 54.287 54.171 54.325 54.171L54.5056 54.152L55.1997 54.0856L57.8081 53.8645L66.9008 53.1409H66.9705V53.2104C67.3255 55.3085 67.7153 57.6119 68.121 60.0165C69.0052 65.3344 69.8039 70.1467 70.387 73.6446C70.6691 75.3824 70.8941 76.8043 71.0557 77.7807C71.1286 78.261 71.1857 78.637 71.2301 78.9056L71.2681 79.1994C71.279 79.229 71.2865 79.2598 71.2903 79.2911Z" fill="#FF9500"/>
<path d="M69.0432 50.9543C69.0718 50.9922 68.5171 51.4662 67.8896 52.1076C67.2621 52.7491 66.793 53.302 66.755 53.2736C67.0237 52.7949 67.3671 52.3618 67.7723 51.9907C68.1389 51.581 68.5678 51.2313 69.0432 50.9543Z" fill="#FF9500"/>
<path d="M49.6155 16.0832C49.6155 16.0832 49.6345 16.1179 49.6535 16.1875C49.6857 16.2901 49.7059 16.3962 49.7137 16.5034C49.7508 16.8923 49.6988 17.2845 49.5616 17.6504C49.357 18.1999 48.9929 18.6762 48.5157 19.0186C47.92 19.4239 47.2033 19.6145 46.4842 19.5589C45.7676 19.513 45.0807 19.2568 44.5097 18.8227C44.0491 18.4699 43.6671 18.0255 43.3878 17.5177C43.1995 17.1791 43.0547 16.8181 42.9568 16.4434C42.9251 16.3107 42.9029 16.2064 42.8934 16.1274C42.8839 16.0484 42.8934 16.02 42.8934 16.0168C43.0395 16.516 43.2415 16.9972 43.4956 17.4514C43.7794 17.9343 44.1564 18.3563 44.6048 18.6931C45.1579 19.1033 45.8185 19.3447 46.5064 19.3883C47.1898 19.4432 47.8718 19.2674 48.4428 18.8891C48.8909 18.5632 49.2371 18.1172 49.4412 17.603C49.585 17.2536 49.6531 16.8778 49.6408 16.5003C49.6408 16.2317 49.5996 16.0863 49.6155 16.0832Z" fill="#263238"/>
<path d="M54.0874 29.8819C54.0513 29.7798 54.0279 29.6737 54.0177 29.5659C53.9828 29.3163 53.9416 29.0161 53.8909 28.6622C53.7863 27.8565 53.65 26.8232 53.5011 25.6762C53.3521 24.5292 53.2444 23.4644 53.1841 22.6808C53.1493 22.2953 53.1271 21.9856 53.1144 21.7708C53.0992 21.6586 53.0992 21.5449 53.1144 21.4327C53.1484 21.5352 53.1707 21.6412 53.181 21.7486C53.2158 21.9983 53.257 22.3016 53.3046 22.6555C53.406 23.4612 53.5359 24.4976 53.6786 25.6446C53.8212 26.7916 53.9448 27.8565 54.0208 28.6369C54.0557 29.0193 54.0811 29.3321 54.0969 29.5469C54.1065 29.6586 54.1033 29.7709 54.0874 29.8819Z" fill="#263238"/>
</g>
<defs>
<clipPath id="clip0_120_638">
<rect width="112" height="98" fill="white"/>
</clipPath>
</defs>
</svg>
