<svg width="89" height="94" viewBox="0 0 89 94" fill="none" xmlns="http://www.w3.org/2000/svg">
<g clip-path="url(#clip0_6_91)">
<path d="M13.0003 77.1355L19.9189 74.9744L18.1498 73.3285L11.2301 75.4946L13.0003 77.1355Z" fill="#FFCC00"/>
<path d="M26.8336 72.8071L33.7522 70.646L31.9831 69L25.0634 71.1662L26.8336 72.8071Z" fill="#FFCC00"/>
<path d="M24.6488 70.8074C23.9779 73.7724 21.0983 76.8951 18.2021 77.83C16.6632 78.3141 15.4332 78.0623 14.7248 77.2765C14.4457 76.9313 14.243 76.5301 14.1303 76.0997C14.0176 75.6694 13.9975 75.2196 14.0712 74.7804C14.261 74.7387 14.4487 74.6874 14.6334 74.6267C17.5217 73.727 20.4047 70.5892 21.0801 67.604C21.1325 67.3837 21.169 67.1599 21.1894 66.9343C21.6182 66.8174 22.0664 66.7913 22.5054 66.8578C22.9444 66.9243 23.3646 67.0818 23.7393 67.3204C24.6493 67.9609 25.0139 69.1937 24.6488 70.8074Z" fill="#263238"/>
<path d="M26.4458 64.8L26.3719 64.7303C25.2425 63.7538 23.4879 63.4894 21.2928 64.1695C16.8383 65.5576 12.3871 70.3814 11.3488 74.9702C10.8286 77.2697 11.2725 79.061 12.4082 80.1025C13.544 81.144 15.3337 81.4164 17.54 80.7335C21.9957 79.3403 26.4453 74.5003 27.4801 69.9266C28.0053 67.6283 27.5658 65.8644 26.4458 64.8ZM18.2268 77.8144C16.6829 78.2973 15.4528 78.0455 14.7456 77.2547C14.1171 76.5825 13.8937 75.4718 14.2075 74.085C14.8772 71.125 17.7629 67.9984 20.6592 67.0635C21.9761 66.6511 23.0611 66.7747 23.7701 67.3009C24.6489 67.9397 25.0135 69.1724 24.6484 70.786C23.978 73.7724 21.095 76.9102 18.2067 77.8099L18.2268 77.8144Z" fill="#37474F"/>
<path d="M23.9551 67.4858L23.9079 67.4381C23.1753 66.8058 22.0231 66.63 20.6144 67.0746C17.725 67.9793 14.8381 71.1109 14.1627 74.0961C13.8205 75.6089 14.0941 76.731 14.848 77.4316C15.602 78.1323 16.7638 78.2891 18.1798 77.8356C21.068 76.9359 23.951 73.7981 24.6265 70.8129C24.9854 69.3198 24.7036 68.1641 23.9551 67.4858ZM18.4251 76.7514C17.1824 77.1382 16.1944 76.9358 15.6254 76.3035C15.123 75.7499 14.9431 74.8664 15.1941 73.757C15.5582 72.4762 16.2171 71.2989 17.1175 70.3202C18.018 69.3415 19.1346 68.589 20.3771 68.1234C20.7836 67.9567 21.2231 67.8878 21.6605 67.9223C22.0978 67.9569 22.5208 68.0938 22.8956 68.3222C23.603 68.8321 23.8951 69.8258 23.5996 71.1319C23.2397 72.4091 22.5855 73.5839 21.69 74.561C20.7944 75.5382 19.6828 76.2901 18.4451 76.756L18.4251 76.7514Z" fill="#FFCC00"/>
<path d="M40.6719 68.4798L47.5866 66.3125L45.8164 64.6716L38.9028 66.8338L40.6719 68.4798Z" fill="#FFCC00"/>
<path d="M54.5051 64.1513L61.4248 61.9852L59.6496 60.3432L52.736 62.5054L54.5051 64.1513Z" fill="#FFCC00"/>
<path d="M68.3383 59.8229L75.2581 57.6567L73.4879 56.0159L66.5693 58.177L68.3383 59.8229Z" fill="#FFCC00"/>
<path d="M45.3762 19.9448C45.8563 19.6877 46.2308 19.9208 46.2075 20.4668C46.1794 20.7626 46.0827 21.0477 45.925 21.2993C45.7673 21.5508 45.5531 21.7618 45.2996 21.9153C44.8194 22.1724 44.4511 21.9353 44.4683 21.3932C44.4959 21.0974 44.5925 20.8121 44.7502 20.5605C44.908 20.3088 45.1224 20.0979 45.3762 19.9448Z" fill="#FFCC00"/>
<path d="M49.5784 23.2385L46.0214 19.9371L44.6365 21.9084L48.1986 25.211L49.5784 23.2385Z" fill="#FFCC00"/>
<path d="M48.9154 23.2316C49.3955 22.9745 49.77 23.2076 49.7467 23.7536C49.7206 24.0494 49.6252 24.335 49.4683 24.5869C49.3113 24.8389 49.0974 25.05 48.8438 25.2032C48.7605 25.2745 48.6567 25.3174 48.5476 25.3256C48.4386 25.3337 48.3298 25.3067 48.2371 25.2485C48.1445 25.1904 48.0727 25.104 48.0324 25.002C47.992 24.8999 47.985 24.7876 48.0125 24.6812C48.0382 24.3853 48.1335 24.0996 48.2904 23.8476C48.4474 23.5956 48.6616 23.3845 48.9154 23.2316Z" fill="#FFCC00"/>
<path d="M75.8563 50.2332C75.8335 50.3341 75.813 50.4248 75.7902 50.5257C75.7445 50.7274 75.6978 50.9341 75.651 51.1409C74.9168 50.609 73.8319 50.4855 72.54 50.9035C69.6506 51.8082 66.7626 54.9448 66.0883 57.925C65.7757 59.3067 66.0014 60.4073 66.6265 61.0947C66.3843 61.1966 66.137 61.2857 65.8857 61.3618L65.6224 61.4295L64.3091 63.947L60.7338 60.7263C59.6093 59.682 59.1743 57.898 59.6922 55.6086C60.727 51.0349 65.1755 46.1999 69.6323 44.8017C71.8347 44.1127 73.6222 44.3951 74.7641 45.4327L78.2671 48.6L78.341 48.6697L75.8563 50.2332Z" fill="#5856D6"/>
<path d="M78.3312 48.6198L78.2573 48.5501C77.1279 47.5737 75.3733 47.3092 73.1782 47.9893C68.7225 49.3825 64.269 54.2163 63.2343 58.79C62.714 61.0895 63.1579 62.8809 64.2936 63.9223C65.4294 64.9638 67.2191 65.2362 69.4254 64.5533C73.8811 63.1601 78.3307 58.3201 79.3655 53.7464C79.8757 51.4447 79.4418 49.6556 78.3312 48.6198ZM70.1122 61.6342C68.5683 62.1171 67.3383 61.8654 66.6311 61.0746C66.0025 60.4023 65.7791 59.2916 66.0929 57.9049C66.7626 54.9448 69.6483 51.8183 72.5446 50.8833C73.8615 50.471 74.9465 50.5945 75.6555 51.1207C76.5343 51.7595 76.8989 52.9922 76.5338 54.6059C75.8483 57.5888 72.9553 60.7244 70.0771 61.6263L70.1122 61.6342Z" fill="#37474F"/>
<path d="M76.5192 54.6238C75.8483 57.5889 72.9687 60.7115 70.0725 61.6465C68.5336 62.1305 67.3036 61.8787 66.5952 61.093C66.3161 60.7477 66.1134 60.3465 66.0007 59.9162C65.888 59.4858 65.8679 59.036 65.9416 58.5968C66.1314 58.5551 66.3191 58.5038 66.5038 58.4431C69.3921 57.5434 72.2751 54.4057 72.9505 51.4204C73.0029 51.2001 73.0394 50.9763 73.0598 50.7507C73.4886 50.6338 73.9368 50.6078 74.3758 50.6742C74.8147 50.7407 75.235 50.8982 75.6097 51.1368C76.5197 51.7774 76.8842 53.0101 76.5192 54.6238Z" fill="#263238"/>
<path d="M75.8416 51.3006L75.7933 51.2579C75.0608 50.6257 73.9135 50.4509 72.4999 50.8944C69.6116 51.7941 66.7286 54.9318 66.0532 57.9171C65.7166 59.4047 65.9845 60.5519 66.7334 61.2515C67.4824 61.951 68.6492 62.109 70.0652 61.6554C72.9546 60.7507 75.8426 57.6141 76.5169 54.6339C76.85 53.1614 76.5701 51.9743 75.8416 51.3006ZM70.3105 60.5712C69.0729 60.9591 68.0849 60.7568 67.5159 60.1245C67.0135 59.5709 66.8286 58.6862 67.0807 57.5718C67.445 56.2919 68.1039 55.1155 69.0041 54.1377C69.9043 53.1598 71.0206 52.4081 72.2625 51.9433C73.3229 51.616 74.1976 51.7132 74.786 52.1431C75.4935 52.6531 75.7855 53.6468 75.49 54.9528C75.1268 56.2317 74.4685 57.4071 73.5684 58.3834C72.6684 59.3596 71.5522 60.1092 70.3105 60.5712Z" fill="#FFCC00"/>
<path d="M67.4786 54.158L80.5343 50.0724C82.0547 49.6001 78.708 44.0404 75.5651 43.0113C73.8336 42.3936 71.9894 42.1571 70.1574 42.3179C70.1574 42.3179 71.9034 46.0471 71.0696 47.7508C70.2358 49.4545 67.4786 54.158 67.4786 54.158Z" fill="#FFCC00"/>
<path d="M55.4519 31.5485C55.4519 31.5485 70.2629 43.81 70.8702 44.4828C71.4775 45.1556 69.4155 50.9122 67.4786 54.158C65.5417 57.4038 62.5447 62.3976 61.4942 63.7766C60.4438 65.1557 59.3896 65.4791 57.4711 66.0787L43.8452 70.3533L27.1057 68.6439L21.4315 63.6496L25.5193 53.3686C25.5193 53.3686 44.941 48.0252 47.632 47.1817C50.3229 46.3381 58.7872 41.4946 55.4519 31.5485Z" fill="#FFCC00"/>
<path opacity="0.2" d="M55.4519 31.5485C55.4519 31.5485 70.2629 43.81 70.8702 44.4828C71.4775 45.1556 69.4155 50.9122 67.4786 54.158C65.5417 57.4038 62.5447 62.3976 61.4942 63.7766C60.4438 65.1557 59.3896 65.4791 57.4711 66.0787L43.8452 70.3533L27.1057 68.6439L21.4315 63.6496L25.5193 53.3686C25.5193 53.3686 44.941 48.0252 47.632 47.1817C50.3229 46.3381 58.7872 41.4946 55.4519 31.5485Z" fill="black"/>
<path d="M69.4001 52.4724C71.8261 48.7436 73.7172 45.6305 74.0349 43.317C74.4145 40.567 73.9157 38.1324 69.7349 36.0257C65.5542 33.9189 59.3551 32.527 59.3551 32.527L57.2209 33.1944C57.2209 33.1944 68.2686 43.486 69.5322 44.6148C70.3013 45.3188 70.7426 47.751 67.4797 54.1529C67.4797 54.1529 67.5919 54.2631 67.737 54.3914C67.882 54.5196 68.6229 53.6695 69.4001 52.4724Z" fill="#FFCC00"/>
<path opacity="0.3" d="M69.4001 52.4724C71.8261 48.7436 73.7172 45.6305 74.0349 43.317C74.4145 40.567 73.9157 38.1324 69.7349 36.0257C65.5542 33.9189 59.3551 32.527 59.3551 32.527L57.2209 33.1944C57.2209 33.1944 68.2686 43.486 69.5322 44.6148C70.3013 45.3188 70.7426 47.751 67.4797 54.1529C67.4797 54.1529 67.5919 54.2631 67.737 54.3914C67.882 54.5196 68.6229 53.6695 69.4001 52.4724Z" fill="white"/>
<path d="M62.5153 38.1187L64.8395 37.4041C64.8395 37.4041 66.3403 30.2113 63.7383 27.7939C61.1364 25.3764 50.6786 24.2507 50.6786 24.2507L48.366 24.9838L62.5153 38.1187Z" fill="#FFCC00"/>
<path d="M57.7567 28.1686C56.6254 28.5063 56.4177 29.4241 57.2923 30.2209C57.7755 30.6185 58.3445 30.8973 58.9542 31.0353C59.5638 31.1732 60.1974 31.1665 60.8047 31.0156C61.9371 30.6728 62.1505 29.7298 61.269 28.9632C60.7873 28.5631 60.2183 28.2827 59.6082 28.1447C58.998 28.0066 58.3637 28.0148 57.7567 28.1686Z" fill="#F0F0F0"/>
<path d="M60.1142 32.2959C59.3316 32.5376 59.1845 33.1881 59.7856 33.7481C60.13 34.0334 60.5364 34.2334 60.9721 34.332C61.4079 34.4305 61.8608 34.425 62.2944 34.3158C63.0731 34.0679 63.2203 33.4174 62.623 32.8635C62.2799 32.576 61.8735 32.3747 61.4373 32.276C61.0011 32.1773 60.5477 32.1841 60.1142 32.2959Z" fill="#F0F0F0"/>
<path d="M53.2137 26.1707C52.43 26.4174 52.2829 27.0679 52.8852 27.623C53.2279 27.9112 53.6343 28.113 54.0706 28.2117C54.5069 28.3104 54.9606 28.3032 55.394 28.1906C56.1766 27.9489 56.3237 27.2984 55.7226 26.7383C55.3786 26.4523 54.9722 26.2519 54.5363 26.1533C54.1004 26.0547 53.6473 26.0606 53.2137 26.1707Z" fill="#F0F0F0"/>
<path d="M63.2825 36.103C63.7615 35.851 64.136 36.0841 64.1127 36.6301C64.0862 36.9258 63.9906 37.2112 63.8337 37.4631C63.6768 37.7149 63.463 37.9262 63.2098 38.0797C62.7258 38.3306 62.3563 38.0986 62.3746 37.5515C62.403 37.2559 62.5 36.9709 62.6576 36.7194C62.8153 36.4679 63.0293 36.2568 63.2825 36.103Z" fill="#FFCC00"/>
<path d="M67.4848 39.3967L63.9316 36.1015L62.5429 38.0666L66.1088 41.3754L67.4848 39.3967Z" fill="#FFCC00"/>
<path d="M66.8268 39.391C67.3058 39.1389 67.6753 39.3709 67.657 39.9181C67.6285 40.2137 67.5316 40.4987 67.3739 40.7502C67.2163 41.0017 67.0023 41.2128 66.7491 41.3665C66.2701 41.6186 65.8956 41.3854 65.9189 40.8394C65.9461 40.5435 66.0426 40.258 66.2003 40.0063C66.3581 39.7546 66.5728 39.5438 66.8268 39.391Z" fill="#FFCC00"/>
<path d="M66.8268 39.391C67.3058 39.1389 67.6753 39.3709 67.657 39.9181C67.6285 40.2137 67.5316 40.4987 67.3739 40.7502C67.2163 41.0017 67.0023 41.2128 66.7491 41.3665C66.2701 41.6186 65.8956 41.3854 65.9189 40.8394C65.9461 40.5435 66.0426 40.258 66.2003 40.0063C66.3581 39.7546 66.5728 39.5438 66.8268 39.391Z" fill="black"/>
<path d="M23.9809 66.4156C23.9581 66.5165 23.9376 66.6073 23.9147 66.7081C23.8691 66.9098 23.8223 67.1166 23.7756 67.3233C23.0414 66.7915 21.9565 66.6679 20.6646 67.0859C17.7752 67.9906 14.8871 71.1273 14.2129 74.1075C13.9003 75.4892 14.126 76.5898 14.7511 77.2772C14.5089 77.379 14.2616 77.4681 14.0102 77.5442L13.747 77.6119L12.4337 80.1295L8.85842 76.9087C7.73386 75.8645 7.29886 74.0804 7.81682 71.791C8.85161 67.2174 13.3001 62.3824 17.7569 60.9842C19.9593 60.2951 21.7468 60.5776 22.8887 61.6151L26.3917 64.7824L26.4655 64.8522L23.9809 66.4156Z" fill="#5856D6"/>
<path d="M13.5808 55.6397L8.11166 65.5922L13.4261 70.5211L18.9909 60.6591L13.5808 55.6397Z" fill="#FFCC00"/>
<path opacity="0.2" d="M13.5808 55.6397L8.11166 65.5922L13.4261 70.5211L18.9909 60.6591L13.5808 55.6397Z" fill="black"/>
<path d="M13.5809 55.6397C13.5809 55.6397 16.3818 59.3691 18.9898 60.6641C22.409 62.36 28.1476 63.7591 30.1578 64.3623C33.2347 65.2864 35.588 65.8188 36.787 65.6714C38.3312 65.4906 42.6824 64.1162 43.8853 63.7417C46.1906 63.0176 48.1244 58.5731 42.7714 56.0527C39.154 54.4032 35.3762 53.1328 31.4978 52.2617L13.5809 55.6397Z" fill="#FFCC00"/>
<path d="M48.4432 62.1066C48.1724 62.5076 47.9507 62.9397 47.7828 63.3937C47.5102 63.8441 47.3562 64.3565 47.3351 64.8827C47.5667 65.6071 48.0614 66.2167 48.721 66.5903C49.2043 66.822 49.7306 66.95 50.2663 66.9663C50.802 66.9825 51.3354 66.8867 51.8327 66.6848C53.0066 66.2984 53.9605 65.7191 55.5316 65.6293C56.6378 65.6389 57.7339 65.4117 58.7469 64.9626C59.7142 64.4871 61.2211 62.9091 59.7514 62.1313C58.2817 61.3536 54.537 62.0754 51.4103 61.5111L48.4432 62.1066Z" fill="#37474F"/>
<path d="M48.887 60.145L48.3587 62.4798C48.4214 62.8923 48.6414 63.2639 48.9723 63.5158C49.3031 63.7678 49.7188 63.8803 50.1315 63.8297C50.5398 63.769 50.9221 63.5908 51.2322 63.3166C51.5423 63.0425 51.7668 62.6841 51.8787 62.2849L52.2839 60.9136L48.887 60.145Z" fill="#FFA8A7"/>
<path d="M56.6022 46.7463C55.9461 49.6458 52.3032 61.994 52.3032 61.994C52.3032 61.994 50.7768 63.2389 48.555 61.146L50.829 46.9455L56.6022 46.7463Z" fill="#37474F"/>
<path d="M40.3385 56.0589L49.4198 53.2209C49.7868 53.1203 50.1199 52.9212 50.3833 52.6451C50.6467 52.3689 50.8304 52.0261 50.9147 51.6535C50.999 51.2808 50.9807 50.8923 50.8619 50.5297C50.743 50.1671 50.5281 49.844 50.2401 49.5952L45.0339 44.7704C44.736 44.5228 44.3841 44.3492 44.0066 44.2638C43.6291 44.1784 43.2368 44.1836 42.8613 44.2788L33.7877 47.1292C33.4195 47.2283 33.0851 47.4265 32.8206 47.7026C32.5561 47.9786 32.3716 48.3219 32.2871 48.6953C32.2026 49.0687 32.2214 49.4579 32.3413 49.8209C32.4612 50.184 32.6777 50.5069 32.9674 50.7548L38.1636 55.5774C38.4626 55.8236 38.8154 55.9956 39.1932 56.0792C39.5711 56.1628 39.9634 56.1559 40.3385 56.0589Z" fill="#FFCC00"/>
<path d="M40.3385 56.0589L49.4198 53.2209C49.7868 53.1203 50.1199 52.9212 50.3833 52.6451C50.6467 52.3689 50.8304 52.0261 50.9147 51.6535C50.999 51.2808 50.9807 50.8923 50.8619 50.5297C50.743 50.1671 50.5281 49.844 50.2401 49.5952L45.0339 44.7704C44.736 44.5228 44.3841 44.3492 44.0066 44.2638C43.6291 44.1784 43.2368 44.1836 42.8613 44.2788L33.7877 47.1292C33.4195 47.2283 33.0851 47.4265 32.8206 47.7026C32.5561 47.9786 32.3716 48.3219 32.2871 48.6953C32.2026 49.0687 32.2214 49.4579 32.3413 49.8209C32.4612 50.184 32.6777 50.5069 32.9674 50.7548L38.1636 55.5774C38.4626 55.8236 38.8154 55.9956 39.1932 56.0792C39.5711 56.1628 39.9634 56.1559 40.3385 56.0589Z" fill="white"/>
<path d="M33.5048 48.3798L38.7009 53.2023C38.9988 53.4499 39.3508 53.6235 39.7282 53.7089C40.1057 53.7943 40.4981 53.7891 40.8736 53.6939L49.9548 50.8559C50.096 50.8408 50.229 50.7817 50.3353 50.6869C50.4415 50.5921 50.5155 50.4663 50.547 50.3272C50.5784 50.1881 50.5658 50.0427 50.5107 49.9114C50.4557 49.7801 50.361 49.6695 50.2401 49.5952L45.0339 44.7704C44.736 44.5228 44.3841 44.3492 44.0066 44.2638C43.6291 44.1784 43.2368 44.1836 42.8613 44.2788L33.7878 47.1292C33.6496 47.1471 33.5201 47.2073 33.417 47.3015C33.3138 47.3957 33.2419 47.5195 33.211 47.656C33.1801 47.7925 33.1918 47.9351 33.2443 48.0646C33.2969 48.1941 33.3878 48.3041 33.5048 48.3798Z" fill="#FFCC00"/>
<path d="M45.3743 18.6245L43.4069 22.6108L38.971 21.8881L41.2367 16.2571L45.3743 18.6245Z" fill="#FFA8A7"/>
<path d="M50.3356 16.4181C50.3356 16.4181 50.4023 18.315 50.205 18.371C49.876 18.3502 49.5525 18.277 49.2466 18.1542L50.3356 16.4181Z" fill="#F28F8F"/>
<path d="M50.8093 10.5248C51.3285 11.5169 51.6577 13.0226 50.4073 16.2647C49.0371 19.803 48.265 20.0683 47.6421 20.3037C46.8358 20.6037 44.0556 19.7202 43.3901 18.9548C42.5915 18.032 41.6133 15.4783 41.7583 13.2053C41.931 10.5304 43.4409 7.86647 45.4371 7.80922C48.2427 7.71778 50.3719 9.68372 50.8093 10.5248Z" fill="#FFA8A7"/>
<path d="M40.527 17.3423C41.0408 18.1953 42.3761 18.7042 43.2312 19.0513C44.0862 19.3985 46.7072 20.1929 47.9386 18.4572C49.1699 16.7215 48.9317 15.2099 50.0151 14.9674C51.0985 14.7248 52.1365 14.6363 52.441 14.4561C52.7455 14.2758 53.4771 11.1125 51.2337 8.88215C48.9903 6.65183 45.0729 5.36267 41.6845 8.09986C39.0855 10.2152 38.9453 14.7051 40.527 17.3423Z" fill="#5856D6"/>
<path d="M42.9059 19.0202C43.5657 19.2278 45.7897 19.3758 46.6316 18.6386C47.4736 17.9015 48.1 16.3682 48.3847 15.5527C48.4697 15.2272 48.6618 14.9401 48.9298 14.7379C49.1977 14.5358 49.5257 14.4305 49.8603 14.4394C50.6279 14.3319 51.3898 14.1858 52.143 14.0017L52.2319 13.6084C52.6993 13.6857 53.1617 13.7903 53.6168 13.9217C53.9103 14.0464 53.6432 14.4577 52.7915 14.6785C51.9399 14.8993 49.6787 15.1722 49.2943 15.3556C48.91 15.539 48.5242 16.5914 48.0013 17.7134C47.4785 18.8355 46.3331 20.3309 42.9059 19.0202Z" fill="#37474F"/>
<path d="M47.8524 25.1326L50.6886 24.253C51.0899 23.5752 50.7907 23.1258 50.093 23.0157C49.3953 22.9055 49.7617 22.2887 49.3886 22.0029C48.8975 21.632 48.5595 21.704 48.3399 21.5324C48.1203 21.3608 48.0822 21.0394 47.7679 20.9365C46.3648 20.4706 44.9209 22.3067 44.9209 22.3067L47.8524 25.1326Z" fill="#F28F8F"/>
<path d="M26.6336 39.8175C26.6336 39.8175 38.9726 36.7784 41.1079 36.3391C43.2432 35.8999 46.5655 35.2734 48.175 35.6428C48.788 35.8404 49.3093 36.2532 49.6434 36.8057C49.9775 37.3583 50.102 38.0136 49.9943 38.6518C49.7949 39.6292 49.5194 40.5896 49.1705 41.524C45.903 41.8469 42.6177 41.9414 39.3381 41.8067C34.5701 41.5496 26.6336 39.8175 26.6336 39.8175Z" fill="#37474F"/>
<path d="M28.5589 36.903C28.042 39.1874 27.2928 41.5198 27.8624 43.4085C28.4319 45.2972 32.6888 50.3313 37.7133 50.62C40.9965 50.7957 51.3619 48.5768 51.3619 48.5768C51.3619 48.5768 56.2866 47.9312 56.5771 46.7406C57.0065 44.9825 57.4463 42.4793 53.4533 41.6872C49.8189 40.9657 38.6364 40.8051 38.6364 40.8051L28.5589 36.903Z" fill="#5856D6"/>
<path d="M35.7601 19.4813C37.8846 18.0643 39.0768 18.1803 39.8506 18.5833C41.6181 19.5561 43.2822 20.707 44.8174 22.0182C44.8174 22.0182 42.6993 28.3028 45.4255 30.8703L43.154 40.9102C43.154 40.9102 42.8161 41.984 41.2021 42.7532C39.7811 43.4388 36.8436 43.7867 33.6488 42.7776C29.8582 41.5808 28.5739 36.9065 28.5739 36.9065C28.5739 36.9065 30.3321 28.6693 31.6222 25.5316C33.1057 21.8651 35.03 19.9575 35.7601 19.4813Z" fill="#5856D6"/>
<path d="M45.316 31.3544C45.316 31.3544 43.7616 29.4124 43.6334 27.3214C43.6334 27.3214 43.1621 30.4536 45.0501 32.5293L45.316 31.3544Z" fill="#37474F"/>
<path d="M61.8053 40.0678C62.6968 40.3102 63.6449 40.2364 64.4898 39.8588C64.4898 39.8588 65.7485 38.3519 66.7853 38.7349C66.7853 38.7349 67.1442 38.0581 66.7524 37.715C66.3606 37.3719 66.1589 37.4005 66.0392 37.1137C65.9195 36.8269 65.9978 36.341 65.2 36.1605C64.8688 36.0856 64.9726 35.8599 64.1915 35.5825C63.4103 35.305 62.1904 36.9903 61.6033 36.8575L61.8053 40.0678Z" fill="#FFA8A7"/>
<path d="M44.8208 22.0031C47.4735 23.0538 48.2861 24.1017 49.0774 25.2667C49.8687 26.4316 54.6155 34.0096 54.6155 34.0096L61.8036 36.765C62.1224 37.1714 62.3121 37.6649 62.3481 38.1816C62.4507 39.1271 61.9641 40.0189 61.6256 40.1861C61.6256 40.1861 54.1554 38.9572 52.7669 38.3568C51.3784 37.7564 45.2793 31.3301 45.2793 31.3301C44.7101 30.6561 44.2818 29.8737 44.0198 29.0295C43.7577 28.1853 43.6673 27.2965 43.7539 26.4158C43.9814 23.2656 44.8208 22.0031 44.8208 22.0031Z" fill="#5856D6"/>
<path d="M32.1803 47.1471L17.6076 58.5438C17.4788 58.5228 17.3515 58.494 17.2262 58.4576C16.7728 58.3625 16.3501 58.1558 15.9963 57.8559L7.63081 50.1165L7.06409 49.5907C6.74959 49.3023 6.64567 48.4094 6.83962 47.5522L7.37242 45.1972C7.92208 42.7823 9.09369 40.5536 10.7698 38.7344C12.4459 36.9152 14.5677 35.5696 16.9225 34.8322L29.9211 30.7655L40.5485 40.6069L32.1803 47.1471Z" fill="#FFCC00"/>
<g opacity="0.1">
<path d="M32.1803 47.1471L17.6076 58.5438C17.4788 58.5228 17.3515 58.494 17.2262 58.4576C16.7728 58.3625 16.3501 58.1558 15.9963 57.8559L7.63081 50.1165L7.06409 49.5907C6.74959 49.3023 6.64567 48.4094 6.83962 47.5522L7.37242 45.1972C7.92208 42.7823 9.09369 40.5536 10.7698 38.7344C12.4459 36.9152 14.5677 35.5696 16.9225 34.8322L29.9211 30.7655L40.5485 40.6069L32.1803 47.1471Z" fill="black"/>
</g>
<path d="M27.1418 51.0694L40.5485 40.6069L29.9257 30.7453L16.9224 34.8322C15.2515 35.3566 13.6925 36.1905 12.3259 37.2908L27.1418 51.0694Z" fill="#FFCC00"/>
<path d="M38.2153 50.9191C38.0259 51.7562 37.5433 52.5375 37.1352 52.6625L36.3973 52.8932L18.6109 58.4687C18.2895 58.559 17.9539 58.5856 17.6226 58.5472C17.4939 58.5262 17.3665 58.4974 17.2413 58.461L18.0102 55.0622C18.5509 52.642 19.716 50.406 21.3886 48.5791C23.0611 46.7522 25.1821 45.3989 27.5382 44.6551L29.0077 44.1977L40.5318 40.5872L38.2153 50.9191Z" fill="#FFCC00"/>
<g opacity="0.2">
<path d="M38.2153 50.9191C38.0259 51.7562 37.5433 52.5375 37.1352 52.6625L36.3973 52.8932L18.6109 58.4687C18.2895 58.559 17.9539 58.5856 17.6226 58.5472C17.4939 58.5262 17.3665 58.4974 17.2413 58.461L18.0102 55.0622C18.5509 52.642 19.716 50.406 21.3886 48.5791C23.0611 46.7522 25.1821 45.3989 27.5382 44.6551L29.0077 44.1977L40.5318 40.5872L38.2153 50.9191Z" fill="black"/>
</g>
<path d="M37.679 68.9794L43.8402 70.3522L53.8092 67.2274L43.7545 71.5467L37.2361 70.1673L37.679 68.9794Z" fill="#E0E0E0"/>
<path d="M20.7367 74.3908C20.7367 74.3908 32.7872 72.6964 33.8423 72.4156C35.1043 71.9888 36.329 71.4574 37.5036 70.8268C37.7662 70.6068 37.9372 70.2961 37.9829 69.956C38.0286 69.616 37.9456 69.2713 37.7504 68.9903C37.7504 68.9903 33.2813 67.7618 32.0373 67.8514C31.3444 67.9067 20.1417 68.9077 20.1417 68.9077L20.7367 74.3908Z" fill="#E0E0E0"/>
<path d="M21.3021 69.5837C20.563 68.5843 19.5656 68.7031 19.0744 69.8483C18.8392 70.4853 18.757 71.1688 18.8345 71.8431C18.912 72.5174 19.147 73.1635 19.5204 73.7286C20.2545 74.727 21.2569 74.6092 21.7481 73.464C21.9833 72.827 22.0655 72.1435 21.988 71.4692C21.9105 70.7949 21.6755 70.1489 21.3021 69.5837Z" fill="#5856D6"/>
</g>
<defs>
<clipPath id="clip0_6_91">
<rect width="72.6914" height="79.7488" fill="white" transform="translate(17.5982) rotate(12.7484)"/>
</clipPath>
</defs>
</svg>
